<svg id="Layer_1" height="512" viewBox="0 0 512 512" width="512" xmlns="http://www.w3.org/2000/svg" data-name="Layer 1"><path d="m300.14 104.28c-14.21 27.21-28.06 53.93-28.06 70.85-8.47 6.82-22.23 7.17-30.12 1.96a40.72 40.72 0 0 1 .4-5.46l1.1-5.81c9.04-38.46 56.07-104.93 56.7-139.69a15.237 15.237 0 0 1 15.14-15.13 14.68 14.68 0 0 1 10.55 4.43 16.313 16.313 0 0 1 4.58 10.7c.85 18.76-14.92 48.73-30.28 78.13-.01.01-.01.01-.01.02z" fill="#e29454"/><path d="m254.448 177.09a40.728 40.728 0 0 1 .4-5.46l1.1-5.81c9.041-38.46 56.071-104.93 56.7-139.69a15.392 15.392 0 0 1 8.873-13.748 14.637 14.637 0 0 0 -6.221-1.382 15.237 15.237 0 0 0 -15.14 15.13c-.63 34.76-47.66 101.23-56.7 139.69l-1.1 5.81a40.72 40.72 0 0 0 -.4 5.46c5.078 3.353 12.583 4.388 19.549 2.893a21.343 21.343 0 0 1 -7.061-2.893z" fill="#bf7a47"/><path d="m407.09 79.86a4.759 4.759 0 0 1 .29 4.03l-5.06 13.19a84.158 84.158 0 0 1 -21.15 31.41 109.089 109.089 0 0 0 -12.53-4.25c-49.29-13.51-76.59 30.91-94.84 49.35a19.292 19.292 0 0 1 -1.72 1.54c0-16.92 13.85-43.64 28.06-70.85 0-.01 0-.01.01-.02 19.99-30.05 55.64-37.61 89.51-30.02l14.13 3.16a5.029 5.029 0 0 1 3.3 2.46z" fill="#789e19"/><path d="m403.79 77.4-2.112-.472c-4.262 5.275-8.727 10.645-13.218 16.038 0 .009 0 .009-.014.017-24.566 23.85-58.622 24.926-88.946 12.522-13.983 26.785-27.42 52.959-27.42 69.625a19.292 19.292 0 0 0 1.72-1.54c18.25-18.44 45.55-62.86 94.84-49.35a109.089 109.089 0 0 1 12.53 4.25 84.158 84.158 0 0 0 21.15-31.41l5.06-13.19a4.759 4.759 0 0 0 -.29-4.03 5.029 5.029 0 0 0 -3.3-2.46z" fill="#6e891a"/><path d="m242.36 171.63a40.72 40.72 0 0 0 -.4 5.46 14.316 14.316 0 0 1 -3.76-3.5c-13.71-18.79-41.66-57.48-85.6-51.28-11.09-19.88-18.52-50.43-15.69-74.49l2.13-18.2a6.276 6.276 0 0 1 7.87-5.33l17.7 4.75a111.588 111.588 0 0 1 81.86 120.76l-3.01 16.02q-.72 3.03-1.1 5.81z" fill="#789e19"/><path d="m169.157 30.369c3.455 1.472 7.052 2.831 10.761 4a111.852 111.852 0 0 0 -10.761-4z" fill="#6e891a"/><path d="m140.7 39.354-1.762-8.854-2.028 17.32c-2.83 24.06 4.6 54.61 15.69 74.49 43.94-6.2 71.89 32.49 85.6 51.28a14.316 14.316 0 0 0 3.76 3.5 40.72 40.72 0 0 1 .4-5.46q.375-2.775 1.1-5.81l3.01-16.02a111.638 111.638 0 0 0 -.265-28.18 111.6 111.6 0 0 1 -105.505-82.266z" fill="#6e891a"/><path d="m381.17 128.49c59.69 24.35 81.84 95.65 81.84 148.79 0 94.64-92.92 223.72-152.63 223.72-14.8 0-28.77-8.15-38.9-14.28-8.88-5.37-25.32-3.46-30.96 0-10.09 6.19-24.49 14.28-38.9 14.28-71.35 0-152.06-127.62-152.63-223.72-.27-46.28 25.22-134.09 94.37-153.04a74.673 74.673 0 0 1 9.24-1.93c43.94-6.2 71.89 32.49 85.6 51.28a14.316 14.316 0 0 0 3.76 3.5c7.89 5.21 21.65 4.86 30.12-1.96a19.292 19.292 0 0 0 1.72-1.54c18.25-18.44 45.55-62.86 94.84-49.35a109.089 109.089 0 0 1 12.53 4.25z" fill="#fc324b"/><path d="m144.324 321.052c-23.883-43.331-44.773-138.822 10.5-191.926a79.753 79.753 0 0 1 7.693-6.531c.424-.314.85-.615 1.277-.917a66.3 66.3 0 0 0 -11.2.632 74.673 74.673 0 0 0 -9.24 1.93c-69.144 18.95-94.634 106.76-94.364 153.04.57 96.1 81.28 223.72 152.63 223.72 14.41 0 28.81-8.09 38.9-14.28 5.64-3.46 22.08-5.37 30.96 0 10.13 6.13 24.1 14.28 38.9 14.28 20.819 0 45.675-15.7 69.222-40.158-72.15 12.889-190.666-58.866-235.278-139.79z" fill="#e01b33"/><g fill="#151515"><path d="m201.624 507c15.269 0 29.819-7.666 42.038-15.165 4.034-2.475 18.018-4.029 24.71.02 9.363 5.665 25.034 15.145 42.006 15.145 15.608 0 33.856-7.935 52.768-22.948 17.381-13.8 34.969-33.159 50.863-55.995 34.44-49.481 55-105.848 55-150.78 0-58.368-24.195-123.834-77.622-150.715a89.574 89.574 0 0 0 16.537-27.332l5.06-13.19a10.757 10.757 0 0 0 -.647-9.087 11.032 11.032 0 0 0 -7.237-5.405l-14.127-3.167c-19.1-4.284-37.858-3.8-54.238 1.388a80.034 80.034 0 0 0 -15.835 6.956c9.4-19.554 16.133-37.254 15.519-50.861-.519-11.699-9.803-20.864-21.119-20.864a21.124 21.124 0 0 0 -21.133 21.024c-.33 18.1-15.045 47.122-29.276 75.19-4.233 8.35-8.4 16.567-12.194 24.486a117.547 117.547 0 0 0 -86.532-102.451l-17.7-4.756a12.25 12.25 0 0 0 -9.217 1.176c-.131.072-.259.151-.386.233-.157.1-.321.181-.474.285a12.269 12.269 0 0 0 -5.306 8.733l-2.136 18.2c-2.489 21.21 2.672 49.192 12.718 70.834-.63.157-1.261.319-1.893.492-32.174 8.818-58.8 32.811-77 69.386-16.255 32.668-21.908 67.64-21.779 89.48.28 47.215 19.261 103.732 50.775 151.183 33.133 49.891 72.447 78.505 107.857 78.505zm186.723-426.91 12.953 2.9-4.58 11.938a77.7 77.7 0 0 1 -17.005 26.561q-4.615-1.7-9.485-3.044c-41.854-11.472-68.924 15.232-87.382 36.063 5.178-13.97 13.866-30.712 22.47-47.187 16.838-24.993 47.64-35.165 83.029-27.231zm-140.084 92.641 1.1-5.845c3.884-16.173 15.208-38.509 26.229-60.245 14.843-29.275 30.191-59.547 30.571-80.4a9.211 9.211 0 0 1 9.137-9.241c4.969 0 8.9 4.043 9.139 9.4.761 16.941-14.416 46-29.092 74.1l-2.528 4.844c-13.231 25.383-25.206 49.194-26.6 66.544a22.519 22.519 0 0 1 -12.764 2.715 20.211 20.211 0 0 1 -5.287-1.092c.032-.261.062-.52.095-.78zm-105.4-124.21 1.227-10.459 38.453 53.932a6 6 0 0 0 9.771-6.967l-37.327-52.356 8.064 2.167a105.576 105.576 0 0 1 77.48 114.062l-2.657 14.141c-7.461-9.9-17.588-22.127-30.847-31.771-16.1-11.71-33.211-16.846-51.027-15.365-10.143-20.069-15.507-47.17-13.135-67.384zm-67.35 144.661c11.6-23.312 33.063-53.192 69.431-63.16 19.535-5.354 37.534-1.772 55.025 10.95 14.915 10.848 25.878 25.864 33.132 35.8l.258.353a20.365 20.365 0 0 0 5.066 4.813c.116.084.235.164.356.24a29.283 29.283 0 0 0 13.78 4.386 33.39 33.39 0 0 0 23.231-6.725c.081-.063.159-.13.236-.2a26.513 26.513 0 0 0 2.034-1.835c3.021-3.051 6.242-6.741 9.652-10.647 17.5-20.052 41.479-47.515 79.344-37.138a105.546 105.546 0 0 1 11.742 3.981l.095.037c61.3 24.883 78.115 100.35 78.115 143.243 0 42.575-19.757 96.379-52.85 143.925-31.2 44.831-68.014 73.8-93.782 73.8-13.624 0-27.5-8.4-35.794-13.413-4.943-2.99-11.552-4.2-17.989-4.2-7.7 0-15.155 1.733-19.209 4.22-10.786 6.618-23.479 13.388-35.762 13.388-30.859 0-67.442-27.343-97.86-73.144-30.273-45.582-48.506-99.643-48.772-144.615-.121-20.458 5.208-53.284 20.521-84.059z"/><path d="m104.146 305.063a6 6 0 0 0 4.792-7c-6.62-35.305-1.835-60.061 3.344-74.612 5.539-15.561 12.7-23.087 12.879-23.276a6 6 0 0 0 -8.518-8.452c-1.37 1.374-33.384 34.5-19.5 108.552a5.993 5.993 0 0 0 7 4.791z"/><path d="m108.625 333.8a6.068 6.068 0 0 0 1.282-.139 6 6 0 0 0 4.586-7.139l-2.648-12.166a6 6 0 1 0 -11.726 2.553l2.649 12.166a6 6 0 0 0 5.857 4.725z"/></g></svg>