<?xml version="1.0" encoding="iso-8859-1"?>
<!-- Generator: Adobe Illustrator 19.0.0, SVG Export Plug-In . SVG Version: 6.00 Build 0)  -->
<svg version="1.1" id="Capa_1" xmlns="http://www.w3.org/2000/svg" xmlns:xlink="http://www.w3.org/1999/xlink" x="0px" y="0px"
	 viewBox="0 0 511.999 511.999" style="enable-background:new 0 0 511.999 511.999;" xml:space="preserve">
<path style="fill:#AFD755;" d="M381.734,427.057c-33.755,15.86-77.676-7.456-85.077-23.208s2.685-64.445,36.439-80.305
	c41.369-19.438,101.03-7.105,123.312-1.371c4.742,1.22,7.179,6.407,5.092,10.836C451.691,353.821,423.103,407.62,381.734,427.057z"
	/>
<path style="fill:#BEE86E;" d="M456.409,322.172c-22.283-5.734-81.944-18.067-123.313,1.371
	c-33.754,15.861-43.84,64.554-36.439,80.306c0.151,0.321,0.408,0.661,0.589,0.988c27.865-16.856,103.441-60.355,164.957-75.434
	C462.08,326.105,459.886,323.067,456.409,322.172z"/>
<path style="fill:#AFD755;" d="M285.033,75.03c6.343,24.184-14.379,50.297-25.665,53.257c-11.286,2.96-42.157-9.622-48.5-33.806
	c-7.264-27.698,5.707-62.546,12.738-78.41c2.048-4.62,7.794-6.128,11.846-3.107C249.364,23.336,277.769,47.332,285.033,75.03z"/>
<path style="fill:#BEE86E;" d="M259.538,128.224c11.321-3.166,31.808-29.126,25.496-53.195
	c-7.265-27.698-35.669-51.694-49.581-62.065c-2.296-1.712-5.079-1.835-7.482-0.896C233.892,28.55,247.088,68.54,259.538,128.224z"/>
<path style="fill:#AFD755;" d="M187.843,255.242c38.671,11.449,57.395,61.858,52.052,79.904s-48.492,50.136-87.163,38.687
	c-47.877-14.175-87.531-67.962-101.027-88.151c-2.721-4.071-1.095-9.565,3.404-11.498
	C77.422,264.596,139.966,241.067,187.843,255.242z"/>
<path style="fill:#BEE86E;" d="M187.843,255.242c-47.877-14.175-110.421,9.354-132.733,18.941c-3.799,1.632-5.367,5.771-4.181,9.481
	c37.398,3.096,144.433,15.097,188.262,53.217c0.234-0.579,0.541-1.182,0.705-1.735C245.238,317.099,226.514,266.691,187.843,255.242
	z"/>
<path style="fill:#AFD755;" d="M220.252,148.534c21.144,13.344,23.825,46.572,17.598,56.439s-37.376,21.745-58.519,8.401
	c-24.215-15.283-38.523-49.603-44.214-65.996c-1.657-4.774,1.513-9.798,6.536-10.357
	C158.899,135.105,196.036,133.252,220.252,148.534z"/>
<path style="fill:#BEE86E;" d="M220.252,148.534c-24.215-15.283-61.353-13.429-78.599-11.512c-3.692,0.41-6.344,3.248-6.852,6.612
	c20.167,8.725,69.251,31.761,102.58,61.943c0.146-0.201,0.342-0.404,0.468-0.603C244.077,195.106,241.395,161.878,220.252,148.534z"
	/>
<path style="fill:#AFD755;" d="M361.163,244.278c-22.629,10.633-52.073-4.999-57.035-15.559c-4.962-10.56,1.8-43.203,24.428-53.836
	c25.916-12.177,62.541-5.755,79.419-1.725c4.916,1.174,7.442,6.551,5.208,11.084C405.513,199.808,387.079,232.101,361.163,244.278z"
	/>
<path style="fill:#BEE86E;" d="M407.975,173.159c-16.878-4.031-53.503-10.453-79.419,1.724
	c-22.629,10.633-29.39,43.276-24.429,53.836c0.49,1.043,1.28,2.142,2.218,3.253c23.767-24.576,81.911-42.636,107.283-49.615
	C414.481,178.32,412.225,174.174,407.975,173.159z"/>
<path d="M472.03,321.446c-0.891-1.895-2.531-3.331-4.527-3.962c-3.397-1.074-83.805-26.004-137.597-0.729
	c-32.84,15.431-46.25,59.071-42.319,82.494c-8.643,6.064-16.033,11.704-21.997,16.488c2.727-13.311,5.327-27.859,7.591-43.516
	c4.159-28.756,6.632-57.627,7.433-86.323c0.678-3.231,5.766-24.691,24.391-44.734c4.846,4.076,11.296,7.749,18.471,10.337
	c7.089,2.557,14.163,3.833,20.917,3.833c7.132,0,13.906-1.424,19.959-4.268c36.928-17.352,58.827-70.377,59.742-72.626
	c0.788-1.939,0.729-4.119-0.16-6.014c-0.891-1.895-2.531-3.331-4.527-3.962c-2.314-0.731-57.115-17.719-94.04-0.369
	c-25.058,11.775-33.347,44.787-29.189,60.513c-6.366,6.454-11.444,13.093-15.483,19.432c-0.151-6.245-0.379-12.477-0.693-18.69
	c-1.663-32.894-5.63-65.34-11.843-97.063c14.149-9.244,30.593-34.515,24.13-59.16c-10.351-39.465-58.515-70.638-60.56-71.946
	c-1.765-1.127-3.923-1.467-5.942-0.936c-2.025,0.531-3.736,1.884-4.719,3.732c-1.141,2.143-27.805,52.941-17.454,92.406
	c6.456,24.614,33.128,38.559,49.997,39.701c5.684,29.243,9.405,59.121,11.141,89.401c-5.81-8.186-11.987-15.464-18.211-21.892
	c4.845-15.98,0.027-47.321-22.285-61.403l0,0c-34.504-21.776-90.979-11.68-93.366-11.24c-2.059,0.38-3.865,1.603-4.982,3.373
	c-1.117,1.771-1.443,3.927-0.9,5.948c0.63,2.345,15.818,57.668,50.321,79.443c8.105,5.116,17.271,7.167,26.255,7.167
	c13.944-0.001,27.433-4.949,35.796-11.056c10.334,10.934,20.427,24.392,28.471,40.654c0.39,30.564-1.209,61.457-4.762,92.306
	c-3.652-5.307-8.066-10.328-13.226-15.058c3.685-24.172-17.93-73.849-57.89-85.68c-25.973-7.69-58.59-6.091-96.948,4.751
	c-28.194,7.969-48.721,18.009-49.581,18.433c-1.878,0.925-3.284,2.592-3.878,4.599c-0.595,2.007-0.322,4.171,0.749,5.97
	c0.491,0.823,12.243,20.42,31.555,42.455c26.272,29.978,52.764,49.076,78.735,56.766c6.546,1.938,12.991,2.733,19.168,2.732
	c17.963-0.001,33.62-6.728,42.62-11.616c12.056-6.548,22.457-15.3,28.826-23.861c7.708,7.947,13.479,17.239,16.177,28.083
	c-3.254,21.162-7.233,40.74-11.333,57.988c-0.026,0.107-0.053,0.213-0.075,0.32c-7.61,31.949-15.62,55.865-20.155,66.994
	c-1.566,3.835,0.273,8.213,4.108,9.779c0.928,0.379,1.888,0.559,2.832,0.559c2.957,0,5.76-1.76,6.946-4.667
	c0.601-1.471,10.493-25.982,20.455-67.285c4.161-3.776,16.029-14.182,33.79-26.794c11.1,13.298,36.949,26.519,63.023,26.519
	c9.52,0,19.071-1.764,27.938-5.93c53.792-25.275,85.925-103.085,87.267-106.385C472.979,325.521,472.92,323.341,472.03,321.446z
	 M331.745,181.672c10.091-4.741,22.162-6.358,33.94-6.358c16.17,0,31.783,3.049,40.937,5.247
	c-7.174,14.605-24.705,45.68-48.649,56.93c-11.009,5.172-23.149,2.158-29.408-0.1c-5.167-1.864-9.389-4.279-12.436-6.544
	c2.72-2.176,5.622-4.293,8.756-6.309c3.483-2.241,4.49-6.882,2.249-10.365c-2.241-3.484-6.883-4.489-10.366-2.249
	c-2.27,1.46-4.435,2.963-6.512,4.497C311.459,205.165,317.988,188.136,331.745,181.672z M205.233,358.959
	c-10.055,5.461-29.968,13.724-50.371,7.682c-45.536-13.481-84.211-66.163-97.098-85.422c21.284-9.148,82.347-32.287,127.95-18.785
	c20.4,6.04,32.608,23.811,38.069,33.866c5.084,9.361,7.98,18.604,9.041,25.839c-3.093-2.022-6.356-3.974-9.79-5.856
	c-18.939-10.376-42.649-18.444-70.472-23.979c-4.063-0.809-8.012,1.83-8.818,5.893c-0.809,4.063,1.83,8.011,5.893,8.819
	c22.891,4.554,56.342,13.785,80.231,31.424C225.5,344.704,216.813,352.67,205.233,358.959z M218.123,92.578
	c-6.712-25.589,5.904-58.965,12.515-73.832c13.059,9.709,40.43,32.597,47.141,58.186c3.884,14.809-5.158,30.861-13.067,38.944
	c-4.307-19.387-9.444-38.487-15.442-57.222c-1.264-3.945-5.487-6.12-9.429-4.856c-3.945,1.263-6.119,5.485-4.856,9.43
	c6.006,18.763,11.133,37.904,15.405,57.341C239.558,117.988,222.223,108.212,218.123,92.578z M183.333,207.032
	c-22.372-14.119-35.935-47.122-41.252-62.499c16.171-1.818,51.796-3.776,74.168,10.343c12.522,7.903,17.006,24.918,17.048,36.255
	c-22.426-19.231-42.342-27.654-43.752-28.236c-3.828-1.581-8.214,0.241-9.795,4.069c-1.582,3.828,0.24,8.214,4.068,9.795
	c0.331,0.137,20.555,8.689,42.639,28.443C216.939,210.818,197.213,215.792,183.333,207.032z M378.545,420.269
	c-6.817,3.204-14.188,4.533-21.568,4.533c-21.166-0.001-42.371-10.945-50.629-20.028c26.122-17.249,61.393-36.56,101.879-48.387
	c3.976-1.162,6.257-5.326,5.096-9.302s-5.326-6.257-9.303-5.096c-40.499,11.831-75.598,30.497-102.192,47.672
	c0.427-18.09,11.01-48.311,34.458-59.329c15.574-7.318,34.143-9.806,52.201-9.806c27.361,0,53.552,5.716,66.351,9.004
	C445.492,349.366,417.78,401.834,378.545,420.269z"/>
<path d="M119.956,287.344c-5.366-0.56-8.524-0.747-8.656-0.755c-4.133-0.244-7.681,2.913-7.924,7.047
	c-0.242,4.134,2.912,7.683,7.046,7.927c0.029,0.001,2.988,0.179,7.978,0.699c0.265,0.028,0.527,0.041,0.787,0.041
	c3.793,0,7.049-2.867,7.451-6.723C127.067,291.462,124.075,287.774,119.956,287.344z"/>
<path d="M348.986,212.342c0.79,0,1.595-0.126,2.386-0.391c2.677-0.898,5.454-1.732,8.255-2.48c4.002-1.068,6.38-5.179,5.312-9.181
	s-5.178-6.381-9.181-5.312c-3.103,0.828-6.183,1.753-9.155,2.75c-3.927,1.317-6.043,5.568-4.726,9.496
	C342.929,210.361,345.852,212.342,348.986,212.342z"/>
<g>
</g>
<g>
</g>
<g>
</g>
<g>
</g>
<g>
</g>
<g>
</g>
<g>
</g>
<g>
</g>
<g>
</g>
<g>
</g>
<g>
</g>
<g>
</g>
<g>
</g>
<g>
</g>
<g>
</g>
</svg>
