<svg id="Capa_1" enable-background="new 0 0 507.373 507.373" height="512" viewBox="0 0 507.373 507.373" width="512" xmlns="http://www.w3.org/2000/svg"><g><g><path d="m404.582 407.47c27.438 0 49.76-22.322 49.76-49.76v-157.166c0-27.438-22.322-49.76-49.76-49.76h-132.335v32h132.335c9.793 0 17.76 7.967 17.76 17.76v157.167c0 9.793-7.967 17.76-17.76 17.76h-121.629v30.613z" fill="#efedef"/><g><g><path d="m345.514 125.788-4.8-52.63-235.47 3.13-17.66 123.12 73.344 79.719h150.9l38.886-89.119z" fill="#ffface"/></g></g><path d="m347.158 146.085-1.643-20.297-4.8-52.63-235.47 3.13-17.66 123.12 23.843 25.916c18.463-5.345 32.005-22.393 32.005-42.555v-41.047c6.384 1.656 12.967 2.491 19.679 2.491 2.182 0 4.362-.091 6.532-.271v86.529c0 21.979 16.986 39.8 38.671 40.571.481.018.965.025 1.442.025 22.12 0 40.115-17.995 40.115-40.114v-83.025c12.757-1.088 24.707-5.974 34.441-13.813 12.872 9.087 28.41 14.177 44.455 14.177 6.284 0 12.444-.758 18.39-2.207z" fill="#fef6ad"/><path d="m370.654 436.088c2.78 34.36-24.35 63.78-58.83 63.78h-184.86c-34.47 0-61.61-29.42-58.82-63.78l18.81-232.28.63-4.4c17.3-3.86 34.1-7.58 34.1-7.58 22.43-5.84 45.93-5.39 67.96 1.14l40.23 16.35c36.19 12.74 76.45 8.46 109.31-12.09l11.53-7.22z" fill="#fef056"/><g><path d="m208.315 271.043c.481.018.965.025 1.442.025 22.12 0 40.115-17.995 40.115-40.114v-16.392c-6.754-1.195-13.443-2.936-19.998-5.244l-40.23-16.35c-6.558-1.944-13.248-3.336-20-4.197v41.7c0 21.98 16.986 39.8 38.671 40.572z" fill="#fee903"/></g><g><g><path d="m99.128 227.074c22.597 0 41.283-17.009 43.962-38.894-7.189.599-14.35 1.811-21.406 3.648 0 0-16.8 3.72-34.1 7.58l-.63 4.4-1.703 21.028c4.369 1.445 9.031 2.238 13.877 2.238z" fill="#fee903"/></g><path d="m330.893 14.348c-26.07-.948-48.396 15.629-56.169 38.871-7.844-7.583-18.519-12.258-30.292-12.258-9.483 0-18.251 3.037-25.406 8.178-7.19-24.08-29.496-41.64-55.914-41.64-29.801 0-54.367 22.344-57.902 51.189-5.616-2.468-11.952-3.602-18.614-2.961-18.076 1.739-32.418 16.642-33.496 34.77-.952 16.01 8.226 29.989 21.723 36.147v56.125c0 13.423 10.882 24.305 24.305 24.305 13.423 0 24.305-10.882 24.305-24.305v-53.053c0-8.334 8.573-13.777 16.201-10.42 7.184 3.162 15.126 4.917 23.478 4.917 4.481 0 8.843-.505 13.033-1.462 6.916-1.579 13.499 3.689 13.499 10.783v96.938c0 10.907 8.481 20.196 19.381 20.583 11.443.407 20.848-8.749 20.848-20.101v-91.848c0-6.361 5.352-11.452 11.7-11.038.945.062 1.899.093 2.86.093 16.65 0 31.115-9.336 38.459-23.055 10.378 14.062 27.06 23.186 45.878 23.186 31.771 0 57.47-25.997 56.984-57.879-.46-30.129-24.749-54.97-54.861-56.065z" fill="#f9f7f8"/><g fill="#fee903"><path d="m209.758 363.894c-11.109 0-20.114-9.006-20.114-20.114v-25.667c0-11.109 9.006-20.114 20.114-20.114 11.109 0 20.114 9.006 20.114 20.114v25.667c0 11.108-9.005 20.114-20.114 20.114z"/><circle cx="141.908" cy="268.75" r="19.021"/><circle cx="133.085" cy="417.41" r="27.843"/><circle cx="296.866" cy="317.033" r="13.913"/><circle cx="276.382" cy="424.562" r="18.479"/></g></g></g><g><path d="m454.341 226.338c4.143 0 7.5-3.357 7.5-7.5v-18.294c0-31.573-25.687-57.26-57.26-57.26h-50.125l-1.002-12.367c7.875-3.26 15.093-8.099 21.264-14.364 12.218-12.404 18.8-28.831 18.534-46.255-.159-10.4-2.902-20.733-7.933-29.882-1.996-3.629-6.555-4.953-10.187-2.959-3.629 1.996-4.953 6.557-2.958 10.187 3.855 7.01 5.957 14.923 6.079 22.883.203 13.374-4.848 25.981-14.223 35.501-9.378 9.521-21.9 14.765-35.263 14.765-15.642 0-30.536-7.529-39.844-20.141-1.527-2.069-4.011-3.205-6.574-3.026-2.566.186-4.857 1.673-6.072 3.94-6.306 11.778-18.509 19.095-31.847 19.095-.79 0-1.589-.025-2.372-.077-5.048-.328-10.095 1.475-13.807 4.953-3.737 3.501-5.881 8.447-5.881 13.569v91.849c0 3.454-1.369 6.679-3.856 9.078-2.484 2.398-5.753 3.659-9.226 3.527-6.697-.238-12.146-6.109-12.146-13.088v-96.938c0-5.682-2.547-10.973-6.989-14.515-4.436-3.537-10.149-4.844-15.68-3.58-3.703.846-7.526 1.274-11.363 1.274-7.118 0-14.001-1.44-20.457-4.283-5.952-2.618-12.745-2.072-18.164 1.465-5.358 3.496-8.558 9.41-8.558 15.82v53.054c0 9.267-7.538 16.806-16.805 16.806s-16.805-7.539-16.805-16.806v-56.125c0-2.938-1.715-5.604-4.387-6.823-11.277-5.146-18.088-16.481-17.351-28.879.859-14.436 12.349-26.364 26.727-27.747 5.175-.501 10.182.296 14.878 2.361 2.173.954 4.666.826 6.728-.348 2.062-1.173 3.447-3.252 3.735-5.606 3.119-25.427 24.811-44.602 50.461-44.602 22.311 0 42.349 14.921 48.728 36.285.694 2.324 2.47 4.17 4.766 4.953 2.295.784 4.829.406 6.798-1.008 6.162-4.429 13.434-6.77 21.029-6.77 9.402 0 18.309 3.604 25.079 10.15 1.853 1.79 4.495 2.505 6.994 1.893 2.502-.611 4.515-2.464 5.331-4.906 6.912-20.666 26.988-34.542 48.783-33.755 7.709.281 15.066 2.327 21.867 6.082 3.625 2.001 8.188.686 10.19-2.94s.686-8.188-2.94-10.19c-8.878-4.902-18.491-7.574-28.571-7.941-24.924-.908-48.088 12.899-59.484 34.477-8.092-5.122-17.48-7.868-27.249-7.868-7.535 0-14.847 1.628-21.551 4.759-10.649-22.897-34.043-38.221-59.77-38.221-30.198 0-56.162 20.531-63.665 49.013-4.434-.928-9.016-1.185-13.569-.75-21.661 2.083-38.971 20.048-40.264 41.788-1.01 16.969 7.393 32.616 21.71 41.122v51.596c0 9.969 4.613 18.876 11.812 24.712l-12.863 158.778c-.334 4.129 2.741 7.746 6.87 8.081.206.017.41.024.614.024 3.867 0 7.149-2.972 7.467-6.895l12.426-153.377c1.781.311 3.61.482 5.479.482 11.904 0 22.295-6.578 27.746-16.286 18.206-4.188 37.137-4.029 55.269.439v31.744c0 15.216 11.69 27.549 26.614 28.078.34.013.678.019 1.017.019 7.191-.001 13.962-2.729 19.158-7.742 5.442-5.253 8.439-12.31 8.439-19.872v-11.502c11.461 3.075 23.13 4.628 34.753 4.628 24.794 0 49.349-6.931 71.036-20.497l1.075-.673 18.939 233.783c1.175 14.508-3.612 28.39-13.479 39.089s-23.316 16.591-37.871 16.591h-184.858c-14.555 0-28.004-5.893-37.872-16.591-9.867-10.699-14.654-24.581-13.479-39.089l3.027-37.364c.334-4.128-2.741-7.746-6.87-8.081-4.122-.328-7.746 2.741-8.081 6.87l-3.027 37.364c-1.495 18.46 4.849 36.854 17.404 50.469s30.379 21.422 48.898 21.422h184.858c18.52 0 36.342-7.808 48.897-21.421 12.556-13.614 18.899-32.01 17.404-50.47l-1.662-20.512h28.116c31.573 0 57.26-25.687 57.26-57.26v-106.91c0-4.143-3.357-7.5-7.5-7.5s-7.5 3.357-7.5 7.5v106.911c0 23.302-18.958 42.26-42.26 42.26h-29.33l-1.377-17h30.708c13.929 0 25.26-11.331 25.26-25.26v-157.167c0-13.929-11.331-25.26-25.26-25.26h-47.533l-1.377-17h48.91c23.302 0 42.26 18.958 42.26 42.26v18.294c0 4.142 3.358 7.5 7.5 7.5zm-323.408-44.152v-52.471c0-1.839 1.099-2.831 1.754-3.259.558-.363 2.056-1.12 3.926-.297 8.371 3.686 17.287 5.554 26.499 5.554 4.959 0 9.906-.556 14.702-1.65 1.437-.33 2.491.286 2.988.684.501.399 1.342 1.293 1.342 2.787v49.804c-16.848-3.662-34.234-4.062-51.211-1.152zm204.273 8.68c-29.44 18.416-64.812 23.05-97.834 13.007v-64.767c0-1.356.712-2.226 1.136-2.623.41-.384 1.295-1.011 2.576-.931 1.107.072 2.233.108 3.348.108 15.333 0 29.604-6.827 39.203-18.317 11.967 11.69 28.215 18.449 45.134 18.449 3.372 0 6.701-.263 9.969-.766l4.135 51.044zm69.375-.582c5.657 0 10.26 4.603 10.26 10.26v157.167c0 5.657-4.603 10.26-10.26 10.26h-31.923l-14.395-177.687z"/><path d="m304.328 150.284h-7.462c-4.143 0-7.5 3.357-7.5 7.5s3.357 7.5 7.5 7.5h7.462c4.143 0 7.5-3.357 7.5-7.5s-3.358-7.5-7.5-7.5z"/><path d="m270.176 168.65h-4.018c-4.143 0-7.5 3.357-7.5 7.5s3.357 7.5 7.5 7.5h4.018c4.143 0 7.5-3.357 7.5-7.5s-3.357-7.5-7.5-7.5z"/><path d="m157.104 145.405h-4.305c-4.143 0-7.5 3.357-7.5 7.5s3.357 7.5 7.5 7.5h4.305c4.143 0 7.5-3.357 7.5-7.5s-3.358-7.5-7.5-7.5z"/><path d="m237.372 343.779v-25.667c0-15.227-12.388-27.614-27.614-27.614s-27.614 12.388-27.614 27.614v25.667c0 15.227 12.388 27.614 27.614 27.614s27.614-12.387 27.614-27.614zm-40.228 0v-25.667c0-6.955 5.659-12.614 12.614-12.614s12.614 5.659 12.614 12.614v25.667c0 6.955-5.659 12.614-12.614 12.614s-12.614-5.659-12.614-12.614z"/><path d="m168.428 268.75c0-14.623-11.897-26.521-26.521-26.521s-26.521 11.897-26.521 26.521 11.897 26.521 26.521 26.521 26.521-11.898 26.521-26.521zm-38.041 0c0-6.353 5.168-11.521 11.521-11.521s11.521 5.168 11.521 11.521-5.168 11.521-11.521 11.521-11.521-5.168-11.521-11.521z"/><path d="m97.741 417.41c0 19.488 15.855 35.343 35.344 35.343s35.344-15.854 35.344-35.343-15.855-35.344-35.344-35.344-35.344 15.856-35.344 35.344zm35.343-20.344c11.218 0 20.344 9.126 20.344 20.344 0 11.217-9.126 20.343-20.344 20.343s-20.344-9.126-20.344-20.343c.001-11.218 9.127-20.344 20.344-20.344z"/><path d="m296.866 338.445c11.808 0 21.413-9.605 21.413-21.412 0-11.808-9.605-21.413-21.413-21.413-11.807 0-21.412 9.605-21.412 21.413-.001 11.807 9.605 21.412 21.412 21.412zm0-27.825c3.536 0 6.413 2.877 6.413 6.413s-2.877 6.412-6.413 6.412-6.412-2.876-6.412-6.412 2.875-6.413 6.412-6.413z"/><path d="m250.403 424.563c0 14.324 11.654 25.979 25.979 25.979 14.324 0 25.979-11.654 25.979-25.979s-11.654-25.979-25.979-25.979-25.979 11.654-25.979 25.979zm25.979-10.979c6.054 0 10.979 4.925 10.979 10.979s-4.925 10.979-10.979 10.979-10.979-4.925-10.979-10.979 4.925-10.979 10.979-10.979z"/></g></g></svg>