<svg id="Capa_1" enable-background="new 0 0 512 512" height="512" viewBox="0 0 512 512" width="512" xmlns="http://www.w3.org/2000/svg"><g><g><path d="m1 442v25c0 24.813 20.187 45 45 45h90c24.813 0 45-20.187 45-45v-25l-20-50 20-50v-14.896c0-23.411-10.036-45.76-27.534-61.314-11.1-9.866-17.466-24.042-17.466-38.893v-59.897h-90v59.896c0 14.851-6.366 29.026-17.466 38.893-17.498 15.555-27.534 37.903-27.534 61.314v14.897l20 44z" fill="#ffb454"/><path d="m181 327.103c0-23.411-10.036-45.76-27.534-61.314-11.1-9.866-17.466-24.042-17.466-38.893v-59.896h-45v345h45c24.813 0 45-20.187 45-45v-25l-20-50 20-50z" fill="#ec8600"/><path d="m121 112h-60c-8.284 0-15 6.716-15 15v40h90v-40c0-8.284-6.716-15-15-15z" fill="#0a789b"/><path d="m136 127c0-8.284-6.716-15-15-15h-30v55h45z" fill="#08475e"/><path d="m181 442h-180v-100h180z" fill="#ff6378"/><path d="m91 342h90v100h-90z" fill="#c63d4f"/><path d="m141 182h-100c-8.284 0-15-6.716-15-15s6.716-15 15-15h100c8.284 0 15 6.716 15 15s-6.716 15-15 15z" fill="#ffdd54"/><path d="m141 152h-50v30h50c8.284 0 15-6.716 15-15s-6.716-15-15-15z" fill="#ffb454"/></g><g><path d="m331 442v25c0 24.813 20.187 45 45 45h90c24.813 0 45-20.187 45-45v-25l-20-50 20-50v-14.896c0-23.411-10.036-45.76-27.534-61.314-11.1-9.866-17.466-24.042-17.466-38.893v-59.897h-90v59.896c0 14.851-6.366 29.026-17.466 38.893-17.498 15.555-27.534 37.903-27.534 61.314v14.897l20 44z" fill="#985e33"/><path d="m511 327.103c0-23.411-10.036-45.76-27.534-61.314-11.1-9.866-17.466-24.042-17.466-38.893v-59.896h-45v345h45c24.813 0 45-20.187 45-45v-25l-20-50 20-50z" fill="#814f2b"/><path d="m451 112h-60c-8.284 0-15 6.716-15 15v40h90v-40c0-8.284-6.716-15-15-15z" fill="#0a789b"/><path d="m466 127c0-8.284-6.716-15-15-15h-30v55h45z" fill="#08475e"/><path d="m511 442h-180v-100h180z" fill="#ffdd54"/><path d="m421 342h90v100h-90z" fill="#ffb454"/><path d="m471 182h-100c-8.284 0-15-6.716-15-15s6.716-15 15-15h100c8.284 0 15 6.716 15 15s-6.716 15-15 15z" fill="#c17d4f"/><path d="m471 152h-50v30h50c8.284 0 15-6.716 15-15s-6.716-15-15-15z" fill="#985e33"/></g><g><path d="m151 432v35c0 24.813 20.187 45 45 45h120c24.813 0 45-20.187 45-45v-35l-30-75 30-75v-42.984c0-24.928-11.164-48.156-30.629-63.729-12.311-9.848-19.371-24.538-19.371-40.303v-69.984h-110v69.984c0 15.765-7.06 30.455-19.37 40.302-19.466 15.573-30.63 38.801-30.63 63.73v42.984l30 75z" fill="#59b154"/></g><path d="m330.371 175.287c-12.311-9.848-19.371-24.538-19.371-40.303v-69.984h-55v447h60c24.813 0 45-20.187 45-45v-35l-30-75 30-75v-42.984c0-24.928-11.164-48.157-30.629-63.729z" fill="#00864f"/><path d="m296 0h-80c-8.284 0-15 6.716-15 15v50h110v-50c0-8.284-6.716-15-15-15z" fill="#d5e7f6"/><path d="m296 0h-40v65h55v-50c0-8.284-6.716-15-15-15z" fill="#b1d5f1"/><path d="m316 80h-120c-8.284 0-15-6.716-15-15s6.716-15 15-15h120c8.284 0 15 6.716 15 15s-6.716 15-15 15z" fill="#9bda05"/><path d="m316 50h-60v30h60c8.284 0 15-6.716 15-15s-6.716-15-15-15z" fill="#59b154"/><path d="m361 432h-210v-150h210z" fill="#e7f1f9"/><path d="m256 282h105v150h-105z" fill="#d5e7f6"/></g></svg>