<svg id="Capa_1" enable-background="new 0 0 512.001 512.001" height="512" viewBox="0 0 512.001 512.001" width="512" xmlns="http://www.w3.org/2000/svg"><g><g><g><g fill="#bc95e2"><path d="m174.141 174.135c10.465-10.465 5.106-47.613 5.106-47.613s-2.257-135.241-57.368-117.407c-27.897 9.028-22.359 36.413-12.576 58.112-18.118-8.622-34.453-9.653-43.088-1.018s-7.603 24.97 1.018 43.088c-21.698-9.783-49.083-15.322-58.111 12.576-17.835 55.111 117.406 57.368 117.406 57.368s37.148 5.359 47.613-5.106z"/><path d="m337.862 337.855c10.465-10.465 47.613-5.106 47.613-5.106s135.241 2.257 117.406 57.367c-9.028 27.897-36.413 22.359-58.112 12.576 8.622 18.118 9.653 34.453 1.018 43.088s-24.97 7.603-43.088-1.018c9.783 21.699 15.322 49.084-12.576 58.112-55.111 17.835-57.368-117.406-57.368-117.406s-5.359-37.148 5.107-47.613z"/></g><g fill="#ac80dd"><path d="m174.139 174.132c-10.466 10.466-47.612 5.104-47.612 5.104s-135.238-2.251-117.403-57.361c5.828-18 19.283-22.078 33.928-20.079 17.419 31.971 97.798 63.117 97.798 63.117s28.515 13.993 33.289 9.219z"/><path d="m390.121 502.872c-55.11 17.835-57.361-117.403-57.361-117.403s-5.362-37.146 5.104-47.612c-4.774 4.774 9.218 33.29 9.218 33.29s31.146 80.379 63.117 97.798c2 14.644-2.078 28.099-20.078 33.927z"/></g><path d="m414.387 219.632c-38.831-42.517-79.506-83.191-122.023-122.023-35.022-31.986-88.722-32.302-123.98-.576-25.036 22.528-48.818 46.31-71.346 71.346-31.725 35.258-31.409 88.958.576 123.98 38.831 42.517 79.506 83.192 122.023 122.023 35.022 31.986 88.722 32.302 123.98.576 25.036-22.528 48.818-46.31 71.346-71.346 31.726-35.258 31.41-88.959-.576-123.98z" fill="#f9efda"/><path d="m360.962 398.947c-5.713 5.412-11.491 10.745-17.34 16.007-35.261 31.734-88.959 31.412-123.983-.573-42.515-38.831-83.188-79.504-122.019-122.019-31.985-35.024-32.308-88.722-.574-123.983 5.262-5.849 10.595-11.627 16.007-17.34-4.108 29.684 4.674 60.816 26.215 84.407 43.691 47.834 89.454 93.597 137.288 137.288 23.59 21.539 54.722 30.321 84.406 26.213z" fill="#f6e4c1"/><path d="m365.01 167.573c-18.172 5.312-104.758 32.53-200.606 94.916-18.724 12.186-37.806 25.72-56.802 40.702-3.348-3.591-6.674-7.204-9.985-10.831-15.376-16.838-23.433-37.985-24.129-59.339 15.218-11.175 30.394-21.448 45.297-30.874 90.443-57.182 170.879-83.009 190.556-88.837 18.932 17.712 37.49 35.798 55.669 54.263z" fill="#bc95e2"/><path d="m438.321 288.768c-37.763 13.935-98.522 39.956-163.675 82.214-18.946 12.294-38.272 25.957-57.504 41.103-19.046-17.455-37.72-35.268-56.013-53.476 19.125-15.125 38.336-28.788 57.203-41.089 92.421-60.293 176.377-87.891 198.878-94.651 15.749 18.932 22.81 42.681 21.111 65.899z" fill="#bc95e2"/><g fill="#ac80dd"><path d="m139.265 235.443c8.301 9.089 16.681 18.114 25.139 27.046-18.724 12.186-37.806 25.72-56.802 40.702-3.348-3.591-6.674-7.204-9.985-10.831-15.376-16.838-23.433-37.985-24.129-59.339 15.218-11.175 30.394-21.448 45.297-30.874 4.538 11.992 11.362 23.318 20.48 33.296z"/><path d="m274.646 370.982c-18.946 12.294-38.272 25.957-57.504 41.103-19.046-17.455-37.72-35.268-56.013-53.476 19.125-15.125 38.336-28.788 57.203-41.089 18.437 18.151 37.211 35.978 56.314 53.462z"/></g></g><g fill="#ffe07d"><g><path d="m421.723 91.936-1.663-1.663c-5.866-5.866-6.188-15.272-.737-21.526l16.766-19.236c6.006-6.89 16.59-7.253 23.053-.79l4.133 4.133c6.463 6.463 6.1 17.048-.79 23.053l-19.236 16.766c-6.253 5.451-15.66 5.129-21.526-.737z"/><path d="m366.177 64.172-2.272-.609c-8.013-2.147-12.995-10.132-11.402-18.273l4.902-25.042c1.756-8.97 10.741-14.576 19.57-12.211l5.646 1.513c8.829 2.366 13.807 11.714 10.843 20.36l-8.276 24.138c-2.691 7.847-10.998 12.271-19.011 10.124z"/><path d="m448.433 148.091-.609-2.272c-2.147-8.013 2.277-16.32 10.124-19.011l24.138-8.276c8.646-2.964 17.994 2.014 20.36 10.843l1.513 5.646c2.366 8.829-3.241 17.814-12.211 19.57l-25.042 4.902c-8.141 1.594-16.126-3.389-18.273-11.402z"/></g><g><path d="m90.28 420.053 1.663 1.663c5.866 5.866 6.188 15.272.737 21.526l-16.766 19.236c-6.006 6.89-16.59 7.253-23.053.79l-4.133-4.133c-6.463-6.463-6.1-17.048.79-23.053l19.236-16.766c6.253-5.451 15.66-5.129 21.526.737z"/><path d="m145.826 447.817 2.272.609c8.013 2.147 12.995 10.132 11.402 18.273l-4.902 25.042c-1.756 8.97-10.741 14.576-19.57 12.211l-5.646-1.513c-8.829-2.366-13.807-11.714-10.843-20.36l8.276-24.138c2.691-7.847 10.998-12.271 19.011-10.124z"/><path d="m63.57 363.898.609 2.272c2.147 8.013-2.277 16.32-10.124 19.011l-24.138 8.276c-8.646 2.964-17.994-2.014-20.36-10.843l-1.513-5.646c-2.366-8.829 3.241-17.814 12.211-19.57l25.042-4.902c8.141-1.593 16.126 3.389 18.273 11.402z"/></g></g></g><g><path d="m506.825 362.911c-10.053-15.831-34.572-26.954-72.945-33.128 8.021-14.674 12.26-31.241 12.175-48.287-.124-24.831-9.407-48.596-26.137-66.916-38.807-42.483-80.022-83.699-122.503-122.503-18.32-16.73-42.085-26.012-66.916-26.136-17.074-.105-33.631 4.142-48.297 12.17-1.899-11.734-4.297-22.321-7.163-31.572-1.226-3.957-5.426-6.17-9.383-4.944-3.956 1.226-6.17 5.427-4.944 9.383 3.193 10.306 5.772 22.506 7.695 36.283-1.715 1.351-3.405 2.74-5.039 4.211-25.107 22.6-49.295 46.788-71.893 71.893-1.471 1.635-2.861 3.326-4.213 5.043-36.87-5.149-61.452-14.814-69.425-27.368-3.128-4.924-3.64-10.435-1.567-16.846 2.236-6.908 5.757-11.345 10.768-13.566 8.208-3.637 21.047-1.731 37.133 5.516 2.868 1.292 6.239.657 8.44-1.592s2.764-5.632 1.411-8.472c-7.377-15.48-8.334-28.722-2.497-34.558 5.837-5.837 19.078-4.88 34.558 2.497 2.842 1.354 6.225.79 8.472-1.411 2.248-2.201 2.884-5.571 1.592-8.44-7.247-16.086-9.154-28.926-5.515-37.133 2.221-5.01 6.658-8.532 13.562-10.767 6.322-2.041 15.803-3.241 25.149 9.85 2.406 3.371 7.09 4.153 10.461 1.746s4.153-7.09 1.746-10.461c-13.886-19.455-30.486-19.117-41.97-15.408-11.043 3.574-18.667 9.953-22.66 18.959-4.002 9.028-4.096 20.295-.303 33.627-15.056-3.851-27.629-1.735-35.697 6.332-8.067 8.067-10.184 20.642-6.332 35.697-13.332-3.793-24.6-3.699-33.627.303-9.007 3.992-15.385 11.616-18.96 22.661-3.484 10.773-2.415 20.7 3.177 29.505 10.053 15.827 34.572 26.948 72.946 33.123-8.022 14.675-12.262 31.243-12.177 48.291.125 24.831 9.407 48.596 26.137 66.916 38.805 42.481 80.021 83.697 122.503 122.503 9.407 8.592 20.186 15.215 32.038 19.688 3.877 1.463 8.203-.494 9.664-4.369 1.462-3.875-.494-8.202-4.369-9.664-8.341-3.147-16.047-7.571-22.997-13.145 76.587-58.775 154.056-94.188 200.135-112.125-3.12 14.161-9.833 27.353-19.68 38.295-22.249 24.717-46.062 48.53-70.778 70.778-16.539 14.881-37.931 22.554-60.253 21.611-4.156-.194-7.635 3.037-7.81 7.175s3.037 7.635 7.175 7.81c1.447.062 2.887.092 4.327.092 16.89 0 33.225-4.209 47.753-12.167 6.175 38.363 17.297 62.876 33.125 72.928 5.431 3.449 11.287 5.176 17.507 5.176 3.865 0 7.87-.667 11.998-2.003 11.043-3.575 18.667-9.954 22.659-18.961 4.001-9.026 4.095-20.295.302-33.624 15.059 3.85 27.633 1.734 35.698-6.331s10.181-20.639 6.332-35.698c13.329 3.792 24.599 3.699 33.624-.302 9.007-3.992 15.386-11.615 18.962-22.66 3.485-10.774 2.417-20.7-3.174-29.505zm-333.421-260.292c15.654-14.086 35.928-21.772 57.022-21.68 21.107.106 41.306 7.995 56.876 22.213 2.494 2.278 4.969 4.592 7.454 6.888-34.94 11.493-122.403 44.109-212.921 107.766 2.379-16.467 9.541-31.906 20.791-44.408 22.247-24.716 46.06-48.53 70.778-70.779zm-92.176 134.053c100.24-72.771 198.64-106.408 226.114-114.912 14.73 13.852 29.286 27.968 43.608 42.322-38.454 12.466-141.101 50.507-242.502 128.937-1.76-1.91-3.54-3.809-5.289-5.724-12.806-14.024-20.456-31.807-21.931-50.623zm37.455 67.401c106.643-82.184 214.266-118.865 244.119-128.005 13.916 14.195 27.584 28.6 40.986 43.155-41.801 13.643-142.12 51.732-242.051 129.377-14.606-14.625-28.974-29.485-43.054-44.527zm98.879 98.168c-15.216-14.044-30.256-28.388-45.071-42.989 104.341-80.578 211.281-118.014 241.976-127.69 10.652 14.431 16.499 31.88 16.59 50.009.003.638-.023 1.273-.034 1.91-46.121 17.393-130.464 54.568-213.461 118.76zm278.166-14.445c-2.237 6.908-5.759 11.345-10.769 13.566-8.205 3.638-21.044 1.73-37.126-5.515-2.868-1.29-6.238-.656-8.439 1.591s-2.765 5.63-1.413 8.47c7.372 15.484 8.327 28.727 2.493 34.56-5.833 5.834-19.075 4.878-34.56-2.493-2.84-1.351-6.223-.788-8.47 1.413-2.248 2.201-2.883 5.57-1.591 8.439 7.245 16.082 9.152 28.92 5.515 37.126-2.221 5.01-6.658 8.533-13.565 10.769-6.41 2.074-11.92 1.563-16.846-1.564-12.556-7.974-22.223-32.553-27.372-69.419 1.716-1.353 3.409-2.745 5.047-4.219 25.106-22.598 49.294-46.786 71.893-71.893 1.472-1.636 2.863-3.328 4.215-5.046 36.868 5.148 61.448 14.815 69.422 27.372 3.129 4.923 3.641 10.433 1.566 16.843z"/><path d="m416.41 97.249c4.512 4.512 10.485 6.793 16.471 6.793 5.447 0 10.907-1.89 15.284-5.705l19.235-16.765c4.845-4.223 7.75-10.328 7.97-16.751s-2.26-12.713-6.805-17.258l-4.133-4.133c-4.545-4.544-10.829-7.026-17.257-6.805-6.423.22-12.529 3.125-16.751 7.969l-16.765 19.235c-8.009 9.188-7.531 23.137 1.088 31.756zm8.556-23.563 16.765-19.235c1.524-1.748 3.639-2.755 5.958-2.834.099-.003.196-.005.294-.005 2.207 0 4.273.855 5.843 2.425l4.133 4.133c1.64 1.64 2.499 3.82 2.42 6.138-.08 2.318-1.086 4.434-2.834 5.957l-19.235 16.765c-3.268 2.849-8.228 2.678-11.295-.387l-1.663-1.663c-3.065-3.065-3.235-8.026-.386-11.294z"/><path d="m361.957 70.819 2.272.609c1.995.534 4.004.79 5.986.79 9.721 0 18.776-6.149 22.06-15.726l8.275-24.136c2.084-6.079 1.547-12.819-1.474-18.492-3.021-5.672-8.314-9.88-14.521-11.543l-5.646-1.513c-6.207-1.663-12.894-.666-18.347 2.736-5.452 3.402-9.287 8.97-10.522 15.277l-4.902 25.04c-2.342 11.963 5.046 23.804 16.819 26.958zm-2.1-24.075 4.902-25.04c.445-2.276 1.774-4.206 3.742-5.434s4.285-1.573 6.525-.973l5.646 1.513c2.24.6 4.074 2.058 5.165 4.105 1.09 2.047 1.276 4.383.524 6.577l-8.275 24.136c-1.406 4.101-5.786 6.434-9.974 5.312l-2.272-.609c-4.188-1.121-6.816-5.333-5.983-9.587z"/><path d="m440.567 147.767.609 2.272c2.762 10.306 12.179 17.252 22.508 17.252 1.47 0 2.959-.141 4.449-.433l25.04-4.902c6.307-1.235 11.876-5.07 15.278-10.522 3.402-5.453 4.399-12.14 2.736-18.347l-1.513-5.645c-1.663-6.208-5.871-11.5-11.544-14.521-5.671-3.021-12.412-3.557-18.491-1.474l-24.137 8.275c-11.529 3.953-18.089 16.272-14.935 28.045zm19.8-13.856 24.137-8.275c2.194-.752 4.529-.566 6.577.524 2.047 1.09 3.505 2.925 4.105 5.165l1.513 5.645c.601 2.24.255 4.558-.973 6.525-1.228 1.968-3.158 3.297-5.434 3.742l-25.04 4.902c-4.254.836-8.466-1.795-9.588-5.982l-.608-2.272c-1.122-4.187 1.211-8.568 5.311-9.974z"/><path d="m95.593 414.74c-8.618-8.618-22.567-9.096-31.755-1.088l-19.235 16.765c-4.845 4.222-7.75 10.328-7.97 16.75-.22 6.423 2.26 12.714 6.805 17.258l4.133 4.133c4.359 4.359 10.322 6.818 16.469 6.818.262 0 .526-.004.789-.013 6.422-.22 12.528-3.125 16.75-7.97l16.765-19.234c8.009-9.188 7.531-23.137-1.088-31.756zm-8.556 23.563-16.765 19.235c-1.524 1.748-3.639 2.755-5.957 2.834-2.32.067-4.498-.78-6.138-2.42l-4.133-4.133c-1.64-1.64-2.499-3.82-2.42-6.138.08-2.318 1.086-4.433 2.834-5.957l19.235-16.765c1.557-1.357 3.498-2.029 5.436-2.029 2.129 0 4.253.811 5.858 2.416l1.663 1.663c3.066 3.065 3.235 8.026.387 11.294z"/><path d="m150.046 441.17-2.272-.609c-11.775-3.153-24.092 3.407-28.045 14.936l-8.275 24.136c-2.084 6.079-1.547 12.82 1.474 18.492s8.314 9.88 14.522 11.544l5.645 1.513c1.971.528 3.989.788 6.002.788 4.327 0 8.624-1.202 12.345-3.523 5.452-3.402 9.287-8.971 10.522-15.278l4.902-25.04c2.341-11.963-5.047-23.804-16.82-26.959zm2.1 24.075-4.902 25.04c-.446 2.277-1.775 4.206-3.742 5.434-1.967 1.227-4.284 1.574-6.525.973l-5.645-1.513c-2.241-.6-4.075-2.058-5.165-4.105s-1.276-4.383-.524-6.577l8.275-24.136c1.168-3.407 4.388-5.593 7.846-5.593.704 0 1.419.091 2.128.281l2.272.609c4.187 1.122 6.815 5.333 5.982 9.587z"/><path d="m71.435 364.222-.609-2.272c-3.155-11.773-14.993-19.159-26.957-16.819l-25.041 4.902c-6.307 1.235-11.875 5.07-15.277 10.522-3.402 5.452-4.399 12.14-2.736 18.347l1.513 5.646c1.663 6.208 5.871 11.5 11.544 14.522 3.393 1.807 7.168 2.725 10.956 2.725 2.543 0 5.093-.414 7.535-1.251l24.137-8.275c11.529-3.955 18.09-16.274 14.935-28.047zm-19.8 13.857-24.137 8.275c-2.193.752-4.529.566-6.577-.524-2.047-1.09-3.505-2.925-4.105-5.165l-1.513-5.646c-.601-2.24-.255-4.557.973-6.525s3.158-3.297 5.434-3.742l25.041-4.902c.53-.104 1.059-.154 1.582-.154 3.674 0 7.023 2.471 8.006 6.136l.608 2.271c1.122 4.189-1.211 8.57-5.312 9.976z"/></g></g></svg>