<svg id="Guide" height="512" viewBox="0 0 512 512" width="512" xmlns="http://www.w3.org/2000/svg"><path d="m496 134.1c0 14.17-8.65 27.45-23.8 38.92a5 5 0 0 0 -2 3.98v268.91a5.036 5.036 0 0 1 -5.03 5.04h-116.435v-268.9a5.049 5.049 0 0 1 2.01-4c15.15-11.45 23.8-24.74 23.8-38.9 0-36.41-57.15-67-134.51-75.66a381.49 381.49 0 0 1 76.69-7.49c99.01 0 179.275 34.964 179.275 78.1zm-57.68-12.55a7.33 7.33 0 1 0 -7.33 7.36 7.349 7.349 0 0 0 7.325-7.356zm-3.03 288.74a9.535 9.535 0 1 0 -9.53 9.58 9.558 9.558 0 0 0 9.525-9.576zm-31.63-137.7a9.57 9.57 0 1 0 -9.57 9.61 9.585 9.585 0 0 0 9.565-9.606z" fill="#6fe3ff"/><path d="m430.985 114.184a7.365 7.365 0 1 1 -7.33 7.37 7.349 7.349 0 0 1 7.33-7.37z" fill="#f8ec7d"/><path d="m425.755 400.714a9.58 9.58 0 1 1 -9.54 9.58 9.558 9.558 0 0 1 9.54-9.58z" fill="#f8ec7d"/><ellipse cx="394.085" cy="272.594" fill="#f8ec7d" rx="9.57" ry="9.61"/><path d="m374.545 139.154c0 14.16-8.65 27.45-23.8 38.9a5.049 5.049 0 0 0 -2.01 4v268.9a5.03 5.03 0 0 1 -5.02 5.05h-296.88a5.038 5.038 0 0 1 -5.03-5.05v-268.9a5.011 5.011 0 0 0 -2-4c-15.14-11.454-23.805-24.74-23.805-38.9 0-43.14 80.27-78.12 179.28-78.12a403.531 403.531 0 0 1 44.76 2.46c77.36 8.66 134.505 39.25 134.505 75.66zm-64.37-17.6a7.33 7.33 0 1 0 -7.33 7.36 7.349 7.349 0 0 0 7.33-7.36zm-3.03 288.74a9.535 9.535 0 1 0 -9.54 9.58 9.56 9.56 0 0 0 9.54-9.58zm-6.51-137.7a9.57 9.57 0 1 0 -9.57 9.61 9.592 9.592 0 0 0 9.57-9.61zm-78.85-109.72a9.035 9.035 0 1 0 -9.03 9.08 9.048 9.048 0 0 0 9.03-9.08zm-21.585 172.27a8.74 8.74 0 1 0 -8.74 8.78 8.755 8.755 0 0 0 8.74-8.78zm-73.79-93.18a7.525 7.525 0 1 0 -7.53 7.56 7.541 7.541 0 0 0 7.525-7.56zm-19.57 150.12a9.875 9.875 0 1 0 -9.88 9.92 9.9 9.9 0 0 0 9.875-9.92zm-12.42-257.92a7.335 7.335 0 1 0 -7.33 7.37 7.347 7.347 0 0 0 7.325-7.37z" fill="#e48e66"/><path d="m302.845 114.184a7.365 7.365 0 1 1 -7.33 7.37 7.349 7.349 0 0 1 7.33-7.37z" fill="#f8ec7d"/><path d="m297.605 400.714a9.58 9.58 0 1 1 -9.53 9.58 9.56 9.56 0 0 1 9.53-9.58z" fill="#f8ec7d"/><ellipse cx="291.065" cy="272.594" fill="#f8ec7d" rx="9.57" ry="9.61"/><path d="m212.755 153.8a9.075 9.075 0 1 1 -9.04 9.07 9.048 9.048 0 0 1 9.04-9.07z" fill="#f8ec7d"/><path d="m191.455 326.374a8.775 8.775 0 1 1 -8.74 8.77 8.755 8.755 0 0 1 8.74-8.77z" fill="#f8ec7d"/><path d="m118.875 234.4a7.56 7.56 0 1 1 -7.52 7.56 7.541 7.541 0 0 1 7.52-7.56z" fill="#f8ec7d"/><path d="m96.955 382.164a9.92 9.92 0 1 1 -9.87 9.92 9.9 9.9 0 0 1 9.87-9.92z" fill="#f8ec7d"/><path d="m87.085 126.8a7.365 7.365 0 1 1 -7.34 7.36 7.347 7.347 0 0 1 7.34-7.36z" fill="#f8ec7d"/><g fill="#63316d"><path d="m445.885 73.376c-34.597-15.076-80.466-23.376-129.16-23.376a386.3 386.3 0 0 0 -76.973 7.428 410.318 410.318 0 0 0 -44.477-2.4c-48.691 0-94.563 8.3-129.166 23.382-36.185 15.774-56.114 37.345-56.114 60.744 0 15.5 8.919 30.5 25.81 43.4v268.4a11.053 11.053 0 0 0 11.031 11.046h296.88a11.005 11.005 0 0 0 9.24-5.05h112.21a11.046 11.046 0 0 0 11.029-11.04v-268.39c16.881-12.9 25.8-27.907 25.8-43.417.005-23.398-19.927-44.966-56.11-60.727zm-402.46 99.892c-9.777-7.394-21.425-19.314-21.425-34.114 0-18.065 17.826-36.193 48.908-49.737 33.119-14.434 77.292-22.383 124.367-22.383a398.124 398.124 0 0 1 44.078 2.421h.014c74.852 8.379 129.179 37.691 129.179 69.7 0 14.815-11.648 26.728-21.428 34.12a11.093 11.093 0 0 0 -4.383 8.779v267.946h-294.93v-267.947a11.055 11.055 0 0 0 -4.38-8.785zm425.147-5.027a11.065 11.065 0 0 0 -4.372 8.759v267.95h-109.465v-262.4c16.889-12.883 25.811-27.883 25.811-43.4 0-20-14.294-38.492-41.336-53.484-16.491-9.141-37.371-16.608-60.778-21.866 12.449-1.2 25.242-1.8 38.293-1.8 47.081 0 91.249 7.945 124.368 22.373 31.078 13.543 48.907 31.667 48.907 49.727 0 14.813-11.655 26.741-21.428 34.141z"/><path d="m87.086 147.534a13.366 13.366 0 1 0 -13.341-13.37 13.365 13.365 0 0 0 13.341 13.37zm0-14.731a1.366 1.366 0 1 1 -1.341 1.361 1.348 1.348 0 0 1 1.341-1.364z"/><path d="m212.756 177.954a15.076 15.076 0 1 0 -15.04-15.08 15.072 15.072 0 0 0 15.04 15.08zm0-18.151a3.076 3.076 0 1 1 -3.04 3.071 3.053 3.053 0 0 1 3.04-3.074z"/><path d="m302.845 134.914a13.366 13.366 0 1 0 -13.33-13.361 13.361 13.361 0 0 0 13.33 13.361zm0-14.731a1.366 1.366 0 1 1 -1.33 1.37 1.353 1.353 0 0 1 1.33-1.37z"/><path d="m291.065 288.2a15.61 15.61 0 1 0 -15.57-15.611 15.608 15.608 0 0 0 15.57 15.611zm0-19.22a3.61 3.61 0 1 1 -3.57 3.609 3.593 3.593 0 0 1 3.57-3.605z"/><path d="m118.876 255.524a13.56 13.56 0 1 0 -13.521-13.56 13.56 13.56 0 0 0 13.521 13.56zm0-15.12a1.56 1.56 0 1 1 -1.521 1.56 1.546 1.546 0 0 1 1.521-1.564z"/><path d="m191.455 349.923a14.775 14.775 0 1 0 -14.739-14.78 14.776 14.776 0 0 0 14.739 14.78zm0-17.549a2.775 2.775 0 1 1 -2.739 2.769 2.758 2.758 0 0 1 2.739-2.769z"/><path d="m96.955 376.164a15.92 15.92 0 1 0 15.881 15.92 15.912 15.912 0 0 0 -15.881-15.92zm0 19.84a3.92 3.92 0 1 1 3.881-3.92 3.9 3.9 0 0 1 -3.881 3.916z"/><path d="m297.605 394.714a15.58 15.58 0 1 0 15.54 15.58 15.573 15.573 0 0 0 -15.54-15.58zm0 19.16a3.58 3.58 0 1 1 3.54-3.58 3.56 3.56 0 0 1 -3.54 3.58z"/><path d="m430.985 108.183a13.366 13.366 0 1 0 13.33 13.37 13.365 13.365 0 0 0 -13.33-13.37zm0 14.731a1.366 1.366 0 1 1 1.33-1.361 1.348 1.348 0 0 1 -1.33 1.361z"/><path d="m394.086 256.984a15.61 15.61 0 1 0 15.569 15.609 15.608 15.608 0 0 0 -15.569-15.609zm0 19.22a3.61 3.61 0 1 1 3.569-3.611 3.595 3.595 0 0 1 -3.569 3.607z"/><path d="m425.756 394.714a15.58 15.58 0 1 0 15.529 15.58 15.577 15.577 0 0 0 -15.529-15.58zm0 19.16a3.58 3.58 0 1 1 3.529-3.58 3.564 3.564 0 0 1 -3.529 3.58z"/></g></svg>