<svg id="Layer_1" enable-background="new 0 0 512 512" height="512" viewBox="0 0 512 512" width="512" xmlns="http://www.w3.org/2000/svg"><g><path d="m497 512h-144.6c-8.284 0-15-6.716-15-15 0-9.447-7.687-17.134-17.134-17.134-9.454 0-17.133 7.679-17.133 17.118 0 8.284-6.716 15.016-15 15.016h-273.133c-8.284 0-15-6.716-15-15v-64.267c0-8.284 6.716-15 15-15h8.049c13.868 0 25.151-11.282 25.151-25.15 0-13.894-11.29-25.183-25.167-25.183h-8.033c-8.284 0-15-6.716-15-15v-64.267c0-8.284 6.716-15 15-15h482c8.284 0 15 6.716 15 15v208.867c0 8.284-6.716 15-15 15z" fill="#ffe65a"/><path d="m303.134 496.985c0-9.439 7.679-17.118 17.133-17.118 9.447 0 17.134 7.687 17.134 17.134 0 8.284 6.716 15 15 15h144.599c8.284 0 15-6.716 15-15v-208.867c0-8.284-6.716-15-15-15h-241v238.866h32.134c8.284 0 15-6.731 15-15.015z" fill="#ffc800"/><path d="m497 303.134h-482c-5.896 0-11.247-3.455-13.672-8.83-2.426-5.375-1.478-11.673 2.424-16.094l241-273.134c2.848-3.227 6.944-5.076 11.248-5.076s8.4 1.849 11.248 5.076l241 273.134c3.901 4.421 4.85 10.719 2.424 16.094-2.425 5.375-7.775 8.83-13.672 8.83z" fill="#fff0b4"/><path d="m510.672 294.304c2.426-5.375 1.478-11.673-2.424-16.094l-241-273.134c-2.847-3.227-6.944-5.076-11.248-5.076v303.134h241c5.897 0 11.247-3.455 13.672-8.83z" fill="#ffe65a"/><circle clip-rule="evenodd" cx="175.667" cy="223.867" fill="#ffe65a" fill-rule="evenodd" r="15"/><circle clip-rule="evenodd" cx="304.2" cy="352.4" fill="#ffa000" fill-rule="evenodd" r="15"/><path d="m400.6 431.667c-25.989 0-47.133-21.145-47.133-47.134s21.144-47.133 47.133-47.133 47.134 21.144 47.134 47.133-21.145 47.134-47.134 47.134z" fill="#ffa000"/><path d="m183.7 447.734c-30.419 0-55.167-24.748-55.167-55.167s24.748-55.166 55.167-55.166 55.166 24.747 55.166 55.166-24.747 55.167-55.166 55.167z" fill="#ffc800"/><path d="m272.067 238.866c-25.989 0-47.133-21.144-47.133-47.133s21.144-47.134 47.133-47.134 47.134 21.145 47.134 47.134-21.145 47.133-47.134 47.133z" fill="#ffe65a"/><path d="m319.2 191.734c0-25.989-21.145-47.134-47.134-47.134-5.64 0-11.05.999-16.066 2.823v88.62c5.017 1.824 10.427 2.823 16.066 2.823 25.99 0 47.134-21.143 47.134-47.132z" fill="#ffc800"/></g></svg>