<svg height="512pt" viewBox="0 -31 512 512" width="512pt" xmlns="http://www.w3.org/2000/svg"><path d="m72.136719 337.386719-7.050781 33.847656h344.476562c1.183594-2.808594 2.253906-5.78125 3.171875-8.972656 7.417969-25.742188 7.019531-47.667969-1.214844-67.03125-7.082031-16.648438-18.714843-28.199219-28.066406-37.480469-3.335937-3.3125-6.484375-6.441406-8.988281-9.359375-5.394532-6.289063-14.863282-7.015625-21.152344-1.625-4.691406 4.023437-6.28125 10.3125-4.550781 15.863281l-111.09375-44.015625 5.183593-3.328125c5.808594.355469 11.613282 1.023438 17.339844 2.011719 8.160156 1.410156 15.921875-4.074219 17.328125-12.238281 1.402344-8.167969-4.074219-15.921875-12.242187-17.328125-10.585938-1.820313-21.394532-2.746094-32.121094-2.746094-43.84375 0-86.480469 15.164063-120.0625 42.695313-32.550781 26.6875-51.71875 61.203124-52.582031 94.703124-.1875 7.257813 4.8125 13.441407 11.625 15.003907zm0 0" fill="#e56705"/><path d="m383.457031 257.75c-3.335937-3.3125-6.488281-6.441406-8.992187-9.359375-5.394532-6.289063-14.863282-7.015625-21.152344-1.625-4.691406 4.023437-6.28125 10.3125-4.550781 15.863281l-111.09375-44.015625 5.183593-3.328125c5.8125.355469 11.613282 1.023438 17.34375 2.011719 8.160157 1.410156 15.917969-4.074219 17.324219-12.238281 1.40625-8.167969-4.074219-15.921875-12.238281-17.328125-10.589844-1.820313-21.398438-2.746094-32.125-2.746094-3.035156 0-6.0625.082031-9.082031.226563v186.023437h185.492187c1.183594-2.804687 2.25-5.777344 3.171875-8.972656 7.414063-25.742188 7.019531-47.667969-1.21875-67.027344-7.082031-16.652344-18.714843-28.203125-28.0625-37.484375zm0 0" fill="#b34f03"/><path d="m497 97.25h-16.296875v-16.371094c0-8.285156-6.71875-15-15-15-8.285156 0-15 6.714844-15 15v24.59375l-81.363281 71.671875c-6.21875 5.476563-6.816406 14.957031-1.34375 21.171875 2.964844 3.367188 7.105468 5.085938 11.261718 5.085938 3.523438 0 7.058594-1.234375 9.910157-3.746094l82.199219-72.40625h25.632812c8.285156 0 15-6.71875 15-15 0-8.285156-6.714844-15-15-15zm0 0" fill="#ffc473"/><path d="m406.605469 198.148438-28.273438-34.566407c-4.820312-5.890625-13.28125-7.21875-19.675781-3.148437-20.550781 12.992187-44.75 20.21875-71.933594 21.476562-18.816406.871094-36.574218 7.71875-51.359375 19.796875-17.699219 14.464844-28.925781 34.730469-31.605469 57.0625-2.707031 22.554688 3.59375 44.503907 17.75 61.808594 16.144532 19.738281 39.828126 29.90625 63.988282 29.90625 19.339844 0 38.984375-6.515625 55.304687-19.851563 14.785157-12.082031 25.03125-28.121093 29.625-46.378906 6.640625-26.386718 18.546875-48.664062 35.382813-66.214844.09375-.09375.195312-.203124.285156-.304687 5-5.5 5.21875-13.832031.511719-19.585937zm0 0" fill="#804111"/><path d="m92.9375 304.113281c-32.132812 0-58.273438 26.132813-58.273438 58.25 0 7.410157 1.375 14.632813 4.089844 21.472657 3.054688 7.699218 11.777344 11.464843 19.476563 8.410156 5.882812-2.335938 9.453125-7.976563 9.457031-13.941406l50.496094.003906c.003906 5.964844 3.574218 11.605468 9.457031 13.941406 1.816406.722656 3.6875 1.0625 5.53125 1.0625 5.964844 0 11.609375-3.585938 13.945313-9.46875 2.714843-6.84375 4.09375-14.070312 4.09375-21.480469 0-32.117187-26.144532-58.25-58.273438-58.25zm0 0" fill="#e30058"/><path d="m124.945312 144.953125c-8.28125 0-15-6.714844-15-15 0-10.675781 2.9375-16.636719 5.078126-20.992187 1.453124-2.945313 1.996093-4.050782 1.996093-7.742188 0-3.695312-.542969-4.796875-1.996093-7.746094-2.140626-4.351562-5.078126-10.316406-5.078126-20.992187s2.9375-16.636719 5.078126-20.992188c1.453124-2.949219 1.996093-4.054687 1.996093-7.746093 0-3.695313-.542969-4.800782-1.996093-7.75-2.140626-4.351563-5.078126-10.316407-5.078126-20.992188 0-8.28125 6.71875-15 15-15 8.285157 0 15 6.71875 15 15 0 3.695312.542969 4.800781 1.996094 7.746094 2.144532 4.355468 5.078125 10.320312 5.078125 20.996094 0 10.675781-2.933593 16.636718-5.078125 20.992187-1.453125 2.949219-1.996094 4.050781-1.996094 7.746094 0 3.695312.542969 4.796875 1.996094 7.746093 2.144532 4.351563 5.078125 10.316407 5.078125 20.992188s-2.933593 16.636719-5.078125 20.992188c-1.453125 2.945312-1.996094 4.050781-1.996094 7.742187 0 8.285156-6.714843 15-15 15zm0 0" fill="#ffe1ba"/><path d="m186.933594 144.953125c-8.285156 0-15-6.714844-15-15 0-10.675781 2.933594-16.636719 5.078125-20.992187 1.449219-2.945313 1.992187-4.050782 1.992187-7.742188s-.542968-4.792969-1.992187-7.742188c-2.144531-4.355468-5.078125-10.320312-5.078125-20.996093s2.933594-16.636719 5.078125-20.992188c1.453125-2.949219 1.996093-4.054687 1.996093-7.746093 0-3.695313-.542968-4.796876-1.996093-7.75-2.144531-4.351563-5.078125-10.316407-5.078125-20.992188 0-8.285156 6.714844-15 15-15s15 6.714844 15 15c0 3.695312.542968 4.796875 1.996094 7.746094 2.140624 4.355468 5.078124 10.316406 5.078124 20.996094 0 10.675781-2.9375 16.636718-5.078124 20.992187-1.453126 2.949219-1.996094 4.054687-1.996094 7.746094 0 3.695312.542968 4.796875 1.992187 7.746093 2.144531 4.351563 5.078125 10.316407 5.078125 20.992188s-2.933594 16.636719-5.078125 20.992188c-1.449219 2.949218-1.992187 4.050781-1.992187 7.742187 0 8.285156-6.714844 15-15 15zm0 0" fill="#ffe1ba"/><path d="m248.917969 144.953125c-8.285157 0-15-6.714844-15-15 0-10.675781 2.933593-16.636719 5.078125-20.992187 1.449218-2.945313 1.992187-4.050782 1.992187-7.742188s-.542969-4.792969-1.992187-7.742188c-2.144532-4.355468-5.078125-10.320312-5.078125-20.996093s2.933593-16.636719 5.078125-20.992188c1.453125-2.949219 1.996094-4.054687 1.996094-7.746093 0-3.695313-.542969-4.796876-1.996094-7.75-2.144532-4.351563-5.078125-10.316407-5.078125-20.992188 0-8.285156 6.714843-15 15-15 8.285156 0 15 6.714844 15 15 0 3.695312.542969 4.796875 1.996093 7.746094 2.140626 4.355468 5.078126 10.316406 5.078126 20.996094 0 10.675781-2.9375 16.636718-5.078126 20.992187-1.453124 2.949219-1.996093 4.054687-1.996093 7.746094 0 3.695312.542969 4.796875 1.992187 7.746093 2.144532 4.351563 5.078125 10.316407 5.078125 20.992188s-2.933593 16.636719-5.078125 20.992188c-1.449218 2.949218-1.992187 4.050781-1.992187 7.742187 0 8.285156-6.714844 15-15 15zm0 0" fill="#ffc473"/><path d="m438.585938 363.304688h-423.585938c-8.285156 0-15 6.714843-15 15 0 16.027343 8.367188 33.605468 22.960938 48.234374 14.601562 14.632813 32.160156 23.027344 48.171874 23.027344h311.324219c16.011719 0 33.566407-8.394531 48.167969-23.03125 14.59375-14.625 22.960938-32.207031 22.960938-48.230468 0-8.285157-6.714844-15-15-15zm0 0" fill="#f3eee9"/><path d="m438.585938 363.304688h-214.511719v86.261718h158.378906c16.011719 0 33.570313-8.394531 48.171875-23.03125 14.589844-14.625 22.960938-32.207031 22.960938-48.230468 0-8.285157-6.714844-15-15-15zm0 0" fill="#e9dfda"/></svg>