<svg id="Capa_1" enable-background="new 0 0 511.966 511.966" height="512" viewBox="0 0 511.966 511.966" width="512" xmlns="http://www.w3.org/2000/svg"><g><g><g><path d="m382.806 445.859c2.867 12.665-12.145 21.818-21.859 13.184-4.322-3.834-9.361-6.982-17.6-6.982-21.184 0-21.184 20.779-42.379 20.779-21.184 0-21.184-20.779-42.379-20.779-21.184 0-21.184 20.779-42.379 20.779-21.194 0-21.194-20.779-42.379-20.779-21.194 0-21.194 20.779-42.389 20.779-21.194 0-21.194-20.779-42.389-20.779-8.239 0-13.278 3.148-17.6 6.982-9.714 8.634-24.727-.519-21.859-13.195 4.426-19.605 12.343-30.036 12.343-30.036v-351.318s-7.917-10.421-12.343-30.036c-2.866-12.675 12.147-21.818 21.861-13.195 4.322 3.844 9.361 6.982 17.6 6.982 8.561 0 13.662-3.397 18.098-7.428 6.545-5.974 11.647-13.35 24.27-13.35 21.195 0 21.195 20.779 42.389 20.779 21.184 0 21.184-20.779 42.379-20.779s21.195 20.779 42.379 20.779c21.195 0 21.195-20.779 42.389-20.779s21.194 20.779 42.379 20.779c8.249 0 13.288-3.138 17.61-6.982 9.714-8.623 24.727.519 21.859 13.195-4.426 19.615-12.343 30.036-12.343 30.036v351.319c-.001-.002 7.916 10.429 12.342 30.045z" fill="#ececec"/><path d="m61.938 89.989v-25.495s-7.917-10.421-12.343-30.036c-2.867-12.675 12.146-21.818 21.86-13.195 4.322 3.844 9.361 6.982 17.6 6.982 8.561 0 13.662-3.397 18.098-7.428 3.802 21.226 10.317 37.963 10.317 37.963z" fill="#dadada"/><path d="m61.939 390.319v25.496s-7.917 10.421-12.343 30.036c-2.867 12.675 12.145 21.818 21.859 13.195 4.322-3.844 9.361-6.982 17.6-6.982 8.561 0 13.662 3.397 18.098 7.428 3.802-21.226 10.317-37.963 10.317-37.963z" fill="#dadada"/><path d="m370.466 63.49c-102.844-12.919-205.688-8.376-308.532 4.542-11.313 117.441-11.313 230.34 0 347.781 102.844 12.919 205.688 12.919 308.532 0 11.313-117.44 11.313-234.882 0-352.323z" fill="#e49542"/><path d="m117.466 422.549c-18.514-1.486-37.017-3.397-55.531-5.725-11.314-117.442-11.314-234.884 0-352.327 18.514-2.327 37.017-4.229 55.531-5.714-11.553 121.246-11.553 242.511 0 363.766z" fill="#e28424"/><path d="m341.934 239.649c0 63.921-56.29 115.737-125.733 115.737-45.059 0-84.58-21.824-106.772-54.611-12.02-17.734-18.961-38.686-18.961-61.125 0-22.478 6.961-43.456 19.013-61.215 22.202-32.749 61.703-54.522 106.72-54.522 69.443-.001 125.733 51.815 125.733 115.736z" fill="#ececec"/><path d="m109.428 289.176c-12.02-14.369-18.961-31.345-18.961-49.526 0-18.213 6.961-35.21 19.013-49.599-.882 33.037-.893 66.086-.052 99.125z" fill="#dadada"/></g><g><path d="m200.189 277.017c-30.298 9.421-79.233-.207-79.668-42.164s51.792-16.964 51.792-16.964z" fill="#ffc250"/><path d="m135.251 211.313c21.145-3.623 37.205 24.397 54.973 53.626s64.036 40.815 93.599 16.235 42.076-67.63 5.777-93.308-58.958 32.62-90.207 34.222c-31.248 1.602-31.476-21.626-64.142-10.775z" fill="#ffd064"/></g><g><path d="m318.322 481.8c-39.175 12.181-102.448-.268-103.01-54.517-.562-54.25 66.966-21.934 66.966-21.934z" fill="#ffc250"/><path d="m234.359 396.846c27.341-4.685 48.106 31.545 71.08 69.338s82.798 52.773 121.023 20.991 54.403-87.445 7.469-120.647-76.232 42.177-116.637 44.249c-40.404 2.072-40.699-27.962-82.935-13.931z" fill="#ffd064"/></g></g><g><path d="m349.423 239.654c0-67.947-59.761-123.225-133.217-123.225s-133.217 55.278-133.217 123.225 59.761 123.226 133.217 123.226 133.217-55.279 133.217-123.226zm-251.436 0c0-59.677 53.033-108.227 118.219-108.227s118.219 48.55 118.219 108.227-53.033 108.227-118.219 108.227-118.219-48.551-118.219-108.227z"/><path d="m233.465 301.011c4.223.705 8.405 1.054 12.518 1.054 15.875 0 30.689-5.197 42.633-15.128 20.071-16.688 31.552-39.519 30.711-61.073-.686-17.589-9.469-32.843-25.4-44.112-26.563-18.792-47.647-.337-64.587 14.492-10.487 9.18-20.392 17.85-30.324 18.359-11.831.608-18.216-2.871-24.973-6.553-9.36-5.1-19.969-10.882-41.142-3.848-.078.026-.147.065-.219.102-8.091 2.294-19.866 9.299-19.644 30.629.171 16.691 7.142 30.525 20.158 40.006 12.636 9.205 28.93 12.828 44.036 12.828 7.529 0 14.748-.912 21.088-2.47 9.773 7.953 21.984 13.516 35.145 15.714zm-33.68-71.43c15.128-.776 27.485-11.592 39.435-22.052 18.061-15.809 29.948-24.922 46.048-13.533 12.152 8.596 18.569 19.515 19.073 32.453.65 16.674-9.049 35.433-25.313 48.956-11.632 9.671-26.934 13.511-43.092 10.813-16.72-2.792-31.41-12.203-39.295-25.175l-2.046-3.371c-7.381-12.167-14.595-24.06-22.267-33.59 6.643 3.239 15.049 6.137 27.457 5.499zm-57.756 33.234c-9.162-6.674-13.87-16.107-13.992-28.039-.138-13.284 5.913-15.385 9.024-16.129 15.101-1.987 29.49 21.711 44.711 46.804l2.053 3.383c.715 1.177 1.484 2.324 2.281 3.454-14.717 1.691-32.097-.745-44.077-9.473z"/><path d="m470.156 415.72c-.859-22.036-11.893-41.168-31.91-55.328-14.842-10.5-29.659-12.575-45.297-6.341-3.577 1.426-7.046 3.244-10.434 5.322 6.34-97.29 4.907-195.761-4.273-293.019 2.849-4.569 8.393-14.839 11.868-30.217 2.053-9.089-1.814-18.028-9.852-22.775-7.914-4.673-17.453-3.76-24.303 2.324-3.539 3.142-6.884 5.09-12.622 5.09-7.532 0-11.059-3.458-15.941-8.244-5.696-5.583-12.783-12.532-26.442-12.532-13.658 0-20.745 6.949-26.439 12.533-4.88 4.786-8.407 8.243-15.938 8.243-7.532 0-11.058-3.458-15.939-8.244-5.695-5.583-12.782-12.532-26.44-12.532-13.657 0-20.744 6.949-26.438 12.533-4.881 4.786-8.407 8.244-15.938 8.244-7.53 0-11.056-3.458-15.937-8.243-5.694-5.585-12.782-12.534-26.439-12.534-13.656 0-20.742 6.949-26.436 12.533-4.88 4.786-8.405 8.243-15.934 8.243-5.736 0-9.081-1.948-12.618-5.09-6.85-6.085-16.387-6.997-24.3-2.326-8.038 4.746-11.904 13.684-9.851 22.772 3.47 15.364 9.007 25.629 11.86 30.206-1.574 16.635-2.934 33.356-4.028 49.764-.275 4.133 2.851 7.706 6.984 7.982 4.135.276 7.706-2.851 7.982-6.984 1.031-15.46 2.291-31.203 3.753-46.886 97.81-11.792 196.89-11.793 294.702 0 9.291 99.885 10.335 201.046 3.126 300.83-3.117 2.603-6.187 5.286-9.227 7.948l-2.094 1.83c-3.119 2.724-3.44 7.462-.716 10.581 2.725 3.119 7.462 3.44 10.582.716l2.106-1.843c24.159-21.15 40.089-33.318 62.252-17.642 16.296 11.529 24.904 26.221 25.585 43.668.867 22.231-11.976 47.168-33.517 65.079-15.543 12.921-35.96 18.055-57.494 14.457-22.237-3.715-41.792-16.266-52.312-33.574l-2.671-4.398c-12.012-19.798-23.675-39.02-36.53-52.12 1.185.622 2.389 1.278 3.63 1.954 9.468 5.158 21.253 11.577 41.395 10.546 7.314-.375 14.655-2.702 22.442-7.114 3.603-2.042 4.87-6.618 2.828-10.221-2.041-3.604-6.616-4.869-10.221-2.828-5.711 3.236-10.885 4.932-15.816 5.185-15.921.817-24.435-3.825-33.451-8.737-12.282-6.692-24.981-13.613-51.45-4.819-.106.035-.205.084-.3.139-16.026 4.444-21.568 17.155-23.241 28.104-46.368-.302-93.269-3.276-139.608-8.865-8.11-87.185-9.961-175.459-5.498-262.469.212-4.136-2.969-7.661-7.105-7.874-4.143-.21-7.662 2.969-7.874 7.105-4.557 88.848-2.575 178.994 5.869 267.987-2.829 4.508-8.444 14.822-11.946 30.339-2.055 9.089 1.809 18.028 9.845 22.775 7.913 4.673 17.454 3.761 24.307-2.327 3.536-3.141 6.881-5.088 12.622-5.088 7.535 0 11.062 3.457 15.944 8.242 5.695 5.582 12.784 12.529 26.442 12.529 13.653 0 20.739-6.946 26.432-12.528 4.882-4.786 8.409-8.243 15.944-8.243 7.528 0 11.054 3.456 15.933 8.24 5.695 5.583 12.783 12.531 26.443 12.531 6.774 0 11.844-1.761 15.646-3.861.376.286.736.585 1.121.865 15.937 11.609 36.51 16.179 55.603 16.179 9.986 0 19.557-1.258 27.859-3.404 12.473 10.412 28.224 17.7 45.244 20.544 5.338.892 10.624 1.333 15.82 1.333 20.017 0 38.688-6.544 53.732-19.05 25.432-21.143 39.979-50.001 38.919-77.195zm-404.914-360.166c-2.411-4.437-5.911-12.105-8.31-22.726-.901-3.988 1.952-6.023 2.848-6.552 1.085-.641 3.914-1.864 6.714.623 4.652 4.132 11.422 8.875 22.579 8.875 13.656 0 20.742-6.949 26.436-12.533 4.88-4.786 8.405-8.243 15.934-8.243 7.531 0 11.057 3.458 15.938 8.243 5.694 5.584 12.781 12.533 26.438 12.533 13.658 0 20.745-6.949 26.439-12.533 4.881-4.786 8.407-8.243 15.938-8.243s11.058 3.458 15.939 8.244c5.695 5.584 12.782 12.533 26.44 12.533 13.657 0 20.744-6.949 26.438-12.533 4.88-4.786 8.407-8.244 15.939-8.244s11.059 3.458 15.941 8.244c5.696 5.584 12.783 12.533 26.441 12.533 11.159 0 17.93-4.743 22.581-8.875 2.802-2.489 5.632-1.265 6.717-.623.896.529 3.751 2.565 2.849 6.554-2.4 10.625-5.903 18.294-8.308 22.723-100.202-12.23-201.733-12.23-301.931 0zm135.028 401.515c-5.693-5.581-12.779-12.528-26.433-12.528-13.661 0-20.748 6.948-26.443 12.531-4.879 4.783-8.405 8.24-15.933 8.24-7.535 0-11.062-3.457-15.944-8.242-5.695-5.582-12.784-12.529-26.442-12.529-11.163 0-17.933 4.742-22.582 8.873-2.804 2.49-5.633 1.268-6.719.626-.895-.529-3.745-2.563-2.842-6.555 2.578-11.426 6.433-19.431 8.834-23.669 47.24 5.748 95.065 8.819 142.35 9.136 1.057 12.152 5.14 22.952 12.078 31.981-1.18.24-2.492.379-3.979.379-7.535 0-11.063-3.457-15.945-8.243zm41.542 8.123c-12.438-9.06-18.828-21.847-18.994-38.007-.181-17.361 7.46-21.55 13.504-23.046 20.962-2.845 39.949 28.413 60.031 61.51l2.677 4.409c1.528 2.514 3.213 4.941 5.034 7.28-20.242 3.11-45.284.214-62.252-12.146z"/><path d="m425.284 445.909-.373.219c-3.573 2.095-4.771 6.69-2.675 10.262 1.396 2.381 3.902 3.707 6.476 3.707 1.289 0 2.594-.332 3.787-1.031l.373-.219c3.573-2.095 4.771-6.69 2.675-10.262-2.097-3.574-6.689-4.771-10.263-2.676z"/><path d="m439.373 442.727c1.289 0 2.594-.332 3.787-1.031l.373-.219c3.573-2.095 4.771-6.69 2.676-10.262-2.095-3.573-6.69-4.771-10.263-2.676l-.373.219c-3.573 2.095-4.771 6.69-2.675 10.262 1.395 2.381 3.901 3.707 6.475 3.707z"/><path d="m414.951 428.275-.373.219c-3.573 2.095-4.771 6.69-2.675 10.262 1.396 2.381 3.902 3.707 6.476 3.707 1.289 0 2.594-.332 3.787-1.031l.373-.219c3.573-2.095 4.771-6.69 2.675-10.262-2.096-3.574-6.689-4.771-10.263-2.676z"/></g></g></svg>