<svg id="Layer_3" enable-background="new 0 0 64 64" height="512" viewBox="0 0 64 64" width="512" xmlns="http://www.w3.org/2000/svg"><g><path d="m17 20v-17c0-.552.448-1 1-1h28c.552 0 1 .448 1 1v21h-.54c-.292 0-.569.128-.759.349l-2.44 2.847c-2.07 2.415-5.091 3.804-8.271 3.804-2.576 0-5.069-.913-7.036-2.577l-9.674-8.186c-.181-.153-.41-.237-.646-.237z" fill="#674025"/><path d="m17 14h10v13h-10z" fill="#442518"/><path d="m37 14h10v13h-10z" fill="#442518"/><path d="m37 14h8v13h-8z" fill="#815643"/><path d="m17 14h8v13h-8z" fill="#815643"/><g><path d="m24 25.999h-2v-7h-2v-2h3c.553 0 1 .447 1 1z" fill="#674025"/></g><path d="m27 2h10v12h-10z" fill="#442518"/><path d="m27 2h8v12h-8z" fill="#815643"/><g fill="#976947"><path d="m17 2h8v12h-8z"/><path d="m37 2h8v12h-8z"/><path d="m27 14h8v13h-8z"/></g><path d="m27 27h10v5h-10z" fill="#442518"/><path d="m18.28 20.237 9.674 8.186c1.967 1.664 4.46 2.577 7.036 2.577 3.18 0 6.201-1.389 8.27-3.804l2.44-2.847c.191-.221.468-.349.76-.349h.54c1.105 0 2 .895 2 2v36h-34v-40c0-1.105.895-2 2-2h.634c.236 0 .465.084.646.237z" fill="#8f6128"/><path d="m15 41h34v10h-34z" fill="#d8923e"/><path d="m37 41 10 10h-6l-10-10z" fill="#f7d881"/><path d="m23 41 10 10h-6l-10-10z" fill="#f7d881"/><path d="m49 57.922v4.078h-34v-4.082h.014c.324.054.654.082.986.082 1.298 0 2.561-.421 3.6-1.2l.8-.6c1.039-.779 2.302-1.2 3.6-1.2 1.298 0 2.561.421 3.6 1.2l.8.6c1.039.779 2.302 1.2 3.6 1.2 1.298 0 2.561-.421 3.6-1.2l.8-.6c1.039-.779 2.302-1.2 3.6-1.2 1.298 0 2.561.421 3.6 1.2l.8.6c1.039.779 2.302 1.2 3.6 1.2.325 0 .647-.026.964-.078z" fill="#d8923e"/><path d="m15.014 36.918c.324.054.654.082.986.082 1.298 0 2.561-.421 3.6-1.2l.8-.6c1.039-.779 2.302-1.2 3.6-1.2 1.298 0 2.561.421 3.6 1.2l.8.6c1.039.779 2.302 1.2 3.6 1.2 1.298 0 2.561-.421 3.6-1.2l.8-.6c1.039-.779 2.302-1.2 3.6-1.2 1.298 0 2.561.421 3.6 1.2l.8.6c1.039.779 2.302 1.2 3.6 1.2.325 0 .647-.026.964-.078h.036v-10.922c0-1.105-.895-2-2-2h-.54c-.292 0-.569.128-.759.349l-2.44 2.847c-2.07 2.415-5.091 3.804-8.271 3.804-2.576 0-5.069-.913-7.036-2.577l-9.674-8.186c-.181-.153-.41-.237-.646-.237h-.634c-1.105 0-2 .895-2 2v14.918z" fill="#d8923e"/><g><path d="m23.999 10.999h-2v-4.999h-2v-2h3c.553 0 1 .447 1 1z" fill="#442518"/></g><g><path d="m33.999 10.999h-2v-4.999h-2v-2h3c.553 0 1 .447 1 1z" fill="#674025"/></g><g><path d="m43.999 10.999h-2v-4.999h-2v-2h3c.553 0 1 .447 1 1z" fill="#442518"/></g><g><path d="m43.999 23.999h-2v-5h-2v-2h3c.553 0 1 .447 1 1z" fill="#674025"/></g><g><path d="m34 23.999h-2v-5h-2v-2h3c.553 0 1 .447 1 1z" fill="#442518"/></g><g><path d="m48 23.184v-20.184c0-1.103-.897-2-2-2h-28c-1.103 0-2 .897-2 2v16.184c-1.161.414-2 1.514-2 2.816v40c0 .553.447 1 1 1h34c.553 0 1-.447 1-1v-36c0-1.302-.839-2.402-2-2.816zm0 26.816h-.585l-8-8h8.585zm-32-8.001h.585l8 8h-8.585zm11.415 8.001-8-8h3.171l8 8zm6 0-8-8h5.171l8 8zm8 0-8-8h3.171l8 8zm-25.415-10v-2.011c1.497-.007 2.996-.487 4.199-1.388l.801-.601c1.72-1.289 4.279-1.29 6 0l.8.6c2.407 1.805 5.992 1.805 8.399 0l.801-.6c1.721-1.289 4.279-1.29 6 0l.8.6c1.203.902 2.695 1.399 4.2 1.399v2.001zm0 11.999h32v4.983c-1.063-.005-2.142-.339-3-.982l-.8-.6c-2.407-1.804-5.99-1.805-8.399 0l-.801.6c-1.718 1.289-4.279 1.29-6 0l-.8-.6c-2.407-1.804-5.99-1.805-8.399 0l-.801.6c-.858.644-1.929.98-3 .983zm26.968-25.999h-4.968v-11h8v8.057c-.408.096-.78.317-1.059.642zm-19.968-9h-3v2h2v3.075l-3.075-2.602c-.266-.225-.586-.374-.925-.438v-4.036h8v10.46l-2-1.693v-5.766c0-.553-.448-1-1-1zm13-2.001v11h-8v-11zm-8-1.999v-10h8v10zm8 14.999v1.946c-.334.034-.671.055-1.01.055-2.151 0-4.239-.712-5.95-2.001zm2 0h2.955c-.893.675-1.893 1.187-2.955 1.526zm8-14.999h-8v-10h8zm-20-10v10h-8v-10zm-8.367 18 9.674 8.186c2.146 1.814 4.874 2.814 7.683 2.814 3.405 0 6.627-1.46 8.883-4.001h.127v-.132c.006-.007.013-.013.02-.02l2.439-2.847h.541c.552 0 1 .448 1 1v9.982c-1.063-.005-2.142-.338-3-.982l-.8-.6c-2.407-1.804-5.99-1.805-8.399 0l-.801.6c-1.718 1.289-4.279 1.29-6 0l-.8-.6c-2.407-1.804-5.99-1.805-8.399 0l-.801.6c-.858.644-1.929.981-3 .984v-13.984c0-.552.448-1 1-1zm-1.633 39.999v-2.011c1.497-.007 2.996-.487 4.199-1.388l.801-.6c1.72-1.289 4.279-1.29 6 0l.8.6c2.407 1.805 5.992 1.805 8.399 0l.801-.6c1.721-1.289 4.279-1.29 6 0l.8.6c1.203.902 2.695 1.399 4.2 1.399v2z"/><path d="m22 10.999h2v-5.999c0-.553-.447-1-1-1h-3v2h2z"/><path d="m33 4h-3v2h2v5h2v-6c0-.553-.448-1-1-1z"/><path d="m42 6v5h2v-6c0-.553-.447-1-1-1h-3v2z"/><path d="m43 17h-3v2h2v5h2v-6c0-.553-.448-1-1-1z"/><path d="m32 19v5h2v-6c0-.553-.447-1-1-1h-3v2z"/></g></g></svg>