<?xml version="1.0" encoding="iso-8859-1"?>
<!-- Generator: Adobe Illustrator 19.0.0, SVG Export Plug-In . SVG Version: 6.00 Build 0)  -->
<svg version="1.1" id="Capa_1" xmlns="http://www.w3.org/2000/svg" xmlns:xlink="http://www.w3.org/1999/xlink" x="0px" y="0px"
	 viewBox="0 0 480.176 480.176" style="enable-background:new 0 0 480.176 480.176;" xml:space="preserve">
<path style="fill:#FFD782;" d="M434.536,153.676c-19.384-0.004-35.598-14.723-37.472-34.016c-18.587,9.26-41.161,1.7-50.422-16.887
	c-8.553-17.167-2.814-38.02,13.318-48.393c-82.633-24.089-169.148,23.371-193.237,106.004s23.371,169.148,106.004,193.237
	s169.148-23.371,193.237-106.004c10-34.304,7.909-71.003-5.924-103.949C453.106,150.103,443.996,153.678,434.536,153.676
	L434.536,153.676z"/>
<circle style="fill:#D3843D;" cx="144.192" cy="296.076" r="136"/>
<g>
	<circle style="fill:#B5554E;" cx="240.192" cy="136.076" r="16"/>
	<circle style="fill:#B5554E;" cx="386.112" cy="273.996" r="26.896"/>
</g>
<path style="fill:#D3843D;" d="M301.509,194.756l17.649-17.649c7.732-7.732,20.269-7.732,28.002,0l0,0
	c7.732,7.732,7.732,20.269,0,28.002l-17.649,17.649c-7.732,7.732-20.269,7.732-28.002,0l0,0
	C293.777,215.025,293.777,202.489,301.509,194.756z"/>
<path style="fill:#FFD782;" d="M62.188,326.083L46.19,310.086c-7.732-7.732-7.732-20.269,0-28.002l0,0
	c7.732-7.732,20.269-7.732,28.002,0l15.998,15.998c7.732,7.732,7.732,20.269,0,28.002l0,0
	C82.457,333.816,69.92,333.816,62.188,326.083z"/>
<g>
	<circle style="fill:#B5554E;" cx="120.192" cy="384.076" r="16"/>
	<circle style="fill:#B5554E;" cx="200.192" cy="240.076" r="16"/>
</g>
<path style="fill:#D3843D;" d="M432.192,224.076c-2.122,0-4.156-0.844-5.656-2.344l-16-16c-3.069-3.178-2.982-8.243,0.196-11.312
	c3.1-2.994,8.015-2.994,11.116,0l16,16c3.124,3.125,3.123,8.19-0.002,11.314C436.346,223.233,434.313,224.076,432.192,224.076
	L432.192,224.076z"/>
<g>
	<path style="fill:#B5554E;" d="M304.192,336.076c-4.418-0.001-7.999-3.583-7.998-8.002c0-2.121,0.843-4.154,2.342-5.654l16-16
		c3.178-3.07,8.242-2.982,11.312,0.196c2.995,3.1,2.995,8.016,0,11.116l-16,16C308.348,335.232,306.313,336.076,304.192,336.076z"/>
	<path style="fill:#B5554E;" d="M136.192,304.076c-4.418-0.001-7.999-3.583-7.998-8.002c0-2.121,0.843-4.154,2.342-5.654l16-16
		c3.178-3.069,8.243-2.982,11.312,0.196c2.994,3.1,2.994,8.015,0,11.116l-16,16C140.348,303.232,138.313,304.076,136.192,304.076
		L136.192,304.076z"/>
	<path style="fill:#B5554E;" d="M248.192,312.076c-2.122,0-4.156-0.844-5.656-2.344l-16-16c-3.07-3.178-2.982-8.242,0.196-11.312
		c3.1-2.994,8.015-2.994,11.116,0l16,16c3.124,3.125,3.123,8.19-0.002,11.314C252.346,311.233,250.313,312.076,248.192,312.076z"/>
</g>
<path style="fill:#D3843D;" d="M312.192,136.076c-2.677,0.003-5.178-1.333-6.664-3.56l-16-24c-2.452-3.676-1.46-8.644,2.216-11.096
	c3.676-2.452,8.644-1.46,11.096,2.216l0,0l16,24c2.452,3.675,1.461,8.643-2.215,11.095
	C315.312,135.607,313.77,136.075,312.192,136.076z"/>
<g>
	<path style="fill:#FFD782;" d="M176.192,328.076v40h40L176.192,328.076z"/>
	<path style="fill:#FFD782;" d="M128.192,208.076h-40v40L128.192,208.076z"/>
</g>
<path d="M240.192,112.076c-13.255,0-24,10.745-24,24s10.745,24,24,24c13.255,0,24-10.745,24-24S253.447,112.076,240.192,112.076z
	 M240.192,144.076c-4.418,0-8-3.582-8-8s3.582-8,8-8s8,3.582,8,8S244.61,144.076,240.192,144.076z"/>
<path d="M461.736,135.82c-2.547-0.563-5.208,0.161-7.12,1.936c-11.983,11.12-30.712,10.419-41.831-1.564
	c-4.421-4.765-7.151-10.853-7.769-17.324c-0.422-4.398-4.33-7.621-8.728-7.199c-0.936,0.09-1.848,0.344-2.696,0.751
	c-14.577,7.399-32.393,1.579-39.792-12.998c-6.909-13.613-2.333-30.247,10.568-38.41c3.682-2.443,4.686-7.408,2.243-11.089
	c-1.043-1.572-2.608-2.725-4.419-3.255c-84.959-24.85-174.296,22.258-201.784,106.4C81.396,144.014,10.004,200.725,0.95,279.737
	s47.657,150.404,126.669,159.458c59.531,6.822,117.064-23.933,144.461-77.223c87.239,24.353,177.703-26.626,202.056-113.865
	c9.936-35.594,7.56-73.501-6.744-107.575C466.384,138.136,464.275,136.378,461.736,135.82L461.736,135.82z M144.192,424.076
	c-70.692,0-128-57.308-128-128s57.308-128,128-128s128,57.308,128,128C272.108,366.734,214.85,423.992,144.192,424.076z
	 M316.192,352.076c-12.67-0.024-25.285-1.672-37.536-4.904c28.405-73.952-8.519-156.929-82.471-185.334
	c-6.452-2.478-13.075-4.487-19.817-6.01c23.93-69.55,95.342-110.935,167.584-97.12c-14.929,20.315-10.564,48.886,9.751,63.815
	c7.841,5.762,17.318,8.868,27.049,8.865c3.502,0.003,6.992-0.402,10.4-1.208c7.8,23.946,33.535,37.034,57.481,29.234
	c2.644-0.861,5.204-1.963,7.647-3.29c26.43,77.403-14.892,161.577-92.295,188.007C348.598,349.385,332.451,352.069,316.192,352.076z
	"/>
<path d="M386.12,239.108c-19.277-0.018-34.918,15.595-34.936,34.872s15.595,34.918,34.872,34.936
	c19.277,0.018,34.918-15.595,34.936-34.872c0-0.013,0-0.027,0-0.04C420.97,254.75,405.374,239.143,386.12,239.108L386.12,239.108z
	 M386.12,292.908c-10.44,0.018-18.918-8.432-18.936-18.872s8.432-18.918,18.872-18.936c10.44-0.018,18.918,8.432,18.936,18.872
	c0,0.011,0,0.021,0,0.032c-0.026,10.412-8.46,18.846-18.872,18.872V292.908z"/>
<path d="M352.808,210.772c10.993-10.719,11.215-28.319,0.496-39.312c-10.719-10.993-28.319-11.215-39.312-0.496
	c-0.167,0.163-0.333,0.329-0.496,0.496l-17.648,17.648c-10.853,10.856-10.852,28.455,0.004,39.308
	c10.856,10.853,28.455,10.852,39.308-0.004l0,0L352.808,210.772z M341.496,199.452l-17.648,17.656
	c-4.67,4.456-12.018,4.456-16.688,0c-4.591-4.615-4.591-12.073,0-16.688l17.648-17.64c4.509-4.706,11.978-4.865,16.684-0.357
	s4.865,11.978,0.357,16.684c-0.115,0.12-0.233,0.238-0.353,0.353V199.452z"/>
<path d="M95.848,292.42l-16-16c-10.858-10.856-28.46-10.854-39.316,0.004c-10.856,10.858-10.854,28.46,0.004,39.316l16,16
	c10.858,10.856,28.46,10.854,39.316-0.004C106.708,320.878,106.706,303.276,95.848,292.42
	C95.848,292.42,95.848,292.42,95.848,292.42z M84.536,320.42c-4.61,4.604-12.078,4.604-16.688,0l-16-16
	c-4.509-4.706-4.349-12.175,0.356-16.684c4.566-4.375,11.768-4.373,16.332,0.004l16,16c4.604,4.581,4.622,12.027,0.041,16.631
	c-0.014,0.014-0.027,0.027-0.041,0.041V320.42z"/>
<path d="M120.192,360.076c-13.255,0-24,10.745-24,24s10.745,24,24,24s24-10.745,24-24S133.447,360.076,120.192,360.076z
	 M120.192,392.076c-4.418,0-8-3.582-8-8s3.582-8,8-8s8,3.582,8,8S124.61,392.076,120.192,392.076z"/>
<path d="M200.192,264.076c13.255,0,24-10.745,24-24c0-13.255-10.745-24-24-24s-24,10.745-24,24
	C176.192,253.331,186.937,264.076,200.192,264.076z M200.192,232.076c4.418,0,8,3.582,8,8s-3.582,8-8,8s-8-3.582-8-8
	S195.774,232.076,200.192,232.076z"/>
<path d="M421.848,194.42c-3.178-3.07-8.242-2.982-11.312,0.196c-2.994,3.1-2.994,8.015,0,11.116l16,16
	c3.178,3.07,8.242,2.982,11.312-0.196c2.994-3.1,2.994-8.015,0-11.116L421.848,194.42z"/>
<path d="M314.536,306.42l-16,16c-3.178,3.07-3.266,8.134-0.196,11.312c3.07,3.178,8.134,3.266,11.312,0.196
	c0.066-0.064,0.132-0.129,0.196-0.196l16-16c3.07-3.178,2.982-8.242-0.196-11.312C322.552,303.425,317.636,303.425,314.536,306.42z"
	/>
<path d="M146.536,274.42l-16,16c-3.178,3.069-3.266,8.134-0.196,11.312c3.069,3.178,8.134,3.266,11.312,0.196
	c0.067-0.064,0.132-0.13,0.196-0.196l16-16c3.07-3.178,2.982-8.242-0.196-11.312C154.551,271.426,149.636,271.426,146.536,274.42z"
	/>
<path d="M253.848,298.42l-16-16c-3.178-3.069-8.243-2.982-11.312,0.196c-2.994,3.1-2.994,8.015,0,11.116l16,16
	c3.178,3.07,8.242,2.982,11.312-0.196C256.843,306.436,256.843,301.52,253.848,298.42z"/>
<path d="M305.536,132.516c2.452,3.676,7.42,4.668,11.096,2.216s4.668-7.42,2.216-11.096l-16-24
	c-2.452-3.676-7.42-4.668-11.096-2.216c-3.676,2.452-4.668,7.42-2.216,11.096L305.536,132.516z"/>
<path d="M181.848,322.42c-3.125-3.124-8.19-3.123-11.314,0.002c-1.499,1.5-2.342,3.534-2.342,5.654v40c0,4.418,3.582,8,8,8h40
	c4.418-0.001,7.999-3.583,7.998-8.002c0-2.121-0.843-4.154-2.342-5.654L181.848,322.42z M184.192,360.076v-12.688l12.688,12.688
	H184.192z"/>
<path d="M85.128,255.468c2.99,1.239,6.432,0.553,8.72-1.736l40-40c3.124-3.125,3.123-8.19-0.002-11.314
	c-1.5-1.499-3.534-2.342-5.654-2.342h-40c-4.418,0-8,3.582-8,8v40C80.191,251.311,82.139,254.229,85.128,255.468z M96.192,216.076
	h12.688l-12.688,12.688V216.076z"/>
<g>
</g>
<g>
</g>
<g>
</g>
<g>
</g>
<g>
</g>
<g>
</g>
<g>
</g>
<g>
</g>
<g>
</g>
<g>
</g>
<g>
</g>
<g>
</g>
<g>
</g>
<g>
</g>
<g>
</g>
</svg>
