<?xml version="1.0" encoding="iso-8859-1"?>
<!-- Generator: Adobe Illustrator 19.0.0, SVG Export Plug-In . SVG Version: 6.00 Build 0)  -->
<svg version="1.1" id="Capa_1" xmlns="http://www.w3.org/2000/svg" xmlns:xlink="http://www.w3.org/1999/xlink" x="0px" y="0px"
	 viewBox="0 0 511.999 511.999" style="enable-background:new 0 0 511.999 511.999;" xml:space="preserve">
<path style="fill:#9AB748;" d="M502.739,52.938c-55.113,4.545-85.876,42.834-102.429,76.47c10.406,2.839,20.187,8.236,28.398,16.207
	c17.535-51.988,56.327-80.478,74.985-89.125C505.59,55.609,504.823,52.766,502.739,52.938z"/>
<path style="fill:#8FA835;" d="M468.432,82.12c13.336-13.158,26.512-21.576,35.261-25.631c1.897-0.879,1.13-3.722-0.954-3.55
	c-55.113,4.545-85.876,42.834-102.429,76.47c6.28,1.713,12.327,4.365,17.944,7.944C429.056,117.134,445.075,96.047,468.432,82.12z"
	/>
<path style="fill:#83CC8E;" d="M10.064,407.636c-7.165-35.399,15.722-69.903,51.12-77.069
	c77.748-15.738,146.743-50.233,205.069-102.524c41.244-36.977,61.44-69.579,61.625-69.892c18.42-31.067,58.539-41.318,89.602-22.9
	c31.067,18.419,41.319,58.535,22.9,89.602c-4.468,7.535-112.186,185.105-353.247,233.902
	C51.741,465.923,17.23,443.039,10.064,407.636z"/>
<path style="fill:#78C181;" d="M30.066,421.91c-7.166-35.399,15.722-69.903,51.12-77.069
	c77.748-15.738,146.743-50.233,205.069-102.524c41.244-36.977,61.44-69.579,61.625-69.892c17.244-29.083,53.503-39.921,83.55-26.075
	c-4.031-4.219-8.684-7.976-13.95-11.098c-31.064-18.418-71.182-8.167-89.602,22.9c-0.185,0.313-20.382,32.915-61.625,69.892
	c-58.325,52.291-127.321,86.786-205.069,102.524c-35.399,7.165-58.286,41.67-51.12,77.069c4.305,21.269,18.486,38.008,36.792,46.439
	C38.608,445.448,32.61,434.473,30.066,421.91z"/>
<path style="fill:#3BBC56;" d="M420.483,188.043c8.249-13.914,10.731-29.64,8.184-44.422c-30.684-28.489-79.597-21.21-100.79,14.531
	c-0.185,0.313-20.382,32.915-61.625,69.892c-58.325,52.291-127.321,86.786-205.069,102.524
	c-34.761,7.037-57.436,40.437-51.457,75.159c15.135,14.055,36.318,20.51,57.509,16.219
	C308.297,373.147,416.016,195.577,420.483,188.043z"/>
<g>
	<path style="fill:#30AA44;" d="M428.669,143.636c-0.061-0.057-0.12-0.115-0.182-0.172c-0.805-0.742-1.624-1.456-2.453-2.15
		c-0.199-0.166-0.399-0.332-0.6-0.496c-0.809-0.66-1.627-1.299-2.457-1.914c-0.285-0.21-0.576-0.414-0.865-0.621
		c-0.561-0.402-1.128-0.79-1.698-1.172c-0.705-0.471-1.422-0.929-2.151-1.376c-0.305-0.187-0.609-0.376-0.916-0.557
		c-0.884-0.521-1.776-1.02-2.674-1.495c-0.073-0.039-0.147-0.079-0.22-0.117c-0.933-0.489-1.873-0.954-2.819-1.394
		c-0.054-0.025-0.108-0.05-0.163-0.075c-0.953-0.44-1.913-0.856-2.877-1.246c-0.061-0.025-0.122-0.048-0.183-0.072
		c-0.96-0.385-1.925-0.748-2.895-1.085c-0.071-0.025-0.143-0.047-0.215-0.071c-0.966-0.331-1.936-0.643-2.91-0.927
		c-0.051-0.015-0.101-0.026-0.152-0.041c-1.612-0.466-3.235-0.851-4.865-1.187c-0.428-0.088-0.854-0.192-1.283-0.271
		c-0.336-0.063-0.674-0.106-1.011-0.163c-0.818-0.137-1.636-0.272-2.457-0.378c-0.279-0.036-0.559-0.06-0.839-0.093
		c-0.885-0.103-1.771-0.195-2.658-0.262c-0.243-0.018-0.486-0.029-0.73-0.045c-0.93-0.059-1.86-0.103-2.79-0.122
		c-0.211-0.005-0.422-0.006-0.632-0.008c-0.971-0.011-1.941-0.002-2.911,0.03c-0.174,0.006-0.349,0.011-0.523,0.018
		c-1.022,0.042-2.042,0.107-3.061,0.197c-0.123,0.011-0.247,0.019-0.37,0.031c-1.108,0.103-2.213,0.233-3.314,0.392
		c-0.034,0.005-0.068,0.008-0.102,0.013c-3.43,0.501-6.82,1.276-10.135,2.312c-0.325,0.102-0.646,0.216-0.969,0.323
		c-0.716,0.236-1.429,0.478-2.137,0.739c-0.466,0.172-0.928,0.356-1.39,0.538c-0.549,0.216-1.097,0.437-1.641,0.669
		c-0.54,0.231-1.077,0.469-1.611,0.715c-0.446,0.204-0.89,0.415-1.332,0.63c-0.593,0.288-1.183,0.581-1.767,0.888
		c-0.356,0.186-0.708,0.381-1.061,0.574c-0.644,0.353-1.287,0.708-1.92,1.083c-0.239,0.141-0.472,0.292-0.709,0.436
		c-3.228,1.97-6.301,4.231-9.177,6.773c-0.214,0.189-0.432,0.372-0.644,0.564c-0.551,0.5-1.088,1.019-1.623,1.539
		c-0.3,0.292-0.601,0.582-0.896,0.88c-0.477,0.482-0.944,0.976-1.407,1.474c-0.345,0.372-0.687,0.748-1.025,1.129
		c-0.413,0.465-0.821,0.936-1.222,1.416c-0.382,0.458-0.756,0.926-1.128,1.397c-0.346,0.437-0.693,0.873-1.029,1.321
		c-0.438,0.585-0.861,1.186-1.282,1.79c-0.256,0.366-0.519,0.724-0.769,1.097c-0.666,0.997-1.314,2.013-1.934,3.058
		c-0.185,0.313-20.382,32.915-61.625,69.892c-58.325,52.291-127.321,86.786-205.069,102.524c-0.03,0.006-0.059,0.014-0.089,0.02
		c-1.065,0.217-2.119,0.458-3.161,0.723c-0.381,0.097-0.753,0.214-1.131,0.318c-0.684,0.188-1.371,0.37-2.045,0.578
		c-0.445,0.138-0.878,0.296-1.318,0.443c-0.594,0.198-1.192,0.388-1.777,0.601c-0.475,0.173-0.938,0.367-1.407,0.551
		c-0.536,0.21-1.077,0.411-1.605,0.634c-0.49,0.207-0.967,0.434-1.45,0.652c-0.494,0.223-0.992,0.438-1.478,0.672
		c-0.498,0.24-0.982,0.499-1.472,0.751c-0.456,0.234-0.916,0.46-1.365,0.704c-0.506,0.275-0.999,0.569-1.496,0.857
		c-0.416,0.241-0.838,0.475-1.248,0.725c-0.51,0.311-1.007,0.64-1.508,0.964c-0.381,0.247-0.767,0.487-1.142,0.741
		c-0.513,0.348-1.012,0.712-1.514,1.074c-0.346,0.249-0.697,0.492-1.037,0.747c-0.515,0.386-1.015,0.789-1.517,1.19
		c-0.311,0.248-0.626,0.49-0.932,0.743c-0.515,0.427-1.015,0.868-1.516,1.31c-0.276,0.243-0.557,0.481-0.828,0.729
		c-0.513,0.468-1.011,0.95-1.508,1.434c-0.243,0.236-0.49,0.468-0.73,0.707c-0.508,0.509-1,1.032-1.491,1.557
		c-0.212,0.227-0.429,0.451-0.638,0.681c-0.501,0.552-0.986,1.117-1.467,1.685c-0.182,0.215-0.369,0.427-0.548,0.644
		c-0.492,0.596-0.968,1.204-1.438,1.817c-0.154,0.2-0.312,0.398-0.463,0.6c-0.479,0.64-0.943,1.291-1.398,1.948
		c-0.128,0.184-0.259,0.366-0.385,0.552c-0.464,0.683-0.911,1.378-1.349,2.078c-0.104,0.167-0.212,0.332-0.315,0.5
		c-0.445,0.726-0.873,1.463-1.289,2.206c-0.083,0.149-0.169,0.296-0.251,0.445c-0.423,0.769-0.829,1.548-1.221,2.335
		c-0.064,0.129-0.131,0.256-0.194,0.385c-0.398,0.81-0.777,1.63-1.142,2.457c-0.049,0.11-0.099,0.219-0.147,0.33
		c-0.369,0.85-0.719,1.71-1.053,2.577c-0.035,0.09-0.07,0.179-0.104,0.269c-0.337,0.889-0.655,1.786-0.953,2.691
		c-0.023,0.071-0.048,0.141-0.071,0.212c-0.302,0.924-0.583,1.856-0.843,2.795c-0.015,0.054-0.031,0.108-0.046,0.162
		c-0.263,0.956-0.504,1.919-0.723,2.889c-0.009,0.039-0.018,0.078-0.027,0.118c-0.221,0.984-0.419,1.976-0.594,2.974
		c-0.005,0.026-0.009,0.053-0.014,0.079c-0.176,1.011-0.329,2.027-0.458,3.05c-0.002,0.014-0.004,0.028-0.005,0.042
		c-0.129,1.034-0.235,2.073-0.314,3.117c0,0.004-0.001,0.008-0.001,0.012c-0.401,5.263-0.167,10.653,0.767,16.076v0.002
		c5.8,5.386,12.488,9.65,19.724,12.627c-4.996-34.125,17.523-66.587,51.735-73.511c77.748-15.738,146.743-50.233,205.069-102.524
		c41.244-36.977,61.44-69.579,61.625-69.892c16.766-28.276,51.506-39.298,81.034-27.163
		C428.835,144.72,428.762,144.176,428.669,143.636z"/>
	<path style="fill:#30AA44;" d="M35.42,387.567C276.481,338.77,384.199,161.2,388.667,153.665c4.91-8.281,7.763-17.206,8.747-26.191
		c-26.596-5.519-54.907,6.006-69.536,30.678c-0.185,0.313-20.382,32.915-61.625,69.892
		c-58.325,52.291-127.321,86.786-205.069,102.524c-28.592,5.788-49.012,29.414-52.035,56.939
		C17.901,389.327,26.725,389.328,35.42,387.567z"/>
</g>
<path style="fill:#269E35;" d="M61.095,330.588c-0.983,0.2-1.955,0.426-2.918,0.668c-0.301,0.076-0.598,0.16-0.897,0.24
	c-0.158,0.046-0.317,0.09-0.477,0.134c-0.536,0.147-1.069,0.297-1.6,0.453c-0.324,0.098-0.646,0.199-0.968,0.301
	c-0.264,0.09-0.53,0.179-0.795,0.267c-0.408,0.136-0.814,0.274-1.22,0.413c-0.284,0.101-0.57,0.199-0.853,0.304
	c-0.372,0.143-0.741,0.29-1.112,0.436c-0.444,0.174-0.888,0.346-1.328,0.525c-0.107,0.045-0.217,0.085-0.324,0.131
	c-0.473,0.201-0.936,0.42-1.402,0.631c-0.471,0.213-0.946,0.419-1.411,0.641c-0.133,0.064-0.263,0.133-0.396,0.198
	c-0.383,0.192-0.763,0.388-1.144,0.583c-0.368,0.189-0.736,0.376-1.101,0.568c-0.238,0.128-0.472,0.26-0.708,0.391
	c-0.351,0.2-0.702,0.4-1.052,0.603c-0.281,0.163-0.563,0.326-0.844,0.49c-0.233,0.139-0.465,0.279-0.696,0.421
	c-0.408,0.256-0.813,0.516-1.217,0.778c-0.259,0.168-0.518,0.336-0.777,0.504c-0.152,0.101-0.306,0.199-0.457,0.302
	c-0.48,0.328-0.95,0.669-1.422,1.008c-0.346,0.249-0.697,0.492-1.037,0.747c-0.515,0.386-1.015,0.789-1.517,1.19
	c-0.276,0.22-0.555,0.437-0.828,0.66c-0.129,0.107-0.255,0.217-0.383,0.324c-0.416,0.352-0.828,0.708-1.236,1.068
	c-0.189,0.167-0.379,0.333-0.569,0.5c-0.175,0.158-0.348,0.317-0.521,0.477c-0.42,0.391-0.836,0.785-1.247,1.185
	c-0.125,0.122-0.25,0.243-0.376,0.364c-0.162,0.16-0.325,0.319-0.485,0.48c-0.461,0.467-0.912,0.941-1.359,1.42
	c-0.212,0.227-0.429,0.451-0.638,0.681c-0.501,0.552-0.986,1.117-1.467,1.685c-0.182,0.215-0.369,0.427-0.548,0.644
	c-0.492,0.596-0.968,1.204-1.438,1.817c-0.117,0.152-0.235,0.304-0.352,0.456c-0.095,0.126-0.187,0.253-0.28,0.38
	c-0.418,0.565-0.829,1.135-1.229,1.712c-0.044,0.063-0.088,0.126-0.132,0.189c-0.13,0.189-0.26,0.38-0.388,0.57
	c-0.406,0.605-0.804,1.216-1.19,1.834c-0.127,0.202-0.255,0.404-0.38,0.607c-0.43,0.703-0.845,1.416-1.248,2.135
	c-0.083,0.149-0.169,0.296-0.251,0.445c-0.423,0.769-0.829,1.548-1.221,2.335c-0.064,0.129-0.131,0.256-0.194,0.385
	c-0.398,0.81-0.777,1.63-1.142,2.457c-0.013,0.03-0.026,0.059-0.039,0.089c-0.066,0.149-0.128,0.3-0.193,0.45
	c-0.319,0.743-0.626,1.493-0.919,2.249c-0.071,0.183-0.141,0.366-0.21,0.549c-0.303,0.805-0.591,1.616-0.862,2.434
	c-0.036,0.107-0.074,0.213-0.109,0.321c-0.3,0.92-0.58,1.848-0.84,2.783c-0.015,0.054-0.031,0.108-0.046,0.162
	c-0.263,0.956-0.504,1.919-0.723,2.889c-0.009,0.039-0.018,0.078-0.027,0.118c-0.213,0.951-0.404,1.91-0.574,2.873
	c-0.02,0.114-0.039,0.228-0.058,0.342c-0.156,0.908-0.293,1.82-0.411,2.737c-0.012,0.096-0.026,0.192-0.037,0.288
	c-0.037,0.297-0.058,0.597-0.09,0.895c7.653,1.589,15.361,1.787,22.99,0.632c7.2-21.406,25.293-38.498,49.022-43.301
	c77.748-15.738,146.743-50.233,205.069-102.524c41.244-36.977,61.44-69.579,61.625-69.892
	c10.421-17.576,27.787-28.479,46.529-31.305c1.504-4.482,2.502-9.056,3.005-13.647c-0.005-0.001-0.01-0.002-0.016-0.003
	c-0.821-0.17-1.644-0.324-2.468-0.462c-0.027-0.004-0.054-0.008-0.08-0.012c-1.386-0.23-2.776-0.405-4.167-0.545
	c-0.34-0.035-0.68-0.071-1.02-0.1c-0.574-0.048-1.148-0.085-1.721-0.118c-0.511-0.03-1.022-0.049-1.534-0.067
	c-0.484-0.017-0.968-0.038-1.452-0.043c-0.931-0.01-1.862,0-2.791,0.029c-0.398,0.012-0.795,0.036-1.193,0.056
	c-0.675,0.033-1.349,0.076-2.023,0.13c-0.385,0.031-0.771,0.061-1.156,0.098c-0.972,0.095-1.942,0.206-2.908,0.344
	c-0.618,0.088-1.232,0.194-1.847,0.299c-0.22,0.038-0.442,0.07-0.662,0.11c-0.545,0.1-1.086,0.214-1.628,0.328
	c-0.294,0.062-0.589,0.118-0.882,0.183c-0.494,0.11-0.985,0.234-1.476,0.356c-0.335,0.083-0.672,0.162-1.006,0.251
	c-0.485,0.128-0.968,0.269-1.45,0.408c-0.324,0.094-0.649,0.184-0.972,0.283c-0.5,0.153-0.997,0.317-1.494,0.482
	c-0.477,0.158-0.952,0.325-1.426,0.493c-0.372,0.133-0.743,0.267-1.113,0.406c-0.29,0.112-0.58,0.223-0.869,0.337
	c-0.31,0.122-0.618,0.251-0.926,0.378c-0.247,0.102-0.496,0.198-0.741,0.303c-0.328,0.14-0.653,0.288-0.979,0.434
	c-0.318,0.142-0.635,0.285-0.951,0.432c-0.318,0.148-0.636,0.297-0.952,0.45c-0.251,0.122-0.5,0.25-0.749,0.375
	c-0.351,0.175-0.704,0.346-1.052,0.528c-0.173,0.09-0.343,0.185-0.515,0.279c-0.289,0.155-0.575,0.315-0.861,0.474
	c-0.41,0.226-0.818,0.456-1.224,0.691c-0.399,0.233-0.793,0.473-1.188,0.714c-3.192,1.955-6.232,4.194-9.079,6.71
	c-0.058,0.052-0.117,0.103-0.175,0.154c-0.265,0.236-0.528,0.475-0.79,0.716c-0.438,0.406-0.872,0.817-1.301,1.234
	c-0.3,0.292-0.601,0.582-0.896,0.88c-0.477,0.482-0.944,0.976-1.407,1.474c-0.345,0.372-0.687,0.748-1.025,1.129
	c-0.413,0.465-0.821,0.936-1.222,1.416c-0.382,0.458-0.756,0.926-1.128,1.397c-0.335,0.423-0.67,0.846-0.996,1.279
	c-0.031,0.041-0.061,0.083-0.091,0.124c-0.417,0.56-0.822,1.132-1.224,1.708c-0.177,0.253-0.355,0.506-0.532,0.76
	c-0.115,0.17-0.232,0.339-0.345,0.51c-0.627,0.943-1.24,1.899-1.825,2.886c-0.087,0.147-4.571,7.388-13.559,18.849
	c-2.396,3.056-5.114,6.413-8.153,10.014c-0.76,0.9-1.54,1.816-2.34,2.746c-8.001,9.303-18.02,20.056-30.087,31.407
	c-2.413,2.27-4.91,4.565-7.487,6.875c-27.34,24.512-57.025,45.113-88.855,61.704c-4.244,2.212-8.527,4.354-12.846,6.423
	c-4.319,2.069-8.678,4.067-13.072,5.994c-4.396,1.926-8.827,3.78-13.297,5.564c-4.47,1.782-8.975,3.493-13.517,5.132
	c-20.439,7.372-41.614,13.283-63.48,17.709C61.154,330.573,61.125,330.581,61.095,330.588z"/>
<path d="M328.778,142.641c-6.064,6.714-70.407,118.9-221.444,167.786c-45.825,14.834-52.612,10.252-71.795,21.611
	C8.961,347.829-4.685,378.785,1.456,409.124c7.862,38.845,45.988,65.063,85.908,56.985c80.285-16.252,154.327-48.28,220.067-95.194
	c3.372-2.406,4.154-7.091,1.748-10.462c-2.405-3.372-7.091-4.156-10.462-1.749c-64.013,45.681-136.124,76.87-214.331,92.702
	c-3.814,0.772-7.702,1.164-11.554,1.164c-20.677,0-39.322-11.126-49.566-28.148c13.528,6.064,28.918,7.97,44.2,4.877
	c244.249-49.443,353.672-229.775,358.21-237.427c0,0,0,0,0-0.001c4.708-7.94,7.808-16.653,9.246-25.643
	c8.178,16.908,8.022,37.471-2.252,54.802c-1.418,2.39-35.533,59.191-106.459,116.742c-3.217,2.61-3.708,7.334-1.099,10.55
	c2.61,3.216,7.333,3.708,10.551,1.098c71.752-58.222,106.216-114.511,109.91-120.74c16.632-28.055,12.227-62.843-8.495-85.919
	c2.045-5.515,4.413-10.962,7.092-16.24c1.875-3.694,0.4-8.209-3.293-10.084c-3.692-1.875-8.208-0.4-10.083,3.292
	c-2.054,4.046-3.949,8.183-5.672,12.374c-4.473-3.188-9.525-5.95-14.39-7.96c12.417-22.464,32.316-46.74,63.151-58.288
	c-7.213,5.939-15.172,13.568-23.067,23.202c-2.626,3.204-2.157,7.93,1.047,10.556c3.202,2.624,7.93,2.158,10.556-1.047
	c15.398-18.787,32.913-31.057,44.169-36.273c9.436-4.373,5.679-18.684-4.725-17.831c-36.153,2.98-62.31,19.624-81.035,39.881
	c-0.064,0.059-0.131,0.113-0.193,0.175C406.55,98.61,370.86,91.274,370.86,68.369c0-4.142-3.357-7.501-7.501-7.501
	s-7.501,3.358-7.501,7.501c0,24.515,23.565,39.643,47.88,38.222c-2.838,4.432-5.4,8.863-7.706,13.216
	C370.494,115.153,345.246,124.405,328.778,142.641z M61.416,337.919c79.013-15.995,149.207-51.053,208.587-104.291
	c62.379-55.927,59.364-79.215,85.588-93.174c9.735-5.183,20.823-7.511,31.874-6.65c-1.339,5.621-3.516,10.991-6.506,16.034
	c-4.399,7.418-110.454,182.233-348.283,230.377c-5.298,1.072-10.679,1.414-16.062,0.982
	C21.863,359.399,39.236,342.409,61.416,337.919z M420.398,147.437c1.614,12.736-1.057,25.704-7.624,36.78
	c-4.399,7.418-110.489,182.24-348.283,230.377c-17.28,3.498-35.253-0.956-49.009-12.667c-0.231-1.795-0.393-3.764-0.445-5.828
	c6.803,0.582,13.536,0.254,20.614-1.179c244.284-49.45,353.674-229.776,358.21-237.428c3.832-6.463,6.586-13.36,8.265-20.577
	C408.825,139.274,414.983,142.826,420.398,147.437z"/>
<g>
</g>
<g>
</g>
<g>
</g>
<g>
</g>
<g>
</g>
<g>
</g>
<g>
</g>
<g>
</g>
<g>
</g>
<g>
</g>
<g>
</g>
<g>
</g>
<g>
</g>
<g>
</g>
<g>
</g>
</svg>
