<svg id="Capa_1" enable-background="new 0 0 512 512" height="512" viewBox="0 0 512 512" width="512" xmlns="http://www.w3.org/2000/svg"><g><g><path d="m256 7.5c-137.24 0-248.5 111.26-248.5 248.5s111.26 248.5 248.5 248.5 248.5-111.26 248.5-248.5-111.26-248.5-248.5-248.5zm0 315.4c-36.95 0-66.9-29.95-66.9-66.9s29.95-66.9 66.9-66.9 66.9 29.95 66.9 66.9-29.95 66.9-66.9 66.9z" fill="#f2d59c"/><g><path d="m256 7.5c-5.038 0-10.036.168-15 .463 130.254 7.759 233.5 115.835 233.5 248.037s-103.246 240.278-233.5 248.037c4.964.295 9.962.463 15 .463 137.24 0 248.5-111.26 248.5-248.5s-111.26-248.5-248.5-248.5z" fill="#ecc372"/></g><g><path d="m434.35 291.49c2.39-12.11 23.46-22.68 23.46-35.49s-21.07-23.38-23.46-35.49c-2.47-12.47 12.9-30.28 8.14-41.76-4.84-11.68-28.35-13.38-35.3-23.76-7-10.46.38-32.82-8.49-41.69s-31.23-1.49-41.69-8.49c-10.38-6.95-12.08-30.46-23.76-35.3-11.48-4.76-29.29 10.61-41.76 8.14-12.11-2.39-22.68-23.46-35.49-23.46s-23.38 21.07-35.49 23.46c-12.47 2.47-30.28-12.9-41.76-8.14-11.68 4.84-13.38 28.35-23.76 35.3-10.46 7-32.82-.38-41.69 8.49s-1.49 31.23-8.49 41.69c-6.95 10.38-30.46 12.08-35.3 23.76-4.76 11.48 10.61 29.29 8.14 41.76-2.39 12.11-23.46 22.68-23.46 35.49s21.07 23.38 23.46 35.49c2.47 12.47-12.9 30.28-8.14 41.76 4.84 11.68 28.35 13.38 35.3 23.76 7 10.46-.38 32.82 8.49 41.69s31.23 1.49 41.69 8.49c10.38 6.95 12.08 30.46 23.76 35.3 11.48 4.76 29.29-10.61 41.76-8.14 12.11 2.39 22.68 23.46 35.49 23.46s23.38-21.07 35.49-23.46c12.47-2.47 30.28 12.9 41.76 8.14 11.68-4.84 13.38-28.35 23.76-35.3 10.46-7 32.82.38 41.69-8.49s1.49-31.23 8.49-41.69c6.95-10.38 30.46-12.08 35.3-23.76 4.76-11.48-10.61-29.29-8.14-41.76zm-178.35 31.41c-36.95 0-66.9-29.95-66.9-66.9s29.95-66.9 66.9-66.9 66.9 29.95 66.9 66.9-29.95 66.9-66.9 66.9z" fill="#e490b7"/></g><g><path d="m434.35 291.49c2.39-12.11 23.46-22.68 23.46-35.49s-21.07-23.38-23.46-35.49c-2.47-12.47 12.9-30.28 8.14-41.76-4.84-11.68-28.35-13.38-35.3-23.76-7-10.46.38-32.82-8.49-41.69s-31.23-1.49-41.69-8.49c-10.38-6.95-12.08-30.46-23.76-35.3-10.022-4.155-24.867 7.028-36.773 8.293 5.216 9.016 8.224 22.113 15.533 27.007 10.46 7 32.82-.38 41.69 8.49s1.49 31.23 8.49 41.69c6.95 10.38 30.46 12.08 35.3 23.76 4.76 11.48-10.61 29.29-8.14 41.76 2.39 12.11 23.46 22.68 23.46 35.49s-21.07 23.38-23.46 35.49c-2.47 12.47 12.9 30.28 8.14 41.76-4.84 11.68-28.35 13.38-35.3 23.76-7 10.46.38 32.82-8.49 41.69s-31.23 1.49-41.69 8.49c-7.309 4.894-10.317 17.991-15.533 27.007 11.906 1.265 26.751 12.449 36.773 8.293 11.68-4.84 13.38-28.35 23.76-35.3 10.46-7 32.82.38 41.69-8.49s1.49-31.23 8.49-41.69c6.95-10.38 30.46-12.08 35.3-23.76 4.76-11.48-10.61-29.29-8.14-41.76z" fill="#df75a5"/></g></g><path d="m289.639 139.436 13.348-13.348c2.929-2.929 2.929-7.678 0-10.606-2.929-2.929-7.678-2.929-10.606 0l-13.348 13.348c-2.929 2.929-2.929 7.678 0 10.606 2.928 2.928 7.677 2.928 10.606 0zm-132.259 21.045-13.348 13.348c-2.929 2.929-2.929 7.678 0 10.606 2.929 2.929 7.678 2.929 10.606 0l13.348-13.348c2.929-2.929 2.929-7.678 0-10.606-2.928-2.929-7.677-2.929-10.606 0zm333.953-5.413c-1.634-3.806-6.044-5.565-9.851-3.932-3.806 1.635-5.566 6.045-3.932 9.851 12.906 30.054 19.45 62.021 19.45 95.013 0 64.374-25.068 124.894-70.587 170.413s-106.039 70.587-170.413 70.587-124.894-25.068-170.413-70.587-70.587-106.039-70.587-170.413 25.068-124.894 70.587-170.413 106.039-70.587 170.413-70.587c42.082 0 83.501 11.005 119.779 31.825 35.201 20.202 64.982 49.203 86.125 83.869 2.156 3.536 6.771 4.654 10.308 2.498 3.536-2.157 4.655-6.772 2.498-10.308-22.453-36.814-54.082-67.614-91.465-89.068-38.547-22.123-82.547-33.816-127.245-33.816-68.38 0-132.667 26.629-181.02 74.98-48.351 48.353-74.98 112.64-74.98 181.02s26.629 132.667 74.98 181.02c48.353 48.351 112.64 74.98 181.02 74.98s132.667-26.629 181.02-74.98c48.351-48.353 74.98-112.64 74.98-181.02 0-35.039-6.954-68.997-20.667-100.932zm-273.606-15.632c2.929 2.929 7.677 2.929 10.606 0s2.929-7.678 0-10.606l-13.348-13.348c-2.929-2.929-7.678-2.929-10.606 0-2.929 2.929-2.929 7.678 0 10.606zm-29.796 204.337c-2.929-2.93-7.678-2.929-10.606 0-2.929 2.929-2.929 7.678 0 10.606l13.349 13.348c2.929 2.93 7.678 2.929 10.606 0 2.929-2.929 2.929-7.678 0-10.606zm-45.551-48.292-13.348 13.348c-2.929 2.929-2.929 7.678 0 10.606 2.929 2.929 7.678 2.929 10.606 0l13.348-13.348c2.929-2.929 2.929-7.678 0-10.606-2.928-2.929-7.677-2.929-10.606 0zm-6.877-44.372c2.929-2.929 2.929-7.678 0-10.606l-13.348-13.348c-2.929-2.929-7.678-2.929-10.606 0-2.929 2.929-2.929 7.678 0 10.606l13.348 13.348c2.929 2.929 7.677 2.929 10.606 0zm244.136-30.628c-2.929-2.929-7.678-2.929-10.606 0-2.929 2.929-2.929 7.678 0 10.606l13.348 13.348c2.929 2.929 7.677 2.929 10.606 0s2.929-7.678 0-10.606zm71.531 59.977c6.627-6.823 14.139-14.556 14.139-24.458s-7.512-17.635-14.139-24.458c-4.116-4.238-8.782-9.041-9.463-12.487-.735-3.715 1.803-10.116 4.042-15.763 3.446-8.69 7.352-18.541 3.672-27.415-3.745-9.032-13.583-13.267-22.263-17.003-5.493-2.365-11.718-5.044-13.733-8.055-2.056-3.07-2.162-9.898-2.256-15.922-.146-9.397-.313-20.048-7.165-26.901-6.853-6.852-17.503-7.019-26.901-7.165-6.024-.094-12.852-.201-15.922-2.256-3.011-2.016-5.69-8.241-8.055-13.733-3.736-8.68-7.971-18.517-17.002-22.262-8.877-3.683-18.726.225-27.416 3.672-5.647 2.239-12.051 4.775-15.763 4.042-3.446-.682-8.249-5.347-12.487-9.464-6.823-6.627-14.556-14.139-24.458-14.139s-17.635 7.512-24.458 14.139c-4.238 4.116-9.041 8.782-12.487 9.463-3.715.733-10.116-1.804-15.763-4.042-8.691-3.447-18.542-7.351-27.415-3.672-9.032 3.745-13.267 13.583-17.003 22.263-2.365 5.493-5.044 11.718-8.055 13.733-3.07 2.056-9.898 2.162-15.922 2.256-9.397.146-20.048.313-26.901 7.165-6.852 6.853-7.019 17.503-7.165 26.901-.094 6.024-.201 12.852-2.256 15.922-2.016 3.011-8.241 5.69-13.733 8.055-8.68 3.736-18.517 7.971-22.262 17.002-3.68 8.875.226 18.725 3.672 27.416 2.239 5.646 4.777 12.047 4.042 15.763-.682 3.446-5.347 8.249-9.464 12.487-6.627 6.823-14.139 14.556-14.139 24.458s7.512 17.635 14.139 24.458c4.116 4.238 8.782 9.041 9.463 12.487.735 3.715-1.803 10.116-4.042 15.763-3.446 8.69-7.352 18.541-3.672 27.415 3.745 9.032 13.583 13.267 22.263 17.003 5.493 2.365 11.718 5.044 13.733 8.055 2.056 3.07 2.162 9.898 2.256 15.922.146 9.397.313 20.048 7.165 26.901 6.853 6.852 17.503 7.019 26.901 7.165 6.024.094 12.852.201 15.922 2.256 3.011 2.016 5.69 8.241 8.055 13.733 3.736 8.68 7.971 18.517 17.002 22.262 8.875 3.681 18.726-.226 27.416-3.672 5.646-2.24 12.047-4.778 15.763-4.042 3.446.682 8.249 5.347 12.487 9.464 6.823 6.627 14.556 14.139 24.458 14.139s17.635-7.512 24.458-14.139c4.238-4.116 9.041-8.782 12.487-9.463 3.712-.735 10.116 1.803 15.763 4.042 8.691 3.446 18.541 7.349 27.415 3.672 9.032-3.745 13.267-13.583 17.003-22.263 2.365-5.493 5.044-11.718 8.055-13.733 3.07-2.056 9.898-2.162 15.922-2.256 9.397-.146 20.048-.313 26.901-7.165 6.852-6.853 7.019-17.503 7.165-26.901.094-6.024.201-12.852 2.256-15.922 2.016-3.011 8.241-5.69 13.733-8.055 8.68-3.736 18.517-7.971 22.262-17.002 3.68-8.875-.226-18.725-3.672-27.416-2.239-5.646-4.777-12.047-4.042-15.763.682-3.446 5.348-8.249 9.464-12.487zm-10.759-10.452c-5.839 6.011-11.876 12.227-13.419 20.028-1.592 8.049 1.664 16.261 4.813 24.203 2.395 6.04 5.11 12.886 3.76 16.141-1.413 3.407-8.28 6.363-14.338 8.971-7.761 3.341-15.787 6.796-20.267 13.488-4.52 6.751-4.657 15.537-4.79 24.033-.102 6.55-.218 13.973-2.773 16.529-2.556 2.555-9.979 2.671-16.528 2.773-8.496.132-17.282.269-24.033 4.789-6.692 4.48-10.146 12.505-13.487 20.267-2.608 6.058-5.564 12.925-8.971 14.338-3.251 1.349-10.1-1.365-16.14-3.76-7.94-3.149-16.148-6.406-24.203-4.813-7.801 1.543-14.016 7.58-20.027 13.418-4.777 4.64-10.191 9.899-14.007 9.899s-9.229-5.259-14.006-9.898c-6.011-5.839-12.227-11.876-20.028-13.419-1.457-.288-2.917-.417-4.382-.417-6.629 0-13.316 2.651-19.82 5.23-6.041 2.395-12.887 5.107-16.141 3.76-3.407-1.413-6.363-8.28-8.971-14.338-3.341-7.761-6.796-15.787-13.488-20.267-6.751-4.52-15.537-4.657-24.033-4.79-6.55-.102-13.973-.218-16.529-2.773-2.555-2.556-2.671-9.979-2.773-16.528-.132-8.496-.269-17.282-4.789-24.033-4.48-6.692-12.505-10.146-20.267-13.487-6.058-2.608-12.925-5.564-14.338-8.971-1.35-3.255 1.365-10.101 3.76-16.14 3.149-7.942 6.406-16.154 4.813-24.203-1.543-7.801-7.58-14.016-13.418-20.027-4.64-4.777-9.899-10.191-9.899-14.007s5.259-9.229 9.898-14.006c5.839-6.011 11.876-12.227 13.419-20.028 1.592-8.049-1.664-16.261-4.813-24.203-2.395-6.04-5.11-12.886-3.76-16.141 1.413-3.407 8.28-6.363 14.338-8.971 7.761-3.341 15.787-6.796 20.267-13.488 4.52-6.751 4.657-15.537 4.79-24.033.102-6.55.218-13.973 2.773-16.529 2.556-2.555 9.979-2.671 16.528-2.773 8.496-.132 17.282-.269 24.033-4.789 6.692-4.48 10.146-12.505 13.487-20.267 2.608-6.058 5.564-12.925 8.971-14.338 3.253-1.346 10.1 1.365 16.14 3.76 7.941 3.149 16.15 6.406 24.203 4.813 7.801-1.543 14.016-7.58 20.027-13.418 4.777-4.64 10.191-9.899 14.007-9.899s9.229 5.259 14.006 9.898c6.011 5.839 12.227 11.876 20.028 13.419 8.051 1.593 16.261-1.664 24.203-4.813 6.04-2.396 12.885-5.109 16.141-3.76 3.407 1.413 6.363 8.28 8.971 14.338 3.341 7.761 6.796 15.787 13.488 20.267 6.751 4.52 15.537 4.657 24.033 4.79 6.55.102 13.973.218 16.529 2.773 2.555 2.556 2.671 9.979 2.773 16.528.132 8.496.269 17.282 4.789 24.033 4.48 6.692 12.505 10.146 20.267 13.487 6.058 2.608 12.925 5.564 14.338 8.971 1.35 3.255-1.365 10.101-3.76 16.14-3.149 7.942-6.406 16.154-4.813 24.203 1.543 7.801 7.58 14.016 13.418 20.027 4.64 4.777 9.899 10.191 9.899 14.007s-5.26 9.229-9.899 14.006zm-73.031 25.475-13.348 13.348c-2.929 2.929-2.929 7.678 0 10.606 2.929 2.929 7.678 2.929 10.606 0l13.348-13.348c2.929-2.929 2.929-7.678 0-10.606-2.928-2.929-7.677-2.929-10.606 0zm-10.226-116.878c2.929-2.929 2.929-7.678 0-10.606l-13.348-13.348c-2.929-2.929-7.678-2.929-10.606 0-2.929 2.929-2.929 7.678 0 10.606l13.348 13.348c2.928 2.928 7.677 2.928 10.606 0zm-101.154 2.998c-8.98 0-17.763 1.585-26.104 4.71-3.879 1.454-5.845 5.776-4.391 9.655 1.453 3.879 5.777 5.846 9.655 4.391 6.651-2.493 13.663-3.756 20.84-3.756 32.752 0 59.399 26.646 59.399 59.399s-26.647 59.399-59.399 59.399-59.399-26.647-59.399-59.399c0-13.589 4.706-26.871 13.25-37.399 2.61-3.216 2.119-7.94-1.098-10.55s-7.939-2.119-10.55 1.098c-10.706 13.193-16.602 29.832-16.602 46.852 0 41.024 33.375 74.399 74.399 74.399s74.399-33.375 74.399-74.399-33.375-74.4-74.399-74.4zm65.528 162.172c-2.929-2.929-7.678-2.929-10.606 0-2.929 2.929-2.929 7.678 0 10.606l13.348 13.348c2.929 2.929 7.677 2.929 10.606 0s2.929-7.678 0-10.606zm-59.148 26.708-13.348 13.348c-2.929 2.929-2.929 7.678 0 10.606 2.929 2.929 7.678 2.929 10.606 0l13.348-13.348c2.929-2.929 2.929-7.678 0-10.606-2.928-2.929-7.677-2.929-10.606 0z"/></g></svg>