<svg id="Capa_1" enable-background="new 0 0 512.001 512.001" height="512" viewBox="0 0 512.001 512.001" width="512" xmlns="http://www.w3.org/2000/svg"><g><path d="m448.846 400.649v-197.012h-385.691v197.012c0 16.169-6.71 31.786-18.964 42.334-14.694 12.648-24 31.382-24.006 52.289-.001 5.09 4.118 9.228 9.208 9.228h453.215c5.09 0 9.21-4.138 9.208-9.228-.006-20.908-9.312-39.641-24.006-52.289-12.254-10.548-18.964-26.165-18.964-42.334z" fill="#e27d47"/><path d="m467.81 442.984c-12.255-10.548-18.964-26.165-18.964-42.334v-197.013h-40v177.113c0 16.14 6.732 31.704 18.964 42.234.224.193.447.388.669.584 24.029 21.225 8.888 60.934-23.172 60.934h-384.283c-.551 3.51-.838 7.107-.839 10.772-.001 5.09 4.118 9.228 9.208 9.228h453.215c5.09 0 9.21-4.138 9.208-9.228-.005-20.909-9.311-39.642-24.006-52.29z" fill="#dd6938"/><path d="m451.759 203.637h-391.517c-8.363 0-15.143-6.78-15.143-15.143v-46.51c0-8.363 6.78-15.143 15.143-15.143h391.518c8.363 0 15.143 6.78 15.143 15.143v46.51c-.001 8.364-6.78 15.143-15.144 15.143z" fill="#eaaa89"/><path d="m451.759 126.842h-24.857v11.538c0 24.995-20.262 45.257-45.257 45.257h-336.546v4.857c0 8.363 6.78 15.143 15.143 15.143h391.518c8.363 0 15.143-6.78 15.143-15.143v-46.51c-.001-8.362-6.781-15.142-15.144-15.142z" fill="#e4936b"/><path d="m78.538 126.842c0-14.816 16.882-26.002 24.213-39.047 6.974-12.41 6.464-31.65 18.826-41.602 11.273-9.076 31.825-6.274 46.611-12.643 13.596-5.856 24.259-22.529 40.076-25.583 14.742-2.846 31.668 8.31 47.738 8.31 16.069 0 32.994-11.157 47.735-8.31 15.817 3.054 26.48 19.727 40.076 25.583 14.788 6.369 35.341 3.568 46.615 12.645 12.362 9.953 11.852 29.192 18.826 41.603 7.33 13.045 24.212 24.23 24.212 39.046h-354.928z" fill="#fffbe4"/><path d="m409.252 87.797c-6.974-12.411-6.464-31.65-18.826-41.603-7.79-6.272-20.011-6.873-31.698-8.747 4.446 9.81 5.679 21.727 10.524 30.349 1.149 2.044 2.532 4.043 4.049 6.017 10.371 13.503.798 33.028-16.227 33.028h-269.332c-5.067 6.221-9.204 12.666-9.204 20h354.926c0-14.815-16.882-26-24.212-39.044z" fill="#fff9d0"/><path d="m49.084 448.668c13.709-11.799 21.571-29.302 21.571-48.019v-72.473c0-4.142-3.357-7.5-7.5-7.5s-7.5 3.358-7.5 7.5v72.473c0 14.344-5.962 27.703-16.356 36.65-16.906 14.552-26.607 35.681-26.614 57.972-.001 4.463 1.733 8.661 4.884 11.82 3.157 3.166 7.356 4.91 11.825 4.91h453.215c4.469 0 8.668-1.744 11.825-4.91 3.15-3.16 4.885-7.357 4.884-11.821-.007-22.29-9.708-43.419-26.614-57.971-10.395-8.948-16.356-22.306-16.356-36.65v-189.979c10.294-2.126 18.056-11.261 18.056-22.176v-46.51c0-12.485-10.157-22.643-22.643-22.643h-11.838c-3.986-14.326-18.229-24.714-24.132-35.219-6.309-11.233-5.996-31.964-20.66-43.771-13.428-10.811-34.679-7.803-48.352-13.691-12.091-5.208-23.427-22.546-41.621-26.058-17.195-3.321-34.493 8.174-49.156 8.174-14.67 0-31.949-11.496-49.159-8.174-18.132 3.501-29.605 20.883-41.621 26.059-13.674 5.89-34.921 2.88-48.348 13.69-14.674 11.814-14.332 32.506-20.66 43.769-5.909 10.512-20.146 20.894-24.133 35.222h-11.839c-12.485 0-22.643 10.157-22.643 22.643v46.51c0 10.914 7.762 20.049 18.056 22.176v82.506c0 4.142 3.357 7.5 7.5 7.5s7.5-3.358 7.5-7.5v-82.039h370.691v189.512c0 18.717 7.862 36.219 21.571 48.019 13.594 11.701 21.394 28.688 21.399 46.606 0 .594-.275.995-.506 1.226-.229.229-.622.501-1.203.501h-453.214c-.581 0-.975-.272-1.203-.501-.23-.231-.506-.632-.506-1.225.006-17.92 7.806-34.907 21.4-46.608zm60.205-357.199c7.437-13.235 7.12-31.486 16.99-39.434 8.939-7.196 29.291-4.884 44.875-11.597 14.825-6.385 25.327-22.558 38.531-25.107 12.185-2.352 28.967 8.446 46.315 8.446 17.224 0 34.199-10.786 46.312-8.446 13.206 2.549 23.697 18.717 38.531 25.106 15.598 6.718 35.932 4.396 44.879 11.599 9.875 7.951 9.54 26.176 16.99 39.436 5.774 10.273 16.586 19.298 21.115 27.871h-235.817c-4.143 0-7.5 3.358-7.5 7.5s3.357 7.5 7.5 7.5h223.116c2.081 0 4.5 3.338 4.5 7.643v11.51c0 4.142 3.357 7.5 7.5 7.5s7.5-3.358 7.5-7.5v-11.51c0-2.681-.404-5.254-1.144-7.643h22.276c4.214 0 7.643 3.428 7.643 7.643v46.51c0 4.214-3.429 7.643-7.643 7.643h-22.276c.74-2.389 1.144-4.962 1.144-7.643 0-4.142-3.357-7.5-7.5-7.5s-7.5 3.358-7.5 7.5c0 4.304-2.419 7.643-4.5 7.643h-310.251c-2.081 0-4.5-3.338-4.5-7.643v-46.51c0-4.304 2.419-7.643 4.5-7.643h52.136c4.143 0 7.5-3.358 7.5-7.5s-3.357-7.5-7.5-7.5h-64.839c4.547-8.608 15.281-17.491 21.117-27.874zm-56.69 97.025v-46.51c0-4.214 3.429-7.643 7.643-7.643h22.276c-.74 2.389-1.144 4.962-1.144 7.643v46.51c0 2.681.404 5.254 1.144 7.643h-22.276c-4.214 0-7.643-3.428-7.643-7.643z"/><path d="m153.01 257.116h-41.542c-4.143 0-7.5 3.358-7.5 7.5s3.357 7.5 7.5 7.5h41.542c4.143 0 7.5-3.358 7.5-7.5s-3.357-7.5-7.5-7.5z"/><path d="m111.468 417.514h20.771c4.143 0 7.5-3.358 7.5-7.5s-3.357-7.5-7.5-7.5h-20.771c-4.143 0-7.5 3.358-7.5 7.5s3.358 7.5 7.5 7.5z"/><path d="m365.338 385.781c0 4.142 3.357 7.5 7.5 7.5h27.695c4.143 0 7.5-3.358 7.5-7.5s-3.357-7.5-7.5-7.5h-27.695c-4.143 0-7.5 3.358-7.5 7.5z"/><path d="m253.404 340.306h-89.143c-4.143 0-7.5 3.358-7.5 7.5s3.357 7.5 7.5 7.5h89.143c4.143 0 7.5-3.358 7.5-7.5s-3.357-7.5-7.5-7.5z"/><path d="m250.231 434.246c0 4.142 3.357 7.5 7.5 7.5h125.492c4.143 0 7.5-3.358 7.5-7.5s-3.357-7.5-7.5-7.5h-125.492c-4.142 0-7.5 3.358-7.5 7.5z"/><path d="m342.547 300.676c4.143 0 7.5-3.358 7.5-7.5s-3.357-7.5-7.5-7.5h-61.447c-4.143 0-7.5 3.358-7.5 7.5s3.357 7.5 7.5 7.5z"/><path d="m379.714 260.892h13.943c4.143 0 7.5-3.358 7.5-7.5s-3.357-7.5-7.5-7.5h-13.943c-4.143 0-7.5 3.358-7.5 7.5s3.357 7.5 7.5 7.5z"/><circle cx="351.73" cy="67.754" r="7.5"/><circle cx="155.212" cy="96.084" r="7.5"/><circle cx="188.248" cy="67.172" r="7.5"/><circle cx="240.765" cy="96.084" r="7.5"/><circle cx="296.248" cy="49.672" r="7.5"/><circle cx="374.177" cy="95.584" r="7.5"/></g></svg>