<svg id="Layer_1" height="512" viewBox="0 0 512 512" width="512" xmlns="http://www.w3.org/2000/svg" data-name="Layer 1"><path d="m237.82 100.7c-.38 36.92-1.84 76.46-6.04 90.9-2.2 7.53-5.84 18.49-9.99 30.53-9.46 27.37-21.61 60.33-25.64 71.3-18.95 51.55-26.11 130.72 0 170.56q1.275 1.95 2.62 3.79l-.08.06c-37.11 19.81-88.05 4.28-104.68-39.47q-.87-2.31-1.62-4.71c-14.24-45.99 13.65-116.95 64.45-162.06 22.39-19.89 48.32-57.53 59.74-79.64a168.058 168.058 0 0 0 10.67-25.67c4.76-14.64 8.51-32.53 10.57-55.59z" fill="#fff5cc"/><path d="m114.01 428.37q-.87-2.31-1.62-4.71c-14.24-45.99 13.65-116.95 64.45-162.06 19.89-17.669 42.565-49.337 55.388-71.691 3.856-15.643 5.226-53.637 5.592-89.209-2.06 23.06-5.81 40.95-10.57 55.59a168.058 168.058 0 0 1 -10.67 25.67c-11.42 22.11-37.35 59.75-59.74 79.64-50.8 45.11-78.69 116.07-64.45 162.06q.75 2.4 1.62 4.71c13.173 34.655 47.871 51.581 80.174 47.284-25.648-3.403-49.707-19.748-60.174-47.284z" fill="#efecb4"/><path d="m318.11 293.43c34.21 58.7 25.69 129.85 0 170.56q-2.61 4.14-5.46 7.81c-32.14 41.63-83.98 37.37-113.88-4.02q-1.35-1.845-2.62-3.79c-26.11-39.84-18.95-119.01 0-170.56 4.03-10.97 16.18-43.93 25.64-71.3 21.78-60.22 42.38-76.28 51.04-152.54.25 8.31.51 17.05.77 25.91 1.18 38.83 2.46 79.83 3.17 96.1 2.24 51.47 26.26 75.95 41.34 101.83z" fill="#fff5cc"/><path d="m238.77 467.78q-1.35-1.845-2.62-3.79c-26.11-39.84-18.95-119.01 0-170.56 4.03-10.97 16.18-43.93 25.64-71.3 5.026-13.9 9.99-25.442 14.759-35.919-.736-18.788-1.883-55.632-2.949-90.711-.26-8.86-.52-17.6-.77-25.91-8.66 76.26-29.26 92.32-51.04 152.54-9.46 27.37-21.61 60.33-25.64 71.3-18.95 51.55-26.11 130.72 0 170.56q1.275 1.95 2.62 3.79c20.517 28.4 51.365 39.318 79.089 29.922-14.586-4.84-28.273-14.95-39.089-29.922z" fill="#efecb4"/><path d="m227.25 156.29a168.058 168.058 0 0 1 -10.67 25.67c-11.42 22.11-37.35 59.75-59.74 79.64-50.8 45.11-78.69 116.07-64.45 162.06q.75 2.4 1.62 4.71l-.2.08a73.475 73.475 0 0 1 -32.31-51.69c-6.66-47.67 15-100.77 84.01-139.73 22.15-12.51 60.71-36.93 81.74-80.74z" fill="#fff5cc"/><g opacity=".5"><path d="m139.928 324.058a231.673 231.673 0 0 1 4.09-86.166c-67.823 38.88-89.13 91.551-82.518 138.874a73.475 73.475 0 0 0 32.31 51.69l.2-.08c16.63 43.75 67.57 59.28 104.68 39.47l.08-.06c20.384 28.218 50.965 39.171 78.549 30.1-69.307-20.852-125.541-87.943-137.391-173.828z" fill="#b7b391"/></g><path d="m353.37 265.83c50.8 45.11 78.68 116.07 64.44 162.06-.04.13-.08.27-.13.4-14.81 47.03-66.72 63.95-105.03 43.51q2.85-3.66 5.46-7.81c25.69-40.71 34.21-111.86 0-170.56-15.08-25.88-39.1-50.36-41.34-101.83-.71-16.27-1.99-57.27-3.17-96.1h.01c3.53 20.74 7.57 42.46 12.18 60.79a225.053 225.053 0 0 0 7.84 25.67c9.29 24 37.34 63.98 59.74 83.87z" fill="#fff5cc"/><path d="m332.65 471.8q2.85-3.66 5.46-7.81c25.69-40.71 34.21-111.86 0-170.56-15.08-25.88-39.1-50.36-41.34-101.83-.035-.809-.072-1.7-.11-2.624-1.156-2.455-2.174-4.8-3.03-7.016a225.053 225.053 0 0 1 -7.84-25.67c-4.61-18.33-8.65-40.05-12.18-60.79h-.01c1.18 38.83 2.46 79.83 3.17 96.1 2.24 51.47 26.26 75.95 41.34 101.83 34.21 58.7 25.69 129.85 0 170.56q-2.61 4.14-5.46 7.81a73.494 73.494 0 0 0 44.438 7.843 72.5 72.5 0 0 1 -24.438-7.843z" fill="#efecb4"/><path d="m366.49 237.03c69.01 38.96 90.67 92.06 84.01 139.73a73.475 73.475 0 0 1 -32.31 51.69l-.51-.16c.05-.13.09-.27.13-.4 14.24-45.99-13.64-116.95-64.44-162.06-22.4-19.89-50.45-59.87-59.74-83.87a225.053 225.053 0 0 1 -7.84-25.67c21.04 43.81 58.55 68.23 80.7 80.74z" fill="#fff5cc"/><path d="m272.83 69.58v.01c-8.66 76.26-29.26 92.32-51.04 152.54 4.15-12.04 7.79-23 9.99-30.53 4.2-14.44 5.66-53.98 6.04-90.9.41-39.28-.4-75.6-.4-75.6l33.71-14.1s.74 25.96 1.7 58.58z" fill="#50dd5a"/><path d="m221.617 154.175c-5.664 11.777-22.521 45.7-79.062 77.631-33.545 18.94-58 42.135-72.69 68.941a123.325 123.325 0 0 0 -14.3 76.848 79.33 79.33 0 0 0 33.689 54.984 78.791 78.791 0 0 0 43.541 43.535 82.639 82.639 0 0 0 31.385 6.173 80.071 80.071 0 0 0 32.812-6.935c16.183 20.248 37.935 31.648 60.954 31.648h.6c21.21-.184 40.589-9.914 55.746-27.695a78.892 78.892 0 0 0 32.744 7.1 80.858 80.858 0 0 0 30.765-6.118c21.226-8.728 36.979-25.542 44.691-47.524a79.333 79.333 0 0 0 33.946-55.163 123.325 123.325 0 0 0 -14.3-76.848c-14.689-26.806-39.145-50-72.69-68.941-37.413-21.125-62.933-46.525-78.007-77.63-4.673-18.686-8.64-40.445-11.844-59.261-1.3-43.039-2.44-83.319-2.461-84.085a6 6 0 0 0 -8.313-5.366l-33.723 14.094a6 6 0 0 0 -3.684 5.669c.015.7.786 36.535.406 75.122-2.084 23.224-5.967 40.609-10.205 53.821zm-137.971 257.514a67.983 67.983 0 0 1 -16.2-35.756 111.4 111.4 0 0 1 12.942-69.419c13.6-24.815 36.5-46.435 68.066-64.259a244.272 244.272 0 0 0 41.406-28.6c-11.625 16.471-25.136 32.912-37.008 43.453a222.964 222.964 0 0 0 -58.208 82.977c-10.153 25.63-13.912 50.504-10.998 71.604zm53.709 53.327a67.314 67.314 0 0 1 -39.233-43.133c-13.638-44.038 13.9-112.472 62.7-155.8 24.291-21.567 50.347-60.568 61.089-81.373a171.784 171.784 0 0 0 7.357-16.334c-.824 9.322-1.886 16.862-3.249 21.544-2.16 7.414-5.73 18.177-9.821 30.025-.016.046-.033.092-.05.138-.009.024-.014.048-.022.071-8.862 25.657-20.138 56.332-24.849 69.144l-.757 2.061c-10.088 27.45-16.379 60.825-17.262 91.568-.7 24.292 1.679 58 16.643 82.392a69.953 69.953 0 0 1 -52.546-.303zm226.19-222.761c31.568 17.824 54.469 39.444 68.066 64.259a111.4 111.4 0 0 1 12.942 69.419 67.843 67.843 0 0 1 -17.665 37.344c2.263-20.521-1.6-44.394-11.329-68.959a223 223 0 0 0 -58.208-82.976c-15.374-13.651-34.189-37.884-46.886-59.278 14.278 14.909 31.892 28.228 53.08 40.191zm-75.514-58.129c9.976 25.752 38.646 66.027 61.353 86.188 48.795 43.327 76.335 111.761 62.7 155.8-6.2 20.025-19.994 35.321-38.839 43.07a68.877 68.877 0 0 1 -51.5.235q.732-1.1 1.445-2.228c14.008-22.2 22.313-51.152 23.384-81.525 1.2-34.127-6.845-67.066-23.275-95.255-3.092-5.305-6.458-10.415-10.023-15.826-13.494-20.48-28.787-43.694-30.5-83.242-.259-5.958-.6-15.306-.981-26.673a204.076 204.076 0 0 0 6.236 19.456zm-44.531-155.067 21.89-9.152c.293 10.212.818 28.407 1.438 49.4-5.022 43.848-13.813 66.793-24.971 91.184 3.02-44.555 1.976-113.666 1.643-131.432zm4.327 147.076c7.741-16.564 14.87-31.836 20.662-51.814.9 28.929 1.764 55.317 2.294 67.539 1.859 42.862 18.121 67.546 32.47 89.325 3.472 5.269 6.751 10.247 9.677 15.267 32.723 56.146 24.824 125.169.109 164.333-13.806 21.877-33.192 34.027-54.59 34.213-21.989.148-42.866-12.311-57.28-34.3-24.1-36.77-18.616-112.87.614-165.2l.757-2.06c4.719-12.835 16-43.51 24.915-69.334 7.017-19.392 13.804-33.92 20.369-47.969z" fill="#151515"/></svg>