<svg id="Capa_1" enable-background="new 0 0 511.984 511.984" height="512" viewBox="0 0 511.984 511.984" width="512" xmlns="http://www.w3.org/2000/svg"><g id="XMLID_2144_"><path id="XMLID_1242_" d="m287.907 237.316c61.845-61.845 85.188-147.498 70.028-227.316h-41.177c13.344 70.259-7.204 145.656-61.642 200.095z" fill="#d1a184"/><g fill="#9d9ae8"><circle id="XMLID_1308_" cx="206.057" cy="163.43" r="49.059"/><circle id="XMLID_1307_" cx="135.288" cy="168.416" r="49.059"/><circle id="XMLID_1306_" cx="204.668" cy="237.796" r="49.059"/><circle id="XMLID_1304_" cx="274.048" cy="307.176" r="49.059"/><circle id="XMLID_1303_" cx="343.428" cy="376.556" r="49.059"/><circle id="XMLID_1241_" cx="109.849" cy="263.236" r="49.059"/><circle id="XMLID_1239_" cx="179.229" cy="332.616" r="49.059"/><circle id="XMLID_1233_" cx="248.609" cy="401.996" r="49.059"/><circle id="XMLID_1200_" cx="84.393" cy="358.072" r="49.059"/><circle id="XMLID_1288_" cx="153.773" cy="427.451" r="49.059"/><circle id="XMLID_1287_" cx="58.989" cy="452.855" r="49.059"/></g><path id="XMLID_1312_" d="m418.59 162.441s6.89-5.637 10.022-31.319c-109.977-31.585-100.221 62.638-100.221 62.638s-94.223-9.756-62.638 100.221c25.681-3.132 31.319-10.022 31.319-10.022s-17.48 50.169 41.997 83.338c26.766-33.81 19.98-63.246 18.897-67.21 1.743 5.801 21.648 63.751 114.454 37.701 26.05-92.806-31.9-112.711-37.701-114.454 3.964 1.084 33.4 7.869 67.21-18.897-33.17-59.476-83.339-41.996-83.339-41.996z" fill="#d5ea79"/><g id="XMLID_335_"><path id="XMLID_729_" d="m510.661 199.567c-19.03-34.125-43.694-45.083-61.034-48.268-5.193-.953-10.062-1.279-14.399-1.24 1.286-4.776 2.442-10.609 3.311-17.727.595-4.879-2.443-9.466-7.166-10.822-26.132-7.504-48.15-8.842-65.822-4.049 8.282-35.759 9.082-73.138 2.208-109.328-.896-4.718-5.02-8.133-9.824-8.133h-41.177c-2.979 0-5.803 1.328-7.702 3.623-1.9 2.294-2.678 5.316-2.122 8.243 2.45 12.899 3.683 25.861 3.758 38.74-.141 17.416-14.347 31.542-31.795 31.542-12.926 0-23.441-10.516-23.441-23.441 0-9.237 7.516-16.753 16.753-16.753 5.522 0 10-4.478 10-10s-4.478-10-10-10c-20.266 0-36.753 16.487-36.753 36.753 0 23.954 19.487 43.441 43.441 43.441 10.12 0 19.563-2.928 27.549-7.965-7.401 36.609-24.34 71.047-49.698 99.595 5.455-9.074 8.368-19.487 8.368-30.348 0-15.775-6.143-30.606-17.298-41.762-11.154-11.154-25.985-17.298-41.761-17.298-14.371 0-27.948 5.113-38.687 14.453-9.472-6.154-20.52-9.467-32.082-9.467-15.775 0-30.606 6.144-41.762 17.298-11.154 11.154-17.298 25.985-17.298 41.761 0 14.458 5.174 28.115 14.624 38.884-8.478 2.871-16.251 7.661-22.765 14.174-22.135 22.136-22.98 57.609-2.557 80.779-8.337 2.812-16.17 7.522-22.801 14.154-22.095 22.095-22.975 57.478-2.668 80.65-8.313 2.814-16.121 7.518-22.736 14.133-23.026 23.028-23.026 60.496 0 83.522 11.514 11.514 26.638 17.271 41.762 17.271s30.248-5.757 41.762-17.271c6.614-6.614 11.318-14.422 14.132-22.734 10.769 9.453 24.428 14.629 38.889 14.629 15.775 0 30.607-6.144 41.762-17.298 6.637-6.637 11.349-14.476 14.16-22.821 10.759 9.412 24.388 14.565 38.817 14.565 15.775 0 30.606-6.144 41.761-17.298 6.514-6.514 11.304-14.288 14.174-22.765 10.769 9.449 24.426 14.624 38.884 14.624 15.775 0 30.607-6.143 41.761-17.298 11.154-11.154 17.298-25.985 17.298-41.761 0-9.553-2.267-18.753-6.521-27.007 21.558 7.289 48.067 6.595 79.155-2.134 3.358-.942 5.982-3.566 6.926-6.925 1.841-6.558 3.342-13.008 4.46-19.17.986-5.435-2.619-10.639-8.053-11.625-5.44-.997-10.64 2.618-11.625 8.053-.697 3.837-1.561 7.811-2.582 11.867-78.531 19.763-95.051-26.906-96.706-32.408-1.575-5.242-7.071-8.238-12.335-6.733-5.262 1.511-8.331 6.97-6.887 12.25.704 2.574 5.858 24.291-11.926 51.239-42.129-28.085-30.407-65.127-29.878-66.716 1.596-4.58-.325-9.645-4.558-12.015-3.995-2.239-8.967-1.463-12.096 1.794-.604.462-4.834 3.412-16.742 5.7-6.787-28.273-4.673-49.261 6.316-62.461 16.168-19.419 47.638-16.589 47.924-16.56 2.994.305 5.952-.755 8.079-2.87 2.129-2.116 3.192-5.092 2.9-8.079-.03-.315-2.861-31.785 16.558-47.952 13.2-10.989 34.187-13.104 62.461-6.316-2.287 11.904-5.236 16.136-5.698 16.741-3.261 3.128-4.065 8.108-1.826 12.106 2.369 4.232 7.404 6.162 11.983 4.568 1.648-.552 38.692-12.275 66.778 29.857-26.948 17.783-48.665 12.628-51.24 11.926-5.276-1.446-10.739 1.625-12.25 6.887-1.51 5.262 1.491 10.759 6.732 12.335 1.436.432 8.997 2.936 16.974 9.869 4.167 3.623 10.483 3.182 14.107-.986 2.138-2.459 2.86-5.666 2.238-8.626 12.441-2.578 27.327-8.5 42.978-20.889 3.848-3.04 4.917-8.423 2.528-12.707zm-359.051 160.667c-15.229-15.229-15.229-40.009 0-55.237 7.377-7.378 17.186-11.44 27.619-11.44s20.241 4.062 27.618 11.44c7.378 7.377 11.44 17.185 11.44 27.618 0 10.434-4.062 20.242-11.44 27.619-15.229 15.229-40.01 15.229-55.237 0zm53.058-83.379c-10.434 0-20.242-4.062-27.619-11.44-15.229-15.23-15.229-40.009 0-55.237 7.377-7.378 17.186-11.44 27.619-11.44s20.241 4.062 27.618 11.44c7.378 7.377 11.441 17.186 11.441 27.618 0 10.434-4.062 20.242-11.441 27.619-7.376 7.378-17.185 11.44-27.618 11.44zm29.007-141.044c7.378 7.377 11.44 17.186 11.44 27.619 0 9.053-3.063 17.633-8.693 24.565-9.399-6.019-20.325-9.259-31.754-9.259-3.879 0-7.699.375-11.423 1.102.726-3.724 1.102-7.544 1.102-11.423 0-13.151-4.283-25.637-12.165-35.892 6.808-5.281 15.118-8.153 23.875-8.153 10.433.001 20.241 4.064 27.618 11.441zm-126.006 4.987c7.377-7.378 17.186-11.44 27.619-11.44s20.241 4.062 27.618 11.44c7.378 7.377 11.44 17.186 11.44 27.618 0 10.434-4.062 20.242-11.44 27.619-15.229 15.229-40.009 15.229-55.237 0-7.378-7.377-11.44-17.186-11.44-27.619s4.062-20.241 11.44-27.618zm-25.439 94.819c7.377-7.378 17.186-11.441 27.619-11.441s20.241 4.062 27.618 11.441c7.378 7.377 11.44 17.186 11.44 27.618 0 10.434-4.062 20.242-11.44 27.619-15.229 15.229-40.01 15.229-55.237 0-15.229-15.229-15.229-40.008 0-55.237zm-25.359 94.934c7.614-7.615 17.617-11.422 27.619-11.422s20.005 3.807 27.619 11.422c15.228 15.228 15.228 40.008 0 55.237-15.23 15.23-40.011 15.23-55.238 0-15.228-15.229-15.228-40.009 0-55.237zm29.835 150.02c-15.229 15.23-40.01 15.23-55.238 0-15.229-15.228-15.229-40.008 0-55.237 7.615-7.616 17.615-11.422 27.619-11.422 10.001 0 20.006 3.808 27.619 11.422 15.229 15.23 15.229 40.009 0 55.237zm94.784-25.403c-7.377 7.378-17.186 11.44-27.619 11.44s-20.241-4.062-27.618-11.44c-7.378-7.377-11.44-17.186-11.44-27.618 0-10.434 4.062-20.242 11.44-27.619 7.377-7.378 17.186-11.44 27.618-11.44 10.434 0 20.242 4.062 27.619 11.44 15.228 15.229 15.228 40.008 0 55.237zm94.737-25.554c-7.377 7.378-17.186 11.44-27.618 11.44-10.434 0-20.242-4.062-27.619-11.44-15.229-15.229-15.229-40.009 0-55.237 7.377-7.378 17.186-11.44 27.619-11.44s20.241 4.062 27.618 11.44c7.378 7.377 11.44 17.186 11.44 27.618 0 10.434-4.062 20.242-11.44 27.619zm57.971-53.585c1.534.855 3.208 1.268 4.865 1.268 2.973-.001 5.892-1.325 7.847-3.794 8.349-10.546 13.75-20.74 17.181-30.078 2.508 1.567 4.852 3.408 6.956 5.513 7.378 7.377 11.44 17.185 11.44 27.619 0 10.433-4.062 20.241-11.44 27.618-7.377 7.378-17.186 11.44-27.618 11.44-10.434 0-20.242-4.062-27.619-11.44-12.581-12.581-14.757-31.676-6.551-46.524 6.495 6.401 14.659 12.646 24.939 18.378zm-49.507-75.432c-.037 4.342.287 9.206 1.24 14.398 1.347 7.333 4.094 15.976 9.384 24.948-6.275 4.091-13.601 6.292-21.267 6.292-10.434 0-20.242-4.062-27.619-11.44-15.229-15.228-15.229-40.009 0-55.237 1.509-1.509 3.119-2.862 4.809-4.084 1.139 6.754 2.772 13.845 4.904 21.268 1.357 4.723 5.946 7.757 10.822 7.166 7.117-.869 12.95-2.025 17.727-3.311zm33.578-116.959c-8.904.408-21.869 2.203-34.219 8.294 30.476-40.687 46.781-90.123 46.629-140.783.004-.268.02-.533.02-.802 0-.19-.018-.375-.028-.562-.088-9.903-.782-19.849-2.146-29.784h20.989c5.693 36.741 2.914 74.541-8.077 110.011-18.517 15.899-22.532 39.717-23.168 53.626z"/><path id="XMLID_780_" d="m470.219 267.472c-1.86 1.859-2.931 4.439-2.931 7.069 0 2.631 1.07 5.211 2.931 7.07 1.859 1.86 4.44 2.93 7.069 2.93 2.631 0 5.21-1.069 7.07-2.93 1.86-1.859 2.93-4.439 2.93-7.07 0-2.63-1.069-5.21-2.93-7.069-1.86-1.86-4.439-2.931-7.07-2.931-2.629 0-5.21 1.07-7.069 2.931z"/></g></g></svg>