<svg id="Capa_1" enable-background="new 0 0 511.333 511.333" height="512" viewBox="0 0 511.333 511.333" width="512" xmlns="http://www.w3.org/2000/svg"><g><g><path d="m378.157 195.1v183.89h-244.98v-214.51c0 16.91 13.71 30.62 30.62 30.62s30.62-13.71 30.62-30.62v-30.63c0-16.91 13.71-30.62 30.63-30.62 16.91 0 30.62 13.71 30.62 30.62v91.87c0 16.92 13.71 30.63 30.62 30.63 16.92 0 30.63-13.71 30.63-30.63v-30.62c0-16.91 13.71-30.62 30.62-30.62s30.62 13.71 30.62 30.62z" fill="#ffc2e8"/><path d="m378.157 130v65.1c0-16.91-13.71-30.62-30.62-30.62s-30.62 13.71-30.62 30.62v30.62c0 16.92-13.71 30.63-30.63 30.63-16.91 0-30.62-13.71-30.62-30.63v-91.87c0-16.91-13.71-30.62-30.62-30.62-16.92 0-30.63 13.71-30.63 30.62v30.63c0 16.91-13.71 30.62-30.62 30.62s-30.62-13.71-30.62-30.62v-34.48c0-66.27 53.72-120 120-120h4.98c66.28 0 120 53.73 120 120z" fill="#ff9ad8"/><path d="m285.777 378.99v92.23c0 16.63-13.48 30.11-30.11 30.11-8.32 0-15.84-3.37-21.29-8.82s-8.82-12.97-8.82-21.29v-92.23z" fill="#fedc75"/></g><g><path d="m258.16 0h-4.987c-71.682 0-130 58.318-130 130v248.994c0 5.523 4.477 10 10 10h82.381v82.227c0 22.119 17.995 40.113 40.113 40.113s40.113-17.995 40.113-40.113v-82.227h82.381c5.523 0 10-4.477 10-10v-248.994c-.001-71.682-58.318-130-130.001-130zm-114.987 130c0-60.654 49.346-110 110-110h4.987c60.654 0 110 49.346 110 110v30.12c-6.05-3.581-13.099-5.645-20.624-5.645-22.399 0-40.623 18.224-40.623 40.624v30.624c0 11.372-9.251 20.624-20.624 20.624s-20.624-9.251-20.624-20.624v-91.87c0-22.4-18.224-40.624-40.624-40.624s-40.624 18.224-40.624 40.624v30.623c0 11.372-9.251 20.624-20.623 20.624s-20.624-9.251-20.624-20.624v-34.476zm132.607 341.22c0 11.09-9.022 20.113-20.113 20.113s-20.113-9.023-20.113-20.113v-82.227h40.226zm92.38-102.226h-224.987v-169.54c6.05 3.581 13.099 5.645 20.624 5.645 22.399 0 40.623-18.224 40.623-40.624v-30.623c0-11.372 9.251-20.624 20.624-20.624s20.624 9.251 20.624 20.624v91.87c0 22.4 18.224 40.624 40.624 40.624s40.624-18.224 40.624-40.624v-30.624c0-11.372 9.251-20.624 20.623-20.624s20.624 9.251 20.624 20.624v173.896z"/><path d="m260.667 58c26.959 0 50.748 16.21 60.603 41.298 1.548 3.94 5.318 6.346 9.31 6.346 1.216 0 2.454-.223 3.654-.695 5.141-2.02 7.671-7.824 5.651-12.964-6.182-15.735-16.815-29.166-30.751-38.84-14.274-9.908-31.034-15.145-48.467-15.145-5.523 0-10 4.477-10 10s4.477 10 10 10z"/><path d="m337.687 112.86c-6.807 1.147-10.358 9.74-6.36 15.36 4.814 7.36 16.475 5.043 18.12-3.6 1.55-6.719-5.04-13.317-11.76-11.76z"/></g></g></svg>