<svg id="Capa_1" enable-background="new 0 0 512 512" height="512" viewBox="0 0 512 512" width="512" xmlns="http://www.w3.org/2000/svg"><g><path d="m305.7 173.809v-119.609h-99.4v119.609c0 10.065-4.575 19.585-12.435 25.873l-44.65 46.713c-5.893 6.165-9.182 14.365-9.182 22.894v202.079c0 18.299 14.834 33.133 33.133 33.133h165.667c18.299 0 33.133-14.834 33.133-33.133v-202.08c0-8.529-3.289-16.729-9.182-22.894l-44.65-46.713c-7.859-6.287-12.434-15.807-12.434-25.872z" fill="#e55964"/><path d="m362.785 246.394-44.65-46.713c-7.86-6.288-12.435-15.807-12.435-25.873v-119.608h-23v119.609c0 10.065 4.575 19.585 12.435 25.873l44.65 46.713c5.893 6.165 9.182 14.365 9.182 22.894v202.079c0 18.299-14.834 33.133-33.133 33.133h23c18.299 0 33.133-14.834 33.133-33.133v-202.08c0-8.529-3.289-16.729-9.182-22.894z" fill="#db404f"/><path d="m314.267 57.2h-116.534c-4.418 0-8-3.582-8-8v-25.7c0-8.837 7.163-16 16-16h100.533c8.837 0 16 7.163 16 16v25.7c.001 4.418-3.581 8-7.999 8z" fill="#faf8fa"/><path d="m323.623 304.975c-13.54-2.88-24.021-14.03-25.904-27.912-.382-2.814-2.162-5.24-4.798-6.294l-30.768-12.307c-3.95-1.58-8.356-1.58-12.305 0l-30.768 12.307c-2.636 1.055-4.417 3.481-4.798 6.294-1.883 13.882-12.364 25.032-25.904 27.912-3.928.836-6.665 4.395-6.379 8.401l7.186 100.598c.31 4.335 3.916 7.693 8.262 7.693h117.108c4.346 0 7.953-3.358 8.262-7.693l7.186-100.598c.285-4.006-2.452-7.566-6.38-8.401z" fill="#faf8fa"/><path d="m281.133 355.4h-50.267c-4.418 0-8-3.582-8-8v-17.133c0-4.418 3.582-8 8-8h50.267c4.418 0 8 3.582 8 8v17.133c0 4.418-3.581 8-8 8z" fill="#b3e59f"/><g><path d="m305.7 140.033h-26.397c-3.506 0-6.52 2.287-7.702 5.587-2.293 6.4-8.412 10.979-15.601 10.979s-13.308-4.579-15.601-10.979c-1.182-3.301-4.196-5.587-7.702-5.587h-26.397v-49.7h99.4z" fill="#ffd97d"/><g><path d="m282.7 90.333h23v49.7h-23z" fill="#ffc269"/></g></g><path d="m306.267 7.5h-23c8.837 0 16 7.163 16 16v25.7c0 4.418-3.582 8-8 8h23c4.418 0 8-3.582 8-8v-25.7c0-8.837-7.164-16-16-16z" fill="#eceaec"/><path d="m281.133 322.267h-23c4.418 0 8 3.582 8 8v17.133c0 4.418-3.582 8-8 8h23c4.418 0 8-3.582 8-8v-17.133c0-4.419-3.581-8-8-8z" fill="#92db91"/><path d="m323.623 304.975c-13.54-2.88-24.021-14.03-25.904-27.912-.382-2.814-2.162-5.24-4.798-6.294l-30.768-12.307c-3.95-1.58-8.356-1.58-12.305 0l-5.475 2.19 25.293 10.117c2.636 1.055 4.417 3.481 4.798 6.294 1.883 13.882 12.364 25.032 25.904 27.912 3.928.836 6.665 4.395 6.379 8.401l-7.186 100.598c-.31 4.335-3.916 7.693-8.262 7.693h23.256c4.346 0 7.953-3.358 8.262-7.693l7.186-100.598c.285-4.006-2.452-7.566-6.38-8.401z" fill="#eceaec"/></g><g><path d="m368.207 241.212-44.65-46.713c-.23-.24-.477-.466-.737-.674-6.114-4.892-9.62-12.188-9.62-20.017v-109.108h1.066c8.547 0 15.5-6.953 15.5-15.5v-25.7c0-12.958-10.542-23.5-23.5-23.5h-100.533c-12.958 0-23.5 10.542-23.5 23.5v25.7c0 8.547 6.953 15.5 15.5 15.5h1.066v109.108c0 7.829-3.506 15.125-9.62 20.017-.26.208-.506.434-.737.674l-44.649 46.713c-7.261 7.597-11.26 17.567-11.26 28.076v202.079c0 22.405 18.228 40.633 40.633 40.633h24.067c4.142 0 7.5-3.357 7.5-7.5s-3.358-7.5-7.5-7.5h-24.067c-14.134 0-25.633-11.499-25.633-25.633v-202.079c0-6.629 2.522-12.919 7.104-17.711l44.321-46.369c9.44-7.75 14.842-19.163 14.842-31.399v-26.275h18.897c.289 0 .535.319.642.616 3.417 9.54 12.524 15.95 22.662 15.95s19.245-6.41 22.662-15.95c.107-.297.353-.616.642-.616h18.895v26.275c0 12.236 5.402 23.649 14.842 31.399l44.321 46.369c4.581 4.792 7.103 11.082 7.103 17.711v54.545c0 4.143 3.358 7.5 7.5 7.5s7.5-3.357 7.5-7.5v-54.545c.001-10.509-3.998-20.479-11.259-28.076zm-170.974-192.012v-25.7c0-4.687 3.813-8.5 8.5-8.5h100.533c4.687 0 8.5 3.813 8.5 8.5v25.7c0 .275-.224.5-.5.5h-8.566-9.067v-9.067c0-4.143-3.358-7.5-7.5-7.5s-7.5 3.357-7.5 7.5v9.067h-18.133v-9.067c0-4.143-3.358-7.5-7.5-7.5s-7.5 3.357-7.5 7.5v9.067h-18.133v-9.067c0-4.143-3.358-7.5-7.5-7.5s-7.5 3.357-7.5 7.5v9.067h-9.067-8.566c-.276 0-.501-.224-.501-.5zm100.967 15.5v18.133h-84.4v-18.133zm-18.897 67.833c-6.568 0-12.5 4.243-14.763 10.558-1.288 3.594-4.72 6.009-8.54 6.009s-7.253-2.415-8.54-6.009c-2.262-6.314-8.195-10.558-14.763-10.558h-18.897v-34.7h84.4v34.7z"/><path d="m371.967 346.333c-4.142 0-7.5 3.357-7.5 7.5v117.534c0 14.134-11.499 25.633-25.633 25.633h-113.95c-4.142 0-7.5 3.357-7.5 7.5s3.358 7.5 7.5 7.5h113.95c22.405 0 40.633-18.228 40.633-40.633v-117.534c0-4.143-3.358-7.5-7.5-7.5z"/><path d="m330.297 414.508 7.733-108.273c.148-2.076-.573-4.121-1.992-5.646-1.419-1.523-3.407-2.389-5.489-2.389-14.134 0-25.633-11.499-25.633-25.634 0-3.066-1.867-5.824-4.714-6.964l-35.264-14.105c-5.764-2.305-12.113-2.306-17.877 0l-35.264 14.105c-2.847 1.14-4.714 3.897-4.714 6.964 0 14.135-11.499 25.634-25.633 25.634-2.082 0-4.07.865-5.489 2.389s-2.141 3.569-1.992 5.646l7.733 108.273c.587 8.22 7.502 14.659 15.744 14.659h117.107c8.242 0 15.157-6.439 15.744-14.659zm-133.632-1.068-7.216-101.029c16.92-3.391 30.077-17.325 32.302-34.633l30.882-12.353c2.172-.869 4.563-.869 6.734 0l30.882 12.353c2.226 17.308 15.382 31.242 32.302 34.633l-7.216 101.029c-.029.408-.372.727-.782.727h-117.107c-.409 0-.752-.319-.781-.727z"/><path d="m289.133 314.767h-66.267c-4.142 0-7.5 3.357-7.5 7.5v33.133c0 4.143 3.358 7.5 7.5 7.5h66.267c4.142 0 7.5-3.357 7.5-7.5v-33.134c0-4.142-3.358-7.499-7.5-7.499zm-7.5 33.133h-51.267v-18.134h51.267z"/><path d="m272.567 381.033h-33.134c-4.142 0-7.5 3.357-7.5 7.5s3.358 7.5 7.5 7.5h33.134c4.142 0 7.5-3.357 7.5-7.5s-3.358-7.5-7.5-7.5z"/></g></svg>