<svg height="512" viewBox="0 0 128 128" width="512" xmlns="http://www.w3.org/2000/svg"><g><path d="m10.745 61.5h45a0 0 0 0 1 0 0v56.747a8 8 0 0 1 -8 8h-29a8 8 0 0 1 -8-8v-56.747a0 0 0 0 1 0 0z" fill="#596c76"/><path d="m80.255 61.5h29a8 8 0 0 1 8 8v56.747a0 0 0 0 1 0 0h-45a0 0 0 0 1 0 0v-56.747a8 8 0 0 1 8-8z" fill="#596c76" transform="matrix(-1 0 0 -1 189.51 187.747)"/><path d="m17.337 41.25h31.817v20.25h-31.817z" fill="#ffda2d"/><path d="m26 23.26h-3.51v-3.509a18 18 0 0 1 18-18 3.509 3.509 0 0 1 3.51 3.509 18 18 0 0 1 -18 18z" fill="#fa5e97"/><path d="m26 23.26h-3.51v17.99h21.51v-35.99a18 18 0 0 1 -18 18z" fill="#ff7cb9"/><path d="m72.255 72.5h45v11.5h-45z" fill="#ffda2d"/></g></svg>