<?xml version="1.0"?>
<svg xmlns="http://www.w3.org/2000/svg" id="Filled" viewBox="0 0 512 512" width="512" height="512"><path d="M280,216s-32-16-48-16c-20.1,0-51.9,8.147-72,8-18.11-.132-53.889-8-72-8-16,0-48,16-48,16V88S72,72,88,72c18.111,0,53.89,7.868,72,8,20.1.147,51.9-8,72-8,16,0,48,16,48,16Z" style="fill:#ffc9c9"/><path d="M280,168s-32-16-48-16c-20.1,0-51.9,8.147-72,8-18.11-.132-53.889-8-72-8-16,0-48,16-48,16V136s32-16,48-16c18.111,0,53.89,7.868,72,8,20.1.147,51.9-8,72-8,16,0,48,16,48,16Z" style="fill:#ed6f6d"/><path d="M488,288c0,56-46.979,88-125.277,88C248,376,221.787,376,159.149,360,138.173,354.642,120,342.091,120,320V288l368-56Z" style="fill:#ed6f6d"/><path d="M378.383,120q-1.455,0-2.9.039C276.308,121.7,260.635,208.231,229.617,232c-22.585,17.307-62.638,16-70.468,16C137.528,248,120,265.909,120,288s18.173,34.642,39.149,40c62.638,16,109.617,16,203.574,16C441.021,344,488,293.856,488,232S438.923,120,378.383,120Z" style="fill:#ff9494"/><circle cx="392" cy="232" r="48" style="fill:#ffc9c9"/><path d="M43.945,400,28.4,420.686a16.754,16.754,0,0,0,0,22.628,14.369,14.369,0,0,0,21.233,0L73.972,416H120V384H73.972L49.63,356.686a14.369,14.369,0,0,0-21.233,0,16.754,16.754,0,0,0,0,22.628Z" style="fill:#ed8989"/><path d="M280,488a88,88,0,0,0,0-176c-56,0-104,48-144,48a40,40,0,0,0,0,80C176,440,224,488,280,488Z" style="fill:#ffc9c9"/><path d="M378.383,112c-1.04,0-2.077.015-3.034.04-40.022.671-67.279,14.461-87.349,32.431V88a8,8,0,0,0-4.422-7.155C280.13,79.121,249.387,64,232,64c-10.553,0-23.888,2.075-36.783,4.081C182.61,70.042,169.558,72.067,160.059,72c-8.384-.061-21.6-2.007-34.379-3.889C111.952,66.09,97.756,64,88,64,70.613,64,39.871,79.121,36.422,80.845A8,8,0,0,0,32,88V216a8,8,0,0,0,11.576,7.156C52.016,218.94,76.447,208,88,208c8.585,0,22.191,2,35.349,3.941,13.935,2.052,27.1,3.989,36.592,4.059,10.825.092,24.5-2.051,37.735-4.109C209.971,209.978,222.684,208,232,208a34.545,34.545,0,0,1,7.165.951c-4.865,7.093-9.53,12.956-14.414,16.7-12.721,9.749-34.218,14.583-63.981,14.359-.634,0-1.177-.009-1.621-.009-26,0-47.149,21.533-47.149,48v32a42.469,42.469,0,0,0,15,32.858A48.121,48.121,0,0,0,94.458,376h-16.9L55.6,351.363l-.139-.152a22.369,22.369,0,0,0-32.9,0,24.9,24.9,0,0,0-.325,33.221L33.938,400l-11.7,15.567a24.9,24.9,0,0,0,.326,33.222,22.369,22.369,0,0,0,32.9,0l.139-.152L77.559,424h16.9A48.014,48.014,0,0,0,136,448c16.421,0,35.841,9.779,56.4,20.131C218.345,481.194,247.75,496,280,496a96.016,96.016,0,0,0,94.617-112.254C450.887,380.462,496,345.2,496,288V232C496,165.832,443.237,112,378.383,112ZM88.679,408H73.972A8,8,0,0,0,68,410.677L43.738,437.9a6.371,6.371,0,0,1-9.507-.061,8.768,8.768,0,0,1,0-11.679,7.775,7.775,0,0,0,.561-.668L50.34,404.807a8,8,0,0,0,0-9.614L34.792,374.507a7.775,7.775,0,0,0-.561-.668,8.768,8.768,0,0,1,0-11.679,6.371,6.371,0,0,1,9.507-.061L68,389.323A8,8,0,0,0,73.972,392H88.679a47.468,47.468,0,0,0,0,16ZM48,93.03C58.626,88.083,78.07,80,88,80c8.585,0,22.191,2,35.349,3.941,13.935,2.052,27.1,3.989,36.592,4.059,10.825.092,24.5-2.051,37.735-4.109C209.971,81.978,222.684,80,232,80c9.93,0,29.374,8.083,40,13.03v30.447C260.575,118.513,243.411,112,232,112c-10.553,0-23.888,2.075-36.783,4.081-12.607,1.961-25.659,4.009-35.158,3.919-8.384-.061-21.6-2.007-34.379-3.889C111.952,114.09,97.756,112,88,112c-11.411,0-28.575,6.513-40,11.478Zm0,48C58.624,136.084,78.068,128,88,128c8.585,0,22.191,2,35.349,3.941,13.935,2.052,27.1,3.989,36.592,4.059,10.825.068,24.5-2.051,37.735-4.109C209.971,129.978,222.684,128,232,128c9.932,0,29.376,8.084,40,13.031v14.446C260.575,150.513,243.411,144,232,144c-10.553,0-23.888,2.075-36.783,4.081-12.607,1.961-25.659,4.005-35.158,3.919-8.384-.061-21.6-2.007-34.379-3.889C111.952,146.09,97.756,144,88,144c-11.411,0-28.575,6.513-40,11.478ZM232,192c-10.553,0-23.888,2.075-36.783,4.081-12.607,1.961-25.659,4-35.158,3.919-8.384-.061-21.6-2.007-34.379-3.889C111.952,194.09,97.756,192,88,192c-11.411,0-28.575,6.513-40,11.477V173.031C58.624,168.084,78.068,160,88,160c8.585,0,22.191,2,35.349,3.941,13.935,2.052,27.1,3.989,36.592,4.059,10.825.088,24.5-2.05,37.735-4.109C209.971,161.978,222.684,160,232,160c8.049,0,22.346,5.31,33.134,9.957-6.293,8.468-11.733,16.976-16.745,24.841C241.822,192.924,236.436,192,232,192Zm48,288c-28.449,0-54.86-13.3-80.4-26.159C177.292,442.609,156.222,432,136,432a32,32,0,0,1,0-64c20.222,0,41.292-10.609,63.6-21.841C225.14,333.3,251.551,320,280,320a80,80,0,0,1,0,160ZM128.052,321.72c7.4,6.2,17.2,10.986,29.117,14.031,6.287,1.606,12.433,3.05,18.512,4.362a160.6,160.6,0,0,1-23.432,9.293C141.084,345.027,128.915,336.81,128.052,321.72Zm242.417,46.168A95.611,95.611,0,0,0,363.111,352c39.3-.079,72.865-12.167,97.1-34.975a111.982,111.982,0,0,0,19.679-24.6C477.544,338.785,438.081,365.977,370.469,367.888Zm78.771-62.517C427.953,325.409,398.036,336,362.724,336H351.487A95.781,95.781,0,0,0,280,304c-29.4,0-56.427,12.3-80.628,24.371-12.547-2.1-25.079-4.76-38.243-8.122C132.3,312.886,128,296.883,128,288c0-17.645,13.973-32,31.149-32,.411,0,.914,0,1.5.008,33.353.232,58.218-5.693,73.832-17.658,10.019-7.677,17.942-20.113,27.117-34.512,21.2-33.274,47.59-74.686,114.093-75.8q1.341-.034,2.69-.036C434.415,128,480,174.654,480,232,480,260.643,469.076,286.7,449.24,305.371Z"/><path d="M392,176a56,56,0,1,0,56,56A56.063,56.063,0,0,0,392,176Zm0,96a40,40,0,1,1,40-40A40.045,40.045,0,0,1,392,272Z"/></svg>
