<svg id="Capa_1" enable-background="new 0 0 510.65 510.65" height="512" viewBox="0 0 510.65 510.65" width="512" xmlns="http://www.w3.org/2000/svg"><path d="m510.65 217.894v154.79c0 44.05-88.23 112.77-193.6 112.77h-244.29c-40.32 0-72.76-32.69-72.76-73 0-.001 0-97.889 0-97.89l254.76-54.12.64-.11.65-.11z" fill="#ff6c6c"/><path d="m510.65 217.894v154.79c0 44.05-88.23 112.77-193.6 112.77h-61.65v-225.12l.65-.11z" fill="#ff0059"/><path d="m510.65 217.894c.16 106.92-86.41 193.32-192.95 193.32h-221.22c-52.929 0-96.48-42.77-96.48-96.65.12-47.821 34.856-87.238 80.23-94.94 24.51-4.16 44.09-22.85 49.95-47.01 15.58-64.22 63.29-115.88 125.15-136.99.02-.01.05-.02.07-.02 127.08-43.32 255.01 54.61 255.25 182.29z" fill="#f8e5ca"/><path d="m510.65 217.894c.16 106.92-86.41 193.32-192.95 193.32h-62.3v-375.61c127.08-43.32 255.01 54.61 255.25 182.29z" fill="#f1c992"/><path d="m453.14 220.734c0 72.56-57.57 131.67-129.52 134.16v.09h-229.84c-20.89 0-37.85-16.94-37.85-37.85 0-20.08 8.57-29.97 25.47-34.68 52.2-14.56 92.73-55.05 110.85-106.13 11.05-31.17 33.35-57.99 63.08-74 .02-.01.05-.03.07-.04 87.89-47.38 197.74 15.98 197.74 118.45z" fill="#ff6c6c"/><path d="m453.14 220.734c0 72.56-57.57 131.67-129.52 134.16v.09h-68.22v-252.7c87.89-47.38 197.74 15.98 197.74 118.45z" fill="#ff0059"/><circle cx="335.645" cy="191.811" fill="#f1c992" r="33.911"/></svg>