<svg id="Guide" height="512" viewBox="0 0 512 512" width="512" xmlns="http://www.w3.org/2000/svg"><path d="m431 166.674v324.44a4.849 4.849 0 0 1 -4.81 4.89h-340.375a4.857 4.857 0 0 1 -4.82-4.89v-326.62a9.012 9.012 0 0 1 .33-1.6 28.489 28.489 0 0 1 5.28-10.53l66.61-84.19.04-.11a2.03 2.03 0 0 0 .66.11h204.17a2.076 2.076 0 0 0 .66-.11l.04.11 63.41 84.06c.46.6.89 1.23 1.3 1.86 1.91 2.98 7.505 11.76 7.505 12.58zm-72.31 118.81c0-57.57-45.98-104.24-102.69-104.24s-102.68 46.67-102.68 104.24 45.98 104.24 102.68 104.24 102.685-46.67 102.685-104.24z" fill="#e48e66"/><path d="m360.085 18v48.17a1.981 1.981 0 0 1 -1.34 1.89 2.076 2.076 0 0 1 -.66.11h-204.17a2.03 2.03 0 0 1 -.66-.11 1.994 1.994 0 0 1 -1.34-1.89v-48.17a1.993 1.993 0 0 1 2-2h204.17a1.993 1.993 0 0 1 2 2z" fill="#6fe3ff"/><path d="m256 181.244c56.71 0 102.69 46.67 102.69 104.24s-45.985 104.24-102.69 104.24-102.68-46.67-102.68-104.24 45.98-104.24 102.68-104.24zm32.18 152.75c17.84-12.41 17.89-44.19.12-70.98s-46.64-38.45-64.47-26.04-17.89 44.19-.12 70.98 46.625 38.446 64.465 26.04z" fill="#f8ec7d"/><path d="m288.3 263.014c17.77 26.79 17.72 58.57-.12 70.98l-16.19-14.31a49.427 49.427 0 0 1 -16.14-30.27l-.81-5.86a59.138 59.138 0 0 0 -19.66-36.53l-11.55-10.05c17.825-12.41 46.695-.75 64.47 26.04z" fill="#cc7350"/><path d="m271.985 319.684 16.19 14.31c-17.84 12.41-46.7.75-64.47-26.04s-17.72-58.56.12-70.98l11.55 10.05a59.138 59.138 0 0 1 19.66 36.53l.81 5.86a49.427 49.427 0 0 0 16.14 30.27z" fill="#e48e66"/><g fill="#63316d"><path d="m85.815 502h340.37a10.863 10.863 0 0 0 10.815-10.886v-324.441c0-1.917 0-2.635-8.469-15.848-.564-.869-1.063-1.582-1.541-2.2l-61.062-80.946a7.989 7.989 0 0 0 .158-1.506v-48.173a8.009 8.009 0 0 0 -8-8h-204.17a8.009 8.009 0 0 0 -8 8v48.173a8.017 8.017 0 0 0 .131 1.392l-64.147 81.076a34.237 34.237 0 0 0 -6.38 12.732 11.982 11.982 0 0 0 -.52 3.121v326.62a10.867 10.867 0 0 0 10.815 10.886zm72.1-480h196.17v40.173h-196.169zm-70.915 142.943c.036-.155.084-.339.14-.552a22.647 22.647 0 0 1 4.175-8.3l64.809-81.914h199.676l61.639 81.713c.313.407.639.875 1.009 1.445 3.862 6.025 5.784 9.24 6.552 10.626v322.039h-338z"/><path d="m248.5 226.8c-10.566-2.015-20.28-.2-28.106 5.246-10.283 7.159-15.96 19.594-15.986 35.016-.024 14.573 5.053 30.273 14.294 44.2 11.577 17.453 28.318 29.75 44.783 32.894a43.769 43.769 0 0 0 8.2.8 34.354 34.354 0 0 0 19.915-6.036c10.283-7.155 15.961-19.589 15.987-35.014.024-14.576-5.052-30.276-14.293-44.209-11.576-17.455-28.322-29.753-44.794-32.897zm17.236 105.575c-13.36-2.551-27.2-12.921-37.034-27.74-14.35-21.635-16.112-47.535-4.886-59.716l7.621 6.631a53.065 53.065 0 0 1 17.655 32.826l.81 5.858a55.377 55.377 0 0 0 18.109 33.944l9.24 8.167a28.082 28.082 0 0 1 -11.512.032zm22.475-6.358-12.255-10.832a43.379 43.379 0 0 1 -14.17-26.6l-.811-5.857a65.047 65.047 0 0 0 -21.661-40.228l-4.475-3.894a28.152 28.152 0 0 1 11.415-.015c13.363 2.55 27.211 12.92 37.042 27.741 14.345 21.626 16.117 47.498 4.918 59.687z"/><path d="m256 175.244c-59.926 0-108.68 49.453-108.68 110.24s48.749 110.239 108.68 110.239 108.69-49.453 108.69-110.239-48.763-110.24-108.69-110.24zm0 208.479c-53.31 0-96.68-44.07-96.68-98.239s43.37-98.24 96.68-98.24 96.69 44.07 96.69 98.24-43.38 98.239-96.69 98.239z"/></g></svg>