<?xml version="1.0" encoding="iso-8859-1"?>
<!-- Generator: Adobe Illustrator 19.0.0, SVG Export Plug-In . SVG Version: 6.00 Build 0)  -->
<svg version="1.1" id="Layer_1" xmlns="http://www.w3.org/2000/svg" xmlns:xlink="http://www.w3.org/1999/xlink" x="0px" y="0px"
	 viewBox="0 0 511.999 511.999" style="enable-background:new 0 0 511.999 511.999;" xml:space="preserve">
<g>
	<polygon style="fill:#FDD834;" points="350.642,281.494 349.874,281.579 162.125,281.579 161.357,281.494 170.659,204.773 
		341.34,204.773 	"/>
	<path style="fill:#FDD834;" d="M375.476,486.397c0,9.43-7.638,17.068-17.068,17.068H153.591c-9.43,0-17.068-7.638-17.068-17.068
		l8.534-68.272h221.885L375.476,486.397z"/>
</g>
<polygon style="fill:#D84315;" points="367.198,418.124 144.801,418.124 161.357,281.579 161.357,281.494 162.125,281.579 
	349.874,281.579 350.642,281.494 "/>
<g>
	<path style="fill:#FDD834;" d="M170.659,127.967H341.34c9.43,0,17.068,7.638,17.068,17.068v42.67
		c0,9.43-7.638,17.068-17.068,17.068H170.659c-9.43,0-17.068-7.638-17.068-17.068v-42.67
		C153.591,135.605,161.229,127.967,170.659,127.967z"/>
	<path style="fill:#FDD834;" d="M315.738,127.967H196.261l42.67-99.507l5.206-12.118c2.782-6.554,10.343-9.609,16.897-6.827
		c3.072,1.306,5.522,3.755,6.827,6.827L315.738,127.967z"/>
</g>
<g>
	<polygon style="fill:#FFEB3A;" points="316.506,281.494 315.738,281.579 162.125,281.579 161.357,281.494 170.659,204.773 
		307.204,204.773 	"/>
	<path style="fill:#FFEB3A;" d="M341.34,486.397c0,9.43-7.638,17.068-17.068,17.068H153.591c-9.43,0-17.068-7.638-17.068-17.068
		l8.534-68.272h187.749L341.34,486.397z"/>
</g>
<polygon style="fill:#FF5722;" points="333.062,418.124 144.801,418.124 161.357,281.579 315.738,281.579 316.506,281.494 
	316.506,281.579 "/>
<g>
	<path style="fill:#FFEB3A;" d="M170.659,127.967h136.545c9.43,0,17.068,7.638,17.068,17.068v42.67
		c0,9.43-7.638,17.068-17.068,17.068H170.659c-9.43,0-17.068-7.638-17.068-17.068v-42.67
		C153.591,135.605,161.229,127.967,170.659,127.967z"/>
	<polygon style="fill:#FFEB3A;" points="281.601,127.967 196.261,127.967 238.931,28.46 	"/>
</g>
<path d="M349.874,290.114H161.186c-2.381-0.265-4.583-1.425-6.145-3.243c-1.562-1.75-2.33-4.062-2.134-6.401l9.302-76.806
	c0.555-4.241,4.173-7.416,8.449-7.425H341.34c4.344-0.034,8.013,3.2,8.534,7.51l9.302,76.806c0.589,4.677-2.722,8.944-7.399,9.533
	c-0.068,0.009-0.128,0.017-0.196,0.026L349.874,290.114L349.874,290.114z M170.659,273.045H341.34l-7.254-59.738H178.254
	L170.659,273.045z"/>
<path d="M358.408,511.999H153.591c-14.141,0-25.602-11.461-25.602-25.602c-0.017-0.341-0.017-0.683,0-1.024l8.534-68.272
	c0.521-4.31,4.19-7.544,8.534-7.51h221.885c4.344-0.034,8.013,3.2,8.534,7.51l8.534,68.272c0.017,0.341,0.017,0.683,0,1.024
	C384.01,500.537,372.54,511.999,358.408,511.999z M145.057,486.397c0,4.711,3.823,8.534,8.534,8.534h204.817
	c4.711,0,8.534-3.823,8.534-8.534l-7.254-59.738H152.396L145.057,486.397z"/>
<path d="M366.942,426.658H145.057c-4.711,0.034-8.56-3.755-8.594-8.474c0-0.367,0.017-0.725,0.06-1.084l16.556-136.545
	c0.538-4.514,4.515-7.817,9.046-7.51h187.749c4.48-0.034,8.389,3.055,9.387,7.425l16.556,136.545
	c0.614,4.677-2.671,8.961-7.339,9.584C367.966,426.658,367.454,426.684,366.942,426.658z M154.444,409.59h203.11l-14.508-119.477
	h-174.18L154.444,409.59z"/>
<path d="M341.34,213.307H170.659c-14.141,0-25.602-11.461-25.602-25.602v-42.67c0-14.141,11.461-25.602,25.602-25.602H341.34
	c14.141,0,25.602,11.461,25.602,25.602v42.67C366.942,201.846,355.472,213.307,341.34,213.307z M170.659,136.501
	c-4.711,0-8.534,3.823-8.534,8.534v42.67c0,4.711,3.823,8.534,8.534,8.534H341.34c4.711,0,8.534-3.823,8.534-8.534v-42.67
	c0-4.711-3.823-8.534-8.534-8.534C341.34,136.501,170.659,136.501,170.659,136.501z"/>
<path d="M315.738,136.501H196.261c-4.711,0-8.534-3.832-8.526-8.543c0-1.144,0.23-2.27,0.674-3.32l47.876-111.625
	c4.694-10.915,17.341-15.95,28.256-11.256c5.052,2.176,9.089,6.204,11.256,11.256l47.876,111.625
	c1.835,4.344-0.188,9.345-4.532,11.188C318.067,136.279,316.907,136.509,315.738,136.501z M209.233,119.433h93.874l-42.67-99.763
	c-1.212-2.236-4.011-3.072-6.247-1.86c-0.785,0.427-1.434,1.075-1.86,1.86L209.233,119.433z"/>
<path d="M187.727,179.171c-4.711,0-8.534-3.823-8.534-8.534v-8.534c0-4.711,3.823-8.534,8.534-8.534
	c4.711,0,8.534,3.823,8.534,8.534v8.534C196.261,175.348,192.438,179.171,187.727,179.171z"/>
<path d="M221.863,179.171c-4.711,0-8.534-3.823-8.534-8.534v-8.534c0-4.711,3.823-8.534,8.534-8.534
	c4.711,0,8.534,3.823,8.534,8.534v8.534C230.397,175.348,226.574,179.171,221.863,179.171z"/>
<path d="M255.999,179.171c-4.711,0-8.534-3.823-8.534-8.534v-8.534c0-4.711,3.823-8.534,8.534-8.534
	c4.711,0,8.534,3.823,8.534,8.534v8.534C264.533,175.348,260.71,179.171,255.999,179.171z"/>
<path d="M290.135,179.171c-4.711,0-8.534-3.823-8.534-8.534v-8.534c0-4.711,3.823-8.534,8.534-8.534
	c4.711,0,8.534,3.823,8.534,8.534v8.534C298.67,175.348,294.846,179.171,290.135,179.171z"/>
<path d="M324.272,179.171c-4.711,0-8.534-3.823-8.534-8.534v-8.534c0-4.711,3.823-8.534,8.534-8.534
	c4.711,0,8.534,3.823,8.534,8.534v8.534C332.806,175.348,328.982,179.171,324.272,179.171z"/>
<path d="M307.204,324.25H204.795c-4.711,0-8.534-3.823-8.534-8.534c0-4.711,3.823-8.534,8.534-8.534h102.409
	c4.711,0,8.534,3.823,8.534,8.534C315.738,320.426,311.914,324.25,307.204,324.25z"/>
<path d="M307.204,358.386H204.795c-4.711,0-8.534-3.823-8.534-8.534c0-4.711,3.823-8.534,8.534-8.534h102.409
	c4.711,0,8.534,3.823,8.534,8.534C315.738,354.563,311.914,358.386,307.204,358.386z"/>
<path d="M307.204,392.522H204.795c-4.711,0-8.534-3.823-8.534-8.534s3.823-8.534,8.534-8.534h102.409
	c4.711,0,8.534,3.823,8.534,8.534S311.914,392.522,307.204,392.522z"/>
<g>
</g>
<g>
</g>
<g>
</g>
<g>
</g>
<g>
</g>
<g>
</g>
<g>
</g>
<g>
</g>
<g>
</g>
<g>
</g>
<g>
</g>
<g>
</g>
<g>
</g>
<g>
</g>
<g>
</g>
</svg>
