<svg height="512" viewBox="0 0 128 128" width="512" xmlns="http://www.w3.org/2000/svg"><g><path d="m6.306 93.295h115.387v10.339h-115.387z" fill="#ef3829"/><path d="m108.453 103.634a21.475 21.475 0 0 1 -19.607 12.717h-49.692a21.475 21.475 0 0 1 -19.607-12.717z" fill="#ef3829"/><path d="m56.638 38.735h3.485a8.106 8.106 0 0 0 6.2-2.88l4.423-5.244 45.174 2.577a5.543 5.543 0 1 0 0-11.077l-45.177 2.576-4.423-5.244a8.109 8.109 0 0 0 -6.2-2.88h-3.482z" fill="#f2e7cb"/><path d="m64 68.822q-3.75 0-7.362.271v-53.183a4.261 4.261 0 0 0 -4.26-4.261h-18a4.261 4.261 0 0 0 -4.26 4.261v59.49l.025-.006c-9.813 4.441-16.31 10.777-17.3 17.9h102.314c-1.909-13.679-24.084-24.472-51.157-24.472z" fill="#ffde3e"/><g fill="#efcb37"><path d="m49.279 11.65v58.28c-1.19.18-2.36.38-3.5.61v-58.89z"/><path d="m40.979 11.65v59.98c-1.2.3-2.36.63-3.5 1v-60.98z"/><path d="m23.554 93.3c3.066-8.469 20.604-15.031 40.446-15.031s37.379 6.562 40.446 15.026h3.681c-.068-.245-.13-.447-.167-.551-3.116-10.419-21.584-17.975-43.96-17.975-22.419 0-40.914 7.584-43.954 17.962-.011.032-.078.235-.158.564z"/><path d="m34 93.3c2.269-3.7 14.323-7.456 30-7.456s27.733 3.75 30 7.456h3.744a3.524 3.524 0 0 0 -.167-.561h.013c-1.706-5-12.945-10.391-33.592-10.391s-31.884 5.378-33.598 10.406a5.362 5.362 0 0 0 -.139.541z"/></g></g></svg>