<svg id="Layer_1" height="512" viewBox="0 0 512 512" width="512" xmlns="http://www.w3.org/2000/svg" data-name="Layer 1"><path d="m240.45 154.94c14.38-.09 34.39-4.51 47.87-2.35 116.99 18.78 150.89 87.7 150.89 172.24 0 97.1-65.84 175.84-198.35 176.17h-.83c-132.51-.33-198.35-79.07-198.35-176.17 0-84.54 33.9-153.46 150.89-172.24 13.49-2.16 33.5 2.27 47.88 2.35z" fill="#f29737"/><g opacity=".5"><path d="m323.7 469.13h-.83c-132.51-.33-198.35-79.07-198.35-176.17 0-57.077 15.461-107.029 61.5-139.243-111.702 20.277-144.34 88.175-144.34 171.113 0 97.1 65.84 175.84 198.35 176.17h.83c54.059-.135 97.018-13.323 128.941-35.481a292.6 292.6 0 0 1 -46.101 3.611z" fill="#efb637"/></g><g opacity=".5"><path d="m343.51 439.514-.734.388c-117.3 61.635-212.309 22.791-257.687-63.053-33.516-63.4-40.2-128.269 16.326-190-44.669 32.251-59.735 81.642-59.735 137.981 0 97.1 65.84 175.84 198.35 176.17h.83c118.441-.3 183.609-63.236 196.114-145.937-18.441 31.726-49.062 60.837-93.464 84.451z" fill="#ce7a2e"/></g><path d="m316.68 12.32c66.26-11.03 153.64 50.54 153.64 50.54s-127.54-36.83-242.61 29.35c0 0 13.77-67.37 88.97-79.89z" fill="#76b035"/><path d="m328.88 93.19c49.35 13.09 88.46 88.57 89.07 89.75-1.07-.99-76.43-70.42-178.27-56.88 0 0 32.76-47.85 89.2-32.87z" fill="#76b035"/><g fill="#4e6b28"><path d="m358.36 24.891c13.877-2.309 28.679-1.427 43.412 1.4-26.889-10.727-57.782-18.517-85.092-13.971-75.2 12.52-88.97 79.89-88.97 79.89a285.635 285.635 0 0 1 60.278-25.866c13.142-17.472 34.934-35.552 70.372-41.453z"/><path d="m358.383 108.573c.083.022.165.049.248.071-9.278-7.087-19.282-12.677-29.751-15.454-56.44-14.98-89.2 32.87-89.2 32.87a201.806 201.806 0 0 1 45.117-.889c14.914-12.238 40.077-25.492 73.586-16.598z"/><path d="m385.526 159.468c20.247 12.251 32.006 23.085 32.424 23.472-.13-.251-2.01-3.878-5.358-9.546a261.317 261.317 0 0 0 -27.066-13.926z"/></g><path d="m87.214 453.728c36.072 34.672 88.85 53.087 152.686 53.272h1.1c63.833-.184 116.61-18.6 152.682-53.271 33.713-32.411 51.532-76.981 51.532-128.895 0-48.19-10.731-85.622-32.809-114.435-25.491-33.268-66.918-54.71-123.13-63.731-9.04-1.448-20.139-.263-30.873.885-4 .427-7.857.839-11.464 1.1a95.189 95.189 0 0 0 -.91-17.3c48.956-5.06 91.1 9.666 118.222 23.221 30.616 15.3 49.319 32.484 49.626 32.768a6 6 0 0 0 9.426-7.133c-1.656-3.223-41.158-79.1-92.875-92.824-24.78-6.576-49.2-2.559-70.614 11.614a103.653 103.653 0 0 0 -17.78 14.94 124.387 124.387 0 0 0 -7.62-18.6c57.018-31.6 116.795-37.42 157.266-36.634 45.037.866 76.669 9.829 76.983 9.919a6 6 0 0 0 5.118-10.67 375.65 375.65 0 0 0 -52.9-29.942c-41.1-19.112-76.487-26.385-105.187-21.607-40.9 6.809-64.242 29.385-76.618 47.125a119.328 119.328 0 0 0 -13.8 26.242c-2.21-3.29-4.626-6.629-7.28-10.009-19.78-25.182-45.838-43.03-66.395-45.463a6 6 0 0 0 -1.414 11.916c17.278 2.05 40.732 18.512 58.364 40.964 18.049 22.982 27.481 48.75 26.361 71.543-3.878-.257-8.066-.7-12.42-1.166-10.735-1.148-21.835-2.334-30.873-.885-56.213 9.021-97.64 30.463-123.131 63.731-22.077 28.813-32.809 66.246-32.809 114.435.004 51.909 17.822 96.479 51.536 128.89zm240.129-354.742c28.258 7.5 53.491 37.569 69.046 60.213a270.48 270.48 0 0 0 -26.413-15.172c-24.687-12.387-61.2-25.7-104.1-25.7q-5.7 0-11.54.323c12.898-12.105 38.177-28.905 73.007-19.664zm-9.679-80.744a95.041 95.041 0 0 1 15.606-1.231c28.784 0 59.846 11.342 82.363 21.8 8.352 3.879 16.084 7.884 22.876 11.633a383.365 383.365 0 0 0 -46.22-3.725c-39.789-.8-97.561 4.524-154.033 33 8.296-19.338 29.67-53.197 79.408-61.477zm-239.648 199.458c23.895-31.185 61.677-50.543 115.507-59.181a48.74 48.74 0 0 1 7.627-.52 198.619 198.619 0 0 1 20.069 1.488c6.567.7 12.794 1.368 18.486 1.45.106 0 .213.008.322.008h.837c.108 0 .216 0 .322-.008 5.692-.082 11.918-.748 18.486-1.45 9.95-1.064 20.24-2.164 27.695-.968 53.83 8.638 91.612 28 115.507 59.181 20.412 26.639 30.334 61.684 30.334 107.136 0 48.571-16.545 90.15-47.849 120.243-33.9 32.587-84 49.846-144.914 49.924-60.917-.078-111.017-17.337-144.914-49.924-31.3-30.093-47.849-71.672-47.849-120.243 0-45.455 9.918-80.5 30.334-107.136z" fill="#151515"/><path d="m90.017 384.375c-1.785-5.222-3.34-10.648-4.623-16.129a190.7 190.7 0 0 1 -4.863-43.413c0-8.062.321-15.9.952-23.3a6 6 0 1 0 -11.956-1.021c-.661 7.737-1 15.92-1 24.32a202.691 202.691 0 0 0 5.179 46.149c1.373 5.866 3.04 11.677 4.952 17.274a6 6 0 1 0 11.355-3.881z" fill="#151515"/><path d="m104.954 432.96a6 6 0 0 0 4.9-9.457 151 151 0 0 1 -9.925-16.174 6 6 0 0 0 -10.6 5.623 163.43 163.43 0 0 0 10.717 17.463 6 6 0 0 0 4.908 2.545z" fill="#151515"/></svg>