<svg id="Capa_1" enable-background="new 0 0 512 512" height="512" viewBox="0 0 512 512" width="512" xmlns="http://www.w3.org/2000/svg"><g><path d="m389.956 133.647c-43.939 28.376-102.561 15.76-130.937-28.179-1.773-2.746-.985-6.41 1.761-8.184l149.172-96.335c2.746-1.773 6.41-.985 8.184 1.761 28.375 43.939 15.759 102.562-28.18 130.937z" fill="#fe9738"/><path d="m433.292 54.001c0 31.083-15.279 61.527-43.337 79.646-19.559 12.635-42.02 17.141-63.441 14.374 15.68-.957 31.33-5.844 45.467-14.97 28.058-18.119 43.337-48.563 43.337-79.646 0-16.256-4.177-32.677-12.892-47.596l7.521-4.856c2.747-1.78 6.41-.988 8.19 1.759 10.258 15.885 15.155 33.684 15.155 51.289z" fill="#fe860a"/><path d="m374.301 109.407c-31.338 20.239-73.15 11.24-93.388-20.098l-2.29-3.547 113.486-73.29 2.29 3.546c20.239 31.339 11.241 73.15-20.098 93.389z" fill="#fedbbd"/><path d="m374.306 109.406c-17.388 11.235-38.007 13.458-56.373 7.861 12.429-.072 25.002-3.57 36.217-10.814 28.716-18.551 38.676-55.2 24.56-85.326l13.396-8.653 2.294 3.539c20.238 31.341 11.235 73.155-20.094 93.393z" fill="#feca9c"/><g><path d="m391.628 93.312-48.142-31.937 9.013 57.196c-5.083 1.152-10.237 1.687-15.372 1.636l-10.33-65.561 17.46-11.277 55.179 36.608c-2.067 4.693-4.68 9.168-7.808 13.335z" fill="#fcb47e"/></g><path d="m304.671 464.82h-173.641v32.46c0 8.129 6.59 14.719 14.719 14.719h144.202c8.129 0 14.719-6.59 14.719-14.719v-32.46z" fill="#62dbfb"/><path d="m304.671 474.534v22.745c0 8.134-6.586 14.721-14.721 14.721h-23.72c8.124 0 14.721-6.586 14.721-14.721v-22.745z" fill="#01d0fb"/><path d="m337.128 220.391c20.083-41.607 20.618-98.774 19.744-123.527-.241-6.83-5.833-12.247-12.667-12.247h-252.595c-6.834 0-12.426 5.417-12.667 12.247-.874 24.753-.339 81.92 19.744 123.527 21.07 43.653 32.846 91.735 32.949 140.842.081 38.659-.022 81.024-.605 113.305h173.754c-.583-32.281-.686-74.646-.605-113.305.102-49.107 11.877-97.189 32.948-140.842z" fill="#c8effe"/><path d="m304.178 361.234c-.08 38.662.02 81.024.603 113.301h-23.911c-.583-32.277-.684-74.639-.603-113.301.101-49.109 11.885-97.192 32.951-140.841 20.08-41.608 20.623-98.771 19.748-123.527-.241-6.827-5.832-12.247-12.669-12.247h23.911c6.827 0 12.428 5.42 12.669 12.247.865 24.756.332 81.919-19.748 123.527-21.076 43.649-32.85 91.732-32.951 140.841z" fill="#99e6fc"/><path d="m304.178 361.234c-.08 38.662.02 81.024.603 113.301h-173.751c.583-32.277.684-74.639.603-113.301-.101-49.109-11.875-97.192-32.95-140.841-6.868-14.228-11.453-30.266-14.469-46.213 37.465-5.832 77.153 2.453 114.98 10.055 46.826 9.412 97.725 17.124 140.53-4.082 4.193-2.071 8.215-4.434 12.066-7.039-3.006 16.299-7.642 32.739-14.66 47.279-21.077 43.649-32.851 91.732-32.952 140.841z" fill="#fe9738"/><path d="m351.789 173.114c-.191 1.016-.382 2.041-.583 3.057-.687 3.471-1.477 6.983-2.293 10.398-1.62 6.781-3.673 13.503-6.054 20.087-1.667 4.608-3.598 9.321-5.73 13.737-21.075 43.649-32.85 91.732-32.95 140.841-.08 38.662.02 81.024.603 113.301h-23.911c-.583-32.277-.684-74.639-.603-113.301.101-49.109 11.885-97.192 32.951-140.841 5.138-10.638 8.989-22.302 11.875-34.177 4.967-1.679 9.844-3.69 14.63-6.063 4.192-2.072 8.214-4.435 12.065-7.039z" fill="#fe860a"/></g></svg>