<svg id="Capa_1" enable-background="new 0 0 510.921 510.921" height="512" viewBox="0 0 510.921 510.921" width="512" xmlns="http://www.w3.org/2000/svg"><g><g><path d="m226.267 447.458c-9.565 0-17.319-7.754-17.319-17.319v-107.086h34.638v107.087c0 9.564-7.754 17.318-17.319 17.318z" fill="#fee97d"/><path d="m260.905 421.172c-9.565 0-17.319-7.754-17.319-17.319v-80.8h34.638v80.8c-.001 9.565-7.755 17.319-17.319 17.319z" fill="#fee97d"/><path d="m503.386 286.837c-.36-9.48-3.48-18.3-8.58-25.67-5.507-7.981-13.337-14.248-22.471-17.839l-.876-7.041-32.424-19.459-244.138 13.26-186.471 64.899c-.61 1.32-.93 2.76-.93 4.25v27.58c0 5.9 4.79 10.68 10.68 10.68h447.56 7.62l3.45-5.31c16.33-8.33 27.33-25.6 26.58-45.35z" fill="#fece85"/><g><g id="XMLID_159_"><path d="m84.032 285.303 6.314 9.915c6.93 11.7 10.59 25.06 10.59 38.66v66.51c0 10.78 8.73 19.51 19.51 19.51 5.38 0 10.26-2.18 13.79-5.71s5.71-8.41 5.71-13.8v-60.89c0-12.53 3.11-24.86 9.03-35.9l4.63-8.61 2.748-12.105z" fill="#fee97d"/><g id="XMLID_161_"><g><path d="m370.816 275.987v86.08c0 5.26-2.13 10.03-5.58 13.48s-8.21 5.58-13.47 5.58c-10.52 0-19.05-8.53-19.05-19.06v-86.08z" fill="#fee97d"/></g></g><path d="m392.09 202.169-110.685-91.18-68.045-8.068-14.933 1.779-.131.138-148.675 148.159.98 14.767-21.128 27.223h362.164 8.157l.703-.477z" fill="#fee8c7"/><g id="XMLID_146_"><path d="m281.405 110.989-68.045-8.068-14.933 1.779-.131.138-148.675 148.159 4.037 20.995-17.517 20.995h45.489l166.6-166.023.131-.138 14.933-1.778 43.927 5.209z" fill="#fedba6"/><path d="m233.67 117.76-18.994 21.477c-3.8 6.91-5.96 14.85-5.96 23.29 0 26.76 21.69 48.44 48.44 48.44 16.64 0 31.31-8.39 40.04-21.16l9.178-14.705z" fill="#f37c7c"/><g><path d="m494.806 261.167c-8.48-12.29-22.45-20.56-38.25-21.16-9.59-.37-18.59 2.04-26.27 6.47-14.58 8.44-24.39 24.2-24.39 42.26v.06c0 3.4-2.78 6.19-6.18 6.19l-.36-.92c-44.4-62.92-104.22-113.76-173.58-147.42-16.71-8.11-26.71-24.51-27.43-41.86-.33-7.79 1.21-15.78 4.86-23.29 11.75-24.23 40.93-34.34 65.15-22.58 87.99 42.7 163.33 108.19 217.88 189.38z" fill="#fedba6"/></g><g><path d="m271.059 127.706c-16.71-8.11-26.71-24.51-27.43-41.86-.33-7.79 1.21-15.78 4.86-23.29 1.413-2.915 3.118-5.624 4.997-8.117-20.261-2.679-40.873 7.66-50.28 27.058-3.65 7.51-5.19 15.5-4.86 23.29.72 17.35 10.72 33.75 27.43 41.86 69.36 33.66 129.18 84.5 173.58 147.42l.36.92c3.4 0 6.18-2.79 6.18-6.19v-.06c0-15.937 7.642-30.079 19.456-38.984-41.84-51.262-94.519-93.039-154.293-122.047z" fill="#fece85"/></g></g></g><path d="m453.502 268.468c-10.516.586-18.975 9.413-19.141 19.943-.113 7.151 3.502 13.467 9.017 17.166 1.608 1.079 2.596 2.866 2.596 4.803v62.439c0 7.803 5.997 14.518 13.792 14.885 8.322.392 15.193-6.24 15.193-14.476v-84.492c-.001-11.577-9.742-20.921-21.457-20.268z" fill="#fee97d"/><path d="m351.764 456.928c-10.523 0-19.053-8.53-19.053-19.053v-9.633c0-10.523 8.53-19.053 19.053-19.053 10.523 0 19.053 8.53 19.053 19.053v9.633c0 10.523-8.53 19.053-19.053 19.053z" fill="#fee97d"/><g id="XMLID_162_"><g><path d="m311.596 280.997c0 4.72-1.15 9.16-3.19 13.07l-.413.92h-49.513l-.445-.92c-2.03-3.91-3.19-8.35-3.19-13.07 0-15.67 12.71-28.37 28.38-28.37 15.671 0 28.371 12.7 28.371 28.37z" fill="#f37c7c"/><path d="m68.846 281.997c0 4.36-.89 8.51-2.48 12.29v.7h-55.47-2.47c.02-.05.04-.09.06-.14.5-1.05 1.18-2.02 2.02-2.87l39.116-38.98 1.414.59c10.54 5.11 17.81 15.91 17.81 28.41z" fill="#ee6161"/></g></g></g><circle cx="145.532" cy="238.892" fill="#f37c7c" r="22.063"/></g><g><path d="m510.88 286.551c-.395-10.403-3.676-20.105-9.041-28.345-.143-.286-.298-.568-.482-.841l-8.901-13.25c-43.925-65.388-100.06-119.874-166.846-161.945-3.505-2.208-8.136-1.156-10.343 2.348-2.208 3.505-1.157 8.136 2.348 10.343 58.541 36.878 108.661 83.567 149.276 138.967-3.257-.729-6.613-1.184-10.049-1.315-15.458-.581-30.086 4.984-41.203 15.687-9.171 8.829-14.928 20.171-16.671 32.569-44.378-59.774-102.91-108.351-169.914-140.869-9.915-4.812-17.362-13.196-20.971-23.609s-2.946-21.608 1.866-31.523 13.196-17.363 23.609-20.971c10.414-3.608 21.607-2.945 31.523 1.867 8.405 4.079 16.932 8.501 25.342 13.142 3.626 2.001 8.188.683 10.19-2.943 2.001-3.626.684-8.188-2.943-10.19-8.639-4.768-17.4-9.311-26.041-13.504-13.52-6.561-28.785-7.466-42.983-2.544-14.199 4.92-25.632 15.076-32.193 28.595-3.621 7.461-5.509 15.453-5.656 23.505l-101.455 101.108c-2.934 2.924-2.942 7.673-.019 10.607 1.465 1.47 3.389 2.206 5.313 2.206 1.915 0 3.831-.729 5.294-2.188l93.641-93.32c.115.354.217.71.34 1.063 2.564 7.399 6.561 14.037 11.703 19.636-2.872 6.836-4.396 14.228-4.396 21.694 0 30.845 25.094 55.94 55.939 55.94 15.876 0 30.807-6.726 41.333-18.282 10.812 8.243 21.248 16.972 31.271 26.157h-8.64c-4.142 0-7.5 3.358-7.5 7.5s3.358 7.5 7.5 7.5h24.24c14.31 14.437 27.66 29.846 39.911 46.136h-66.782c.397-2.135.61-4.305.61-6.481 0-19.783-16.095-35.877-35.877-35.877s-35.877 16.095-35.877 35.877c0 2.175.207 4.346.604 6.481h-171.995c.253-1.805.388-3.633.388-5.481 0-11.906-5.555-23.117-14.638-30.449l15.561-15.507c2.934-2.924 2.942-7.673.018-10.606-2.924-2.935-7.673-2.942-10.606-.019l-61.46 61.25c-3.365 3.352-5.218 7.814-5.218 12.563v27.585c0 10.025 8.156 18.181 18.181 18.181h52.754c4.142 0 7.5-3.358 7.5-7.5s-3.358-7.5-7.5-7.5h-52.754c-1.754 0-3.181-1.427-3.181-3.181v-24.336h70.791c5.007 9.686 7.644 20.458 7.644 31.396v66.511c0 14.892 12.115 27.007 27.007 27.007s27.007-12.115 27.007-27.007v-14.47c0-4.142-3.358-7.5-7.5-7.5s-7.5 3.358-7.5 7.5v14.47c0 6.621-5.386 12.007-12.007 12.007s-12.007-5.386-12.007-12.007v-66.511c0-10.795-2.111-21.457-6.152-31.396h38.835c-5.677 11.469-8.669 24.204-8.669 37.01v14.465c0 4.142 3.358 7.5 7.5 7.5s7.5-3.358 7.5-7.5v-14.465c0-11.25 2.813-22.434 8.135-32.345l2.505-4.665h167.122v59.587c0 14.641 11.912 26.553 26.553 26.553s26.553-11.912 26.553-26.553v-59.587h21.398c3.649 0 7.083-1.426 9.671-4.015 2.587-2.589 4.011-6.025 4.008-9.732 0-11.319 4.492-21.877 12.649-29.73 8.152-7.848 18.904-11.936 30.23-11.503 21.403.813 38.805 18.215 39.618 39.618.466 12.28-4.619 23.981-13.434 32.068v-30.453c0-7.6-3.174-14.96-8.708-20.194-5.61-5.307-12.956-7.99-20.665-7.562-14.476.807-25.995 12.804-26.223 27.313-.145 9.147 4.181 17.683 11.611 23.009v18.697h-37.656c-4.142 0-7.5 3.358-7.5 7.5s3.358 7.5 7.5 7.5h37.656v27.819c0 11.995 9.198 21.824 20.939 22.377.358.017.715.025 1.071.025 5.679 0 11.028-2.137 15.161-6.079 4.33-4.131 6.813-9.931 6.813-15.914v-35.575c18.134-10.328 29.222-30.107 28.424-51.1zm-253.722-83.079c-22.574 0-40.939-18.366-40.939-40.94 0-3.953.592-7.873 1.703-11.634 1.482.894 48.24 26.009 68.392 40.329-7.627 7.756-18.074 12.245-29.156 12.245zm5.188 77.529c0-11.512 9.366-20.877 20.877-20.877s20.877 9.366 20.877 20.877c0 2.236-.352 4.403-1.034 6.481h-39.686c-.682-2.078-1.034-4.245-1.034-6.481zm-201.003 1c0 1.867-.216 3.698-.632 5.481h-35.06l25.343-25.256c6.458 4.454 10.349 11.739 10.349 19.775zm301.974 80.069c0 6.37-5.183 11.553-11.553 11.553s-11.553-5.183-11.553-11.553v-59.587h23.105v59.587zm104.141 11.158c0 1.93-.77 3.728-2.167 5.061-1.396 1.332-3.233 2.014-5.172 1.923-3.664-.172-6.645-3.489-6.645-7.394v-62.438c0-4.421-2.212-8.545-5.917-11.031-3.635-2.438-5.764-6.483-5.696-10.82.104-6.567 5.513-12.208 12.06-12.572 3.562-.196 6.939 1.039 9.523 3.483 2.589 2.449 4.015 5.75 4.015 9.296v84.492z"/><path d="m302.711 329.999h-132.7c-4.142 0-7.5 3.358-7.5 7.5s3.358 7.5 7.5 7.5h31.437v85.14c0 13.685 11.134 24.819 24.819 24.819s24.819-11.134 24.819-24.819v-3.497c3.013 1.303 6.332 2.029 9.819 2.029 13.685 0 24.819-11.134 24.819-24.819v-58.854h16.988c4.142 0 7.5-3.358 7.5-7.5s-3.358-7.499-7.501-7.499zm-66.626 100.14c0 5.414-4.405 9.819-9.819 9.819s-9.819-4.405-9.819-9.819v-84.587h19.638v58.3zm34.638-26.286c0 5.414-4.405 9.819-9.819 9.819s-9.819-4.405-9.819-9.819v-58.3h19.638z"/><path d="m351.764 401.69c-14.641 0-26.553 11.912-26.553 26.553v9.633c0 14.641 11.912 26.553 26.553 26.553s26.553-11.912 26.553-26.553v-9.633c0-14.642-11.912-26.553-26.553-26.553zm11.553 36.185c0 6.37-5.183 11.553-11.553 11.553s-11.553-5.183-11.553-11.553v-9.633c0-6.37 5.183-11.553 11.553-11.553s11.553 5.183 11.553 11.553z"/><path d="m115.969 238.892c0 16.301 13.262 29.563 29.563 29.563s29.563-13.262 29.563-29.563-13.262-29.563-29.563-29.563-29.563 13.262-29.563 29.563zm44.126 0c0 8.03-6.533 14.563-14.563 14.563s-14.563-6.533-14.563-14.563 6.533-14.563 14.563-14.563 14.563 6.533 14.563 14.563z"/><path d="m95.468 268.457c.703 0 1.417-.1 2.125-.308 3.973-1.171 6.244-5.342 5.073-9.315l-1.688-5.725c-1.172-3.974-5.347-6.243-9.315-5.073-3.973 1.171-6.244 5.342-5.073 9.315l1.688 5.725c.962 3.265 3.951 5.381 7.19 5.381z"/><path d="m170.597 191.546c1.771 0 3.549-.624 4.978-1.893 3.097-2.75 3.378-7.491.627-10.588l-2.999-3.376c-2.75-3.097-7.491-3.377-10.588-.627s-3.378 7.491-.627 10.588l2.999 3.376c1.482 1.669 3.541 2.52 5.61 2.52z"/><path d="m210.806 266.507 5.064-4.599c3.066-2.785 3.295-7.528.51-10.594-2.784-3.066-7.527-3.295-10.594-.51l-5.064 4.599c-3.066 2.785-3.295 7.528-.51 10.594 1.48 1.63 3.514 2.458 5.555 2.458 1.798 0 3.603-.643 5.039-1.948z"/></g></g></svg>