<svg id="Capa_1" enable-background="new 0 0 512 512" height="512" viewBox="0 0 512 512" width="512" xmlns="http://www.w3.org/2000/svg"><g><g><path d="m359.263 504.5h-206.526c-15.449 0-28.372-11.733-29.86-27.11l-27.377-282.89h321l-27.376 282.89c-1.489 15.377-14.412 27.11-29.861 27.11z" fill="#e17f85"/><path d="m386.5 194.5-27.376 282.89c-1.488 15.377-14.411 27.11-29.86 27.11h30c15.449 0 28.372-11.733 29.86-27.11l27.376-282.89z" fill="#de646e"/><path d="m390.313 189.459c17.254 0 31.878-14.117 31.664-31.371-.136-11.001-6.01-20.616-14.764-26.002-2.456-1.511-3.471-4.51-2.407-7.191 1.402-3.533 2.174-7.384 2.174-11.416 0-15.566-11.482-28.29-26.152-30.599-3.379-.532-5.528-3.767-4.72-7.091.813-3.348 1.082-6.909.702-10.587-1.487-14.391-13.035-25.993-27.422-27.523-5.29-.562-10.346.211-14.874 2.021-2.598 1.039-5.615.027-7.074-2.36-5.441-8.898-15.244-14.84-26.44-14.84-3.999 0-7.821.759-11.33 2.14-2.654 1.045-5.724.174-7.208-2.262-5.437-8.92-15.251-14.878-26.462-14.878s-21.025 5.958-26.462 14.878c-1.485 2.436-4.554 3.306-7.208 2.262-3.509-1.381-7.331-2.14-11.33-2.14-11.196 0-20.998 5.942-26.44 14.842-1.459 2.387-4.477 3.398-7.074 2.36-4.529-1.811-9.584-2.584-14.874-2.021-14.387 1.529-25.935 13.131-27.422 27.523-.38 3.678-.111 7.239.702 10.587.807 3.321-1.342 6.554-4.718 7.081-14.701 2.293-26.154 15.052-26.154 30.609 0 4.032.772 7.883 2.174 11.416 1.064 2.68.049 5.679-2.407 7.191-8.755 5.387-14.628 15.001-14.764 26.002-.214 17.253 14.41 31.371 31.664 31.371h268.626z" fill="#fff0af"/><g><path d="m407.213 132.086c-2.456-1.511-3.471-4.51-2.407-7.19 1.402-3.533 2.174-7.384 2.174-11.416 0-15.566-11.482-28.29-26.152-30.599-3.379-.532-5.528-3.767-4.72-7.091.813-3.348 1.082-6.908.702-10.586-1.487-14.391-13.035-25.993-27.422-27.522-5.29-.562-10.346.21-14.874 2.021-2.598 1.039-5.615.027-7.074-2.359-5.442-8.902-15.244-14.844-26.44-14.844-3.999 0-7.821.759-11.33 2.14-2.654 1.044-5.724.174-7.208-2.262-5.437-8.92-15.251-14.878-26.462-14.878s-21.025 5.958-26.462 14.878c-.069.114-.158.206-.234.313 9.815 1.043 18.262 6.657 23.157 14.687 1.485 2.436 4.554 3.307 7.208 2.262 3.509-1.381 7.331-2.14 11.33-2.14 11.196 0 20.998 5.942 26.44 14.842 1.459 2.387 4.477 3.398 7.074 2.359 4.529-1.811 9.584-2.583 14.874-2.021 14.387 1.529 25.935 13.131 27.422 27.522.38 3.678.111 7.239-.702 10.586-.808 3.324 1.341 6.56 4.72 7.091 14.67 2.309 26.152 15.033 26.152 30.599 0 4.032-.772 7.883-2.174 11.416-1.064 2.68-.049 5.679 2.407 7.19 8.755 5.387 14.628 15.001 14.764 26.002.074 5.988-1.642 11.597-4.632 16.371h2.968c17.254 0 31.878-14.117 31.664-31.371-.135-10.999-6.009-20.613-14.763-26z" fill="#ffe07d"/></g><path d="m228.675 504.5h-50.35l-15-303.072h65.35z" fill="#ffe07d"/><path d="m283.325 504.5h50.35l15-303.072h-65.35z" fill="#ffe07d"/><path d="m91 201.428h330c12.426 0 22.5-10.074 22.5-22.5 0-12.426-10.074-22.5-22.5-22.5h-330c-12.426 0-22.5 10.074-22.5 22.5 0 12.426 10.074 22.5 22.5 22.5z" fill="#f7f6f7"/><path d="m421 156.428h-30c12.426 0 22.5 10.073 22.5 22.5 0 12.426-10.074 22.5-22.5 22.5h30c12.426 0 22.5-10.074 22.5-22.5 0-12.427-10.074-22.5-22.5-22.5z" fill="#edebed"/></g><path d="m178.954 126.023c0-6.091 4.956-11.047 11.046-11.047s11.046 4.956 11.046 11.047c0 4.143 3.358 7.5 7.5 7.5s7.5-3.357 7.5-7.5c0-14.362-11.685-26.047-26.046-26.047s-26.046 11.685-26.046 26.047c0 4.143 3.358 7.5 7.5 7.5s7.5-3.357 7.5-7.5zm249.54 23.852c-2.19-9.545-7.978-17.997-16.242-23.464 1.479-4.149 2.227-8.492 2.227-12.931 0-18.45-12.802-34.02-30.698-37.686.719-3.727.883-7.541.488-11.367-1.855-17.917-16.191-32.303-34.091-34.206-5.803-.615-11.681.078-17.104 2.006-7.154-10.814-19.04-17.227-32.074-17.227-4.44 0-8.784.75-12.928 2.229-7.16-10.816-19.042-17.229-32.072-17.229-13.036 0-24.922 6.419-32.073 17.229-4.146-1.479-8.489-2.229-12.927-2.229-13.033 0-24.918 6.412-32.075 17.227-5.417-1.926-11.3-2.621-17.108-2.005-17.896 1.903-32.231 16.289-34.087 34.208-.394 3.818-.23 7.626.487 11.354-17.623 3.631-30.697 19.521-30.697 37.696 0 4.433.747 8.771 2.228 12.932-8.27 5.481-14.053 13.927-16.242 23.463-12.928 3.337-22.506 15.098-22.506 29.053 0 15.99 12.576 29.096 28.356 29.953l26.059 269.228c1.858 19.321 17.905 33.891 37.325 33.891h206.52c19.42 0 35.467-14.57 37.326-33.888l26.059-269.231c15.78-.857 28.356-13.963 28.356-29.953-.001-13.955-9.579-25.716-22.507-29.053zm-275.754 347.125c-11.652 0-21.28-8.739-22.395-20.333l-25.914-267.739h51.756l14.257 288.072zm68.435 0h-35.713l-14.258-288.072h49.97zm105.362 0h-35.713v-137.363c0-4.143-3.358-7.5-7.5-7.5s-7.5 3.357-7.5 7.5v137.363h-39.649v-288.072h39.649v115.709c0 4.143 3.358 7.5 7.5 7.5s7.5-3.357 7.5-7.5v-115.709h49.97zm55.118-20.329c-1.115 11.59-10.743 20.329-22.395 20.329h-17.704l14.258-288.072h51.756zm39.345-282.743h-330c-8.271 0-15-6.729-15-15s6.729-15 15-15h52.113c4.142 0 7.5-3.357 7.5-7.5s-3.358-7.5-7.5-7.5h-43.556c1.906-4.266 5.077-7.94 9.186-10.464 5.544-3.438 7.821-10.312 5.422-16.321-1.091-2.76-1.645-5.674-1.645-8.662 0-11.467 8.514-21.44 19.812-23.201 3.677-.577 6.961-2.67 9.009-5.742 2.048-3.073 2.717-6.909 1.838-10.51-.633-2.618-.812-5.329-.53-8.055 1.13-10.914 9.858-19.677 20.749-20.835 3.928-.413 7.733.099 11.296 1.522 6.03 2.419 12.871.146 16.264-5.409 4.308-7.045 11.8-11.251 20.042-11.251 2.963 0 5.852.545 8.59 1.621 6.108 2.399 12.982.159 16.354-5.336 4.308-7.066 11.806-11.285 20.056-11.285s15.748 4.219 20.067 11.301c3.361 5.48 10.235 7.717 16.347 5.319 2.734-1.075 5.623-1.62 8.586-1.62 8.242 0 15.734 4.206 20.039 11.249 3.395 5.557 10.233 7.832 16.254 5.416 3.574-1.429 7.379-1.941 11.304-1.527 10.895 1.158 19.623 9.921 20.752 20.833.282 2.728.104 5.438-.526 8.042-.883 3.617-.213 7.457 1.837 10.533 2.049 3.073 5.332 5.167 9.002 5.742 11.297 1.78 19.817 11.75 19.817 23.192 0 2.988-.553 5.902-1.635 8.639-2.408 6.032-.132 12.906 5.44 16.361 4.092 2.513 7.256 6.184 9.16 10.447h-234.331c-4.142 0-7.5 3.357-7.5 7.5s3.358 7.5 7.5 7.5h242.887c8.271 0 15 6.729 15 15s-6.729 15.001-15 15.001zm-114.546-60.405c4.142 0 7.5-3.357 7.5-7.5 0-6.091 4.956-11.047 11.046-11.047s11.046 4.956 11.046 11.047c0 4.143 3.358 7.5 7.5 7.5s7.5-3.357 7.5-7.5c0-14.362-11.685-26.047-26.046-26.047s-26.046 11.685-26.046 26.047c0 4.143 3.358 7.5 7.5 7.5zm-69-45c4.142 0 7.5-3.357 7.5-7.5 0-6.091 4.956-11.047 11.046-11.047s11.046 4.956 11.046 11.047c0 4.143 3.358 7.5 7.5 7.5s7.5-3.357 7.5-7.5c0-14.362-11.685-26.047-26.046-26.047s-26.046 11.685-26.046 26.047c0 4.143 3.358 7.5 7.5 7.5z"/></g></svg>