<svg id="Capa_1" enable-background="new 0 0 512 512" height="512" viewBox="0 0 512 512" width="512" xmlns="http://www.w3.org/2000/svg"><g><path d="m184.182 187.122-62.84 27.355-62.84-27.355v-17.498c0-29.868-6.525-59.375-19.12-86.457l-5.837-12.552 87.797-27.355 87.797 27.355-5.837 12.552c-12.594 27.082-19.12 56.589-19.12 86.457z" fill="#81a7c6"/><path d="m453.499 187.122-62.84 27.355-62.84-27.355v-17.498c0-29.868-6.525-59.375-19.12-86.457l-5.837-12.552 87.797-27.355 87.797 27.355-5.837 12.552c-12.594 27.082-19.12 56.589-19.12 86.457z" fill="#81a7c6"/><path d="m235.639 472.533c-74.842 20.337-153.754 20.337-228.595 0-4.822-1.31-7.817-6.118-6.869-11.024l52.066-269.222c.58-2.999 3.205-5.165 6.26-5.165h125.681c3.054 0 5.68 2.166 6.26 5.165l52.066 269.222c.949 4.906-2.047 9.714-6.869 11.024z" fill="#dae7ef"/><path d="m218.736 70.616h-194.789c-4.128 0-7.474-3.346-7.474-7.474v-8.192c0-16.975 13.761-30.735 30.735-30.735h148.266c16.975 0 30.735 13.761 30.735 30.735v8.192c.001 4.128-3.345 7.474-7.473 7.474z" fill="#98b9d3"/><path d="m511.825 461.509c.949 4.906-2.047 9.714-6.869 11.024-74.841 20.337-153.754 20.337-228.595 0-4.822-1.31-7.817-6.118-6.869-11.024l52.066-269.222c.58-2.999 3.205-5.165 6.26-5.165h125.681c3.054 0 5.68 2.166 6.26 5.165z" fill="#365e7d"/><path d="m242.508 461.509-52.066-269.222c-.58-2.999-3.205-5.165-6.26-5.165h-31.962l49.081 253.783c.949 4.906-2.047 9.713-6.869 11.024-63.374 17.221-129.667 19.859-193.935 7.915l-.322 1.664c-.949 4.906 2.047 9.713 6.869 11.024 74.841 20.337 153.754 20.337 228.595 0 4.822-1.309 7.818-6.117 6.869-11.023z" fill="#bcd0df"/><path d="m511.825 461.509-52.066-269.222c-.58-2.999-3.205-5.165-6.26-5.165h-31.962l49.081 253.783c.949 4.906-2.047 9.713-6.869 11.024-63.374 17.221-129.667 19.859-193.935 7.915l-.322 1.664c-.949 4.906 2.047 9.713 6.869 11.024 74.841 20.337 153.754 20.337 228.595 0 4.822-1.309 7.818-6.117 6.869-11.023z" fill="#2b4d66"/><path d="m488.053 70.616h-194.789c-4.128 0-7.474-3.346-7.474-7.474v-8.192c0-16.975 13.761-30.735 30.735-30.735h148.266c16.975 0 30.735 13.761 30.735 30.735v8.192c.001 4.128-3.345 7.474-7.473 7.474z" fill="#98b9d3"/><path d="m121.342 401.068c-15.174 0-29.325-8.166-36.93-21.309-3.684-6.366-1.509-14.512 4.857-18.196 6.364-3.685 14.513-1.509 18.196 4.857 2.861 4.943 8.178 8.014 13.877 8.014 8.829 0 16.012-7.183 16.012-16.012s-7.183-16.012-16.012-16.012c-23.515 0-42.646-19.131-42.646-42.646s19.131-42.646 42.646-42.646c15.174 0 29.325 8.166 36.93 21.309 3.684 6.366 1.509 14.512-4.857 18.196s-14.513 1.508-18.196-4.857c-2.861-4.943-8.177-8.014-13.877-8.014-8.829 0-16.012 7.183-16.012 16.012s7.183 16.012 16.012 16.012c23.515 0 42.646 19.131 42.646 42.646s-19.131 42.646-42.646 42.646z" fill="#365e7d"/><path d="m390.659 257.118h-29.329c-7.355 0-13.317 5.962-13.317 13.317v116.874c0 7.333 5.737 13.623 13.068 13.756 7.469.136 13.566-5.877 13.566-13.315v-43.59c0-.967.784-1.75 1.75-1.75h13.462c23.288 0 42.883-18.337 43.434-41.618.566-23.983-18.778-43.674-42.634-43.674zm-.465 58.658h-13.797c-.967 0-1.75-.784-1.75-1.75v-28.523c0-.967.784-1.75 1.75-1.75h14.262c9.096 0 16.445 7.625 15.992 16.819-.425 8.6-7.845 15.204-16.457 15.204z" fill="#dae7ef"/></g></svg>