<svg id="Capa_1" enable-background="new 0 0 512 512" height="512" viewBox="0 0 512 512" width="512" xmlns="http://www.w3.org/2000/svg"><g><path d="m305.7 168.167v16.448c0 3 1.613 5.78 4.239 7.229 19.825 10.94 102.776 69.015 111.06 278.185.745 18.807-14.289 34.472-33.11 34.472h-263.778c-18.821 0-33.855-15.666-33.11-34.472 8.284-209.169 91.235-267.244 111.06-278.185 2.627-1.449 4.239-4.229 4.239-7.229v-16.448z" fill="#edf6ff"/><path d="m305.7 168.167v16.448c0 3 1.613 5.78 4.239 7.229 19.825 10.94 102.776 69.015 111.06 278.185.745 18.807-14.289 34.472-33.11 34.472h-263.778c-18.821 0-33.855-15.666-33.11-34.472 8.284-209.169 91.235-267.244 111.06-278.185 2.627-1.449 4.239-4.229 4.239-7.229v-16.448z" fill="#edf6ff"/><path d="m420.999 470.028c-8.284-209.169-91.235-267.244-111.06-278.185-2.626-1.449-4.239-4.229-4.239-7.229v-16.448h-23v16.448c0 3 1.613 5.78 4.239 7.229 19.825 10.94 102.776 69.015 111.06 278.185.745 18.807-14.289 34.472-33.11 34.472h23c18.822 0 33.855-15.666 33.11-34.472z" fill="#d8e2f3"/><g><path d="m231.15 73.624h49.7v83.119h-49.7z" fill="#bacdea"/><path d="m257.85 73.624h23v82.976h-23z" fill="#a2bbe3"/><path d="m305.7 35.633h-99.4v38.7c0 8.837 7.163 16 16 16h67.4c8.836 0 16-7.163 16-16z" fill="#d8e2f3"/><path d="m289.7 140.033h-67.4c-8.837 0-16 7.163-16 16v17.133h99.4v-17.133c0-8.836-7.164-16-16-16z" fill="#bbe6a9"/><path d="m289.7 140.033h-23c8.837 0 16 7.163 16 16v17.133h23v-17.133c0-8.836-7.164-16-16-16z" fill="#9edaab"/><path d="m282.7 35.633v38.7c0 8.836-7.163 16-16 16h23c8.836 0 16-7.164 16-16v-38.7z" fill="#bacdea"/></g><path d="m345.377 438.233h-178.754c-9.801 0-17.46-8.463-16.484-18.215l13.253-132.533c.847-8.469 7.973-14.918 16.484-14.918h152.248c8.511 0 15.638 6.449 16.484 14.918l13.253 132.533c.976 9.753-6.682 18.215-16.484 18.215z" fill="#bbe6a9"/><path d="m281.133 338.833h-50.267c-4.418 0-8-3.582-8-8v-17.133c0-4.418 3.582-8 8-8h50.267c4.418 0 8 3.582 8 8v17.133c0 4.419-3.581 8-8 8z" fill="#fcf5c7"/><path d="m361.862 420.018-13.253-132.534c-.847-8.469-7.973-14.918-16.484-14.918h-23c8.511 0 15.637 6.449 16.484 14.918l13.253 132.534c.975 9.753-6.683 18.215-16.485 18.215h23c9.802 0 17.46-8.462 16.485-18.215z" fill="#9edaab"/><path d="m312.564 40.633c5.698 0 9.724-5.631 7.831-11.006-4.538-12.889-16.821-22.127-31.262-22.127h-152.264c-6.158 0-10.163 6.48-7.409 11.988l8.283 16.567c1.403 2.806 4.271 4.579 7.409 4.579h167.412z" fill="#edf6ff"/><path d="m320.395 29.627c-4.538-12.889-16.821-22.127-31.262-22.127h-23.243c14.441 0 26.724 9.238 31.262 22.127 1.892 5.375-2.133 11.006-7.831 11.006h23.244c5.697 0 9.722-5.631 7.83-11.006z" fill="#d8e2f3"/><path d="m281.133 305.7h-23c4.418 0 8 3.582 8 8v17.133c0 4.418-3.582 8-8 8h23c4.418 0 8-3.582 8-8v-17.133c0-4.418-3.581-8-8-8z" fill="#f8e883"/></g><g><path d="m428.494 469.731c-3.567-90.059-21.129-163.028-52.2-216.879-25.179-43.641-52.257-61.795-62.729-67.575-.221-.122-.364-.382-.364-.663v-28.581c0-12.958-10.542-23.5-23.5-23.5h-1.35v-34.7h1.35c12.958 0 23.5-10.542 23.5-23.5v-26.22c4.878-.198 9.425-2.649 12.261-6.654 2.949-4.164 3.699-9.518 2.008-14.323-5.715-16.231-21.121-27.136-38.337-27.136h-152.264c-5.51 0-10.529 2.798-13.426 7.485-2.897 4.688-3.155 10.428-.691 15.356l8.283 16.566c2.691 5.382 8.1 8.725 14.117 8.725h53.648v26.2c0 12.958 10.542 23.5 23.5 23.5h1.35v34.7h-1.35c-12.958 0-23.5 10.542-23.5 23.5v28.581c0 .281-.143.541-.363.663-10.473 5.779-37.551 23.934-62.73 67.575-31.071 53.851-48.633 126.82-52.2 216.879-.442 11.162 3.577 21.743 11.316 29.795 7.732 8.045 18.133 12.475 29.288 12.475h35.073c4.142 0 7.5-3.358 7.5-7.5s-3.358-7.5-7.5-7.5h-35.073c-7.036 0-13.596-2.794-18.474-7.869-4.885-5.082-7.421-11.761-7.143-18.806 3.47-87.606 20.361-158.252 50.204-209.977 12.632-21.894 25.559-36.724 36.247-46.548h71.055c4.142 0 7.5-3.358 7.5-7.5s-3.358-7.5-7.5-7.5h-51.01c.237-.134.474-.269.695-.391 5.005-2.763 8.115-8.048 8.115-13.795v-3.948h84.4v3.948c0 5.747 3.109 11.032 8.116 13.795 9.373 5.173 33.69 21.563 56.985 61.938 29.843 51.725 46.734 122.371 50.204 209.977.279 7.045-2.258 13.724-7.143 18.806-4.877 5.075-11.438 7.869-18.474 7.869h-198.705c-4.142 0-7.5 3.358-7.5 7.5s3.358 7.5 7.5 7.5h198.707c11.155 0 21.556-4.43 29.288-12.474 7.739-8.051 11.757-18.632 11.316-29.794zm-115.174-437.613c.034.097.125.354-.101.673-.242.342-.554.342-.656.342h-6.863-99.4-17.35v-18.133h100.183c10.863 0 20.583 6.879 24.187 17.118zm-168.868.582-8.283-16.566c-.053-.107-.195-.391.035-.762.229-.372.545-.372.665-.372h37.081v18.133h-28.797c-.299 0-.568-.166-.701-.433zm69.348 41.634v-26.2h84.4v26.2c0 4.687-3.813 8.5-8.5 8.5h-8.85-49.7-8.85c-4.687 0-8.5-3.813-8.5-8.5zm24.85 23.5h34.7v34.7h-34.7zm-24.85 58.199c0-4.687 3.813-8.5 8.5-8.5h8.85 49.7 8.85c4.687 0 8.5 3.813 8.5 8.5v9.633h-84.4z"/><path d="m159.249 404.279c.412-4.122-2.595-7.797-6.717-8.209-4.117-.409-7.797 2.595-8.209 6.717l-1.648 16.485c-.675 6.753 1.549 13.512 6.104 18.544 4.553 5.032 11.058 7.918 17.844 7.918h178.755c6.786 0 13.291-2.886 17.844-7.918 4.554-5.032 6.779-11.791 6.104-18.544l-13.253-132.533c-1.235-12.355-11.53-21.672-23.947-21.672h-152.25c-12.417 0-22.712 9.317-23.947 21.672l-8.605 86.049c-.412 4.122 2.595 7.797 6.717 8.209 4.116.412 7.796-2.595 8.209-6.717l8.605-86.049c.465-4.654 4.344-8.164 9.021-8.164h152.248c4.678 0 8.556 3.51 9.022 8.164l13.253 132.533c.258 2.582-.559 5.063-2.299 6.986-1.741 1.924-4.128 2.983-6.722 2.983h-178.755c-2.594 0-4.982-1.059-6.722-2.983-1.741-1.923-2.558-4.405-2.299-6.986z"/><path d="m115.967 471.367c0 4.142 3.358 7.5 7.5 7.5h265.066c4.142 0 7.5-3.358 7.5-7.5s-3.358-7.5-7.5-7.5h-265.066c-4.142 0-7.5 3.358-7.5 7.5z"/><path d="m281.133 346.333c8.547 0 15.5-6.953 15.5-15.5v-17.133c0-8.547-6.953-15.5-15.5-15.5h-50.267c-8.547 0-15.5 6.953-15.5 15.5v17.133c0 8.547 6.953 15.5 15.5 15.5zm-50.766-15.5v-17.133c0-.276.224-.5.5-.5h50.267c.276 0 .5.224.5.5v17.133c0 .276-.224.5-.5.5h-50.267c-.276 0-.5-.224-.5-.5z"/></g></svg>