<svg id="Layer_1" height="512" viewBox="0 0 512 512" width="512" xmlns="http://www.w3.org/2000/svg" data-name="Layer 1"><path d="m441.29 250.11a155.662 155.662 0 0 1 -8.21 50.11c-16.39 48.21-75.09 141.37-106.13 173.87-23.78 24.91-52.52 40.58-83.48 10.16-32.7-32.12-79.49-88.05-113.23-144.2-56.62-94.21-24.99-162.22 16.52-190.17 12.26 5.27 30.26 11.2 47.27 10.04 25.69-1.75 36.39-32.51 36.39-32.51 1.35 41.27 37.73 68.14 37.73 68.14-.67-22.93 23.59-43.37 24.94-86.84.12-3.99 7.53 28.19 11.45 37.06 6.42 14.52 24.26 38.41 50.54 38.41 6.07 0 24.26-1.34 24.26-1.34s.58-14.69 0-19.55c-3.37-28.3-31.1-26.25-43.13-39.08-6.67-7.11-7.47-17.15-7.25-23.16h.01c10.93.77 29.46 9.9 29.46 9.9 54.42 29.02 82.86 84.18 82.86 139.16z" fill="#ca301e"/><g opacity=".5"><path d="m282.147 448.288c-32.7-32.12-79.49-88.05-113.23-144.2-14.2-23.632-22.85-45.615-27.184-65.732-10.374-34.081-5.417-64.529 6.765-87.746-.587-.244-1.175-.488-1.738-.73-41.51 27.95-73.14 95.96-16.52 190.17 33.74 56.15 80.53 112.08 113.23 144.2 30.96 30.42 59.7 14.75 83.48-10.16 4.029-4.218 8.524-9.461 13.332-15.493-17.851 9.763-37.5 9.966-58.135-10.309z" fill="#823b33"/></g><path d="m235.08 52.03c.81-11.15.01-22.5-4.64-31.08.91 1.02 59.31 66.21 59.28 66.21 0 0 34.36-76.75 97.03-76.16 0 0-31.67 24.94-64.49 63.95-.99 1.18 5.87-1.95 5.87-1.95l97.7-28.3c-28.3 42.46-96.36 51.21-96.36 51.21a37.8 37.8 0 0 0 -.51 5.14c-.22 6.01.58 16.05 7.25 23.16 12.03 12.83 39.76 10.78 43.13 39.08.58 4.86 0 19.55 0 19.55s-18.19 1.34-24.26 1.34c-26.28 0-44.12-23.89-50.54-38.41-3.92-8.87-11.33-41.05-11.45-37.06-1.35 43.47-25.61 63.91-24.94 86.84 0 0-36.38-26.87-37.73-68.14 0 0-10.7 30.76-36.39 32.51-17.01 1.16-35.01-4.77-47.27-10.04a139.017 139.017 0 0 1 -15.06-7.48s73.36-6.92 80.52-24.93c3.66-9.18-141.51 4.72-141.51 4.72 88.92-50.55 153.29-30.25 157.38-28.88a.221.221 0 0 0 .21.07s-.07-.02-.21-.07c-1.33-1.31 5.5-20.99 6.99-41.28z" fill="#76b035"/><g fill="#151515"><path d="m71.278 128.162c51.564-4.937 108.021-8.631 129.382-7.721-5.18 2.923-14.774 6.676-32.52 10.357-18.7 3.877-36.833 5.616-37.015 5.633a6 6 0 0 0 -2.514 11.123c.351.21 2.705 1.6 6.525 3.536-20.162 16.682-34.3 40.913-39.34 67.926-7.019 37.636 3.109 80.558 29.29 124.128 35.97 59.856 83.982 115.729 114.169 145.389 12.474 12.257 25.713 18.467 39.36 18.467.239 0 .479 0 .718-.006 16.735-.266 33.729-9.672 51.952-28.756 31.594-33.087 90.506-126.2 107.464-176.091a164.594 164.594 0 0 0 -1.935-110.115 161.859 161.859 0 0 0 -75.565-86.38l-.032.059a36.784 36.784 0 0 0 -3.376-1.664c-1.8-.819-4.625-2.063-7.838-3.336-1.608-.638-3.14-1.2-4.633-1.736 22.461-5.252 64.106-18.928 85.449-50.951a6 6 0 0 0 -6.662-9.091l-83.518 24.192c26.638-29.037 49.549-47.2 49.817-47.407a6 6 0 0 0 -3.656-10.718c-27.424-.292-53.946 13.554-76.625 39.946a187.914 187.914 0 0 0 -21.838 31.67l-53.437-59.677a6 6 0 0 0 -9.743 6.866 36.4 36.4 0 0 1 3.785 13.34c-18.213-16.665-39.419-26.378-59.53-27a6 6 0 1 0 -.368 11.994c21.972.675 43.725 14.145 59.8 32a216.673 216.673 0 0 1 -4.987 27.866c-.315 1.364-.6 2.592-.846 3.7a160.309 160.309 0 0 0 -39.184-3.524c-26.153.63-67.521 7.175-116.079 34.781a6 6 0 0 0 3.537 11.189zm284.412-11.875a149.872 149.872 0 0 1 69.879 79.934 152.562 152.562 0 0 1 1.818 102.064c-16.216 47.706-74.633 140.092-104.781 171.665-15.89 16.641-30.106 24.833-43.464 25.05-10.7.173-21.016-4.744-31.477-15.023-29.684-29.166-76.9-84.121-112.292-143.011-24.647-41.014-34.253-81.038-27.78-115.746 4.907-26.314 19.375-49.643 39.883-64.517 12.7 5.156 30.127 10.354 46.954 9.212 15.487-1.056 26.1-10.8 32.737-19.969 8.9 33.026 36.067 53.445 37.414 54.44a6 6 0 0 0 9.562-5c-.252-8.59 3.757-17.166 8.833-28.025 4.1-8.763 8.794-18.813 12.065-31.021a109.111 109.111 0 0 0 4 11.867c6.894 15.594 26.453 41.984 56.026 41.984 6.224 0 23.951-1.309 24.7-1.364a6 6 0 0 0 5.553-5.748c.06-1.552.577-15.314-.038-20.487-2.607-21.9-17.892-28.61-30.172-34-5.763-2.53-11.205-4.921-14.535-8.473a21.854 21.854 0 0 1 -5.236-11.753 136.26 136.26 0 0 1 20.351 7.921zm-172.259-22.081c24.021-.668 39.405 3.735 42.338 4.656a6.253 6.253 0 0 0 3.278.468 6 6 0 0 0 4.989-7.7c.269-1.561.919-4.373 1.506-6.916 1.1-4.784 2.484-10.775 3.623-17.342 9.9 14.712 15.824 30.8 15.4 44.64a6 6 0 0 0 5.813 6.181h.188a6 6 0 0 0 5.994-5.816c.6-19.6-8.8-42.571-25.353-62.388.135-2.636.186-5.28.108-7.9 19.4 21.656 42.243 47.171 43.795 48.924a6 6 0 0 0 10.058-1.365c.01-.021.02-.042.029-.064a171.889 171.889 0 0 1 24.08-36.815c15.081-17.55 31.282-28.7 48.357-33.323a525.823 525.823 0 0 0 -49.969 51.643 6.146 6.146 0 0 0 -.27 7.717c3.133 4.118 7.619 2.2 12.817-.17l77.685-22.5c-30.283 27.164-78.636 33.749-79.197 33.822a6 6 0 0 0 -5.127 4.818 42.414 42.414 0 0 0 -.6 5.821v.025.137c-.266 7.052.725 18.883 8.855 27.555 5.01 5.344 11.849 8.348 18.464 11.254 11.421 5.016 21.286 9.349 23.082 24.435.274 2.3.245 8.109.127 13.229-5.789.394-14.663.952-18.428.952-10.146 0-19.794-4.1-28.677-12.2a71.244 71.244 0 0 1 -16.374-22.639c-1.886-4.265-4.978-15.623-7.235-23.916-.986-3.62-1.837-6.747-2.525-9.088-1.059-3.61-2.5-8.561-7.8-7.931a6.129 6.129 0 0 0 -5.382 6.113c-.722 23.251-8.3 39.452-14.977 53.746-3.5 7.49-6.7 14.332-8.486 21.252-10.156-10.112-26.36-30.233-27.212-56.308a6 6 0 0 0 -11.663-1.775c-.094.27-9.646 27.033-31.13 28.5-14.3.973-29.635-3.572-41.065-8.164 5.48-.843 11.642-1.906 17.934-3.208 28.406-5.881 43.439-13.15 47.308-22.876a6.805 6.805 0 0 0 -.886-6.65c-2.554-3.4-5.449-7.262-78-2.408-13.093.877-26.15 1.891-37.314 2.814 33.862-14.633 62.357-18.698 81.842-19.24z"/><path d="m281.122 456.2a5.992 5.992 0 1 0 4.24 1.76 6.035 6.035 0 0 0 -4.24-1.76z"/><path d="m304.6 426.05a6 6 0 0 0 -6.54 10.06 6 6 0 0 0 8.3-1.76 6 6 0 0 0 -1.76-8.3z"/><path d="m324.812 394.94a6 6 0 1 0 -6.53 10.06 5.928 5.928 0 0 0 3.26.97 6 6 0 0 0 3.27-11.03z"/><path d="m365.251 332.71a6 6 0 1 0 1.761 8.3 6 6 0 0 0 -1.761-8.3z"/><path d="m345.032 363.83a6 6 0 1 0 1.76 8.3 6 6 0 0 0 -1.76-8.3z"/><path d="m377.162 303.36a6 6 0 1 0 8.3-1.76 6.01 6.01 0 0 0 -8.3 1.76z"/><path d="m402.412 281.52a6.007 6.007 0 1 0 -4.241-1.76 6.007 6.007 0 0 0 4.241 1.76z"/><path d="m246.862 415.08a6.009 6.009 0 1 0 4.24 1.76 6.01 6.01 0 0 0 -4.24-1.76z"/><path d="m273.332 380.34a6 6 0 1 0 1.77 8.3 6 6 0 0 0 -1.77-8.3z"/><path d="m298.3 352.92a6 6 0 1 0 -5.04 2.73 5.995 5.995 0 0 0 5.04-2.73z"/><path d="m321.5 317.21a6 6 0 1 0 -5.029 2.73 5.992 5.992 0 0 0 5.029-2.73z"/><path d="m343.921 282.47a5.987 5.987 0 1 0 -4.239 1.76 6.026 6.026 0 0 0 4.239-1.76z"/><path d="m176.382 336.26a6.009 6.009 0 1 0 4.24 1.76 6.029 6.029 0 0 0 -4.24-1.76z"/><path d="m204.622 309.82a6 6 0 1 0 -5.04 2.73 6.011 6.011 0 0 0 5.04-2.73z"/><path d="m228.792 270.84a6.009 6.009 0 1 0 -1.76 4.24 6.057 6.057 0 0 0 1.76-4.24z"/><path d="m151.882 293.56a6.009 6.009 0 1 0 4.24 1.76 6.01 6.01 0 0 0 -4.24-1.76z"/><path d="m166.751 276.67a6 6 0 1 0 1.761 8.31 6 6 0 0 0 -1.761-8.31z"/><path d="m175.092 269.85a6.009 6.009 0 1 0 -4.25-1.76 6.049 6.049 0 0 0 4.25 1.76z"/><path d="m132.711 248.82a6.007 6.007 0 1 0 4.241 1.76 6.056 6.056 0 0 0 -4.241-1.76z"/><path d="m149.342 240.24a6 6 0 1 0 -5.04 2.73 5.994 5.994 0 0 0 5.04-2.73z"/><path d="m155.912 225.11a6.007 6.007 0 1 0 -4.241-1.76 6.007 6.007 0 0 0 4.241 1.76z"/><path d="m209.582 375.73a5.992 5.992 0 1 0 4.24 1.75 6.043 6.043 0 0 0 -4.24-1.75z"/><path d="m275.932 279.61a5.927 5.927 0 0 0 3.259.97 6 6 0 1 0 -3.259-.97z"/><path d="m259.262 305.27a6 6 0 1 0 1.759 8.3 5.993 5.993 0 0 0 -1.759-8.3z"/><path d="m236.052 340.98a6 6 0 1 0 -6.531 10.06 5.91 5.91 0 0 0 3.261.97 6 6 0 0 0 3.27-11.03z"/><path d="m302.4 232.87a6.007 6.007 0 1 0 4.241 1.76 6.009 6.009 0 0 0 -4.241-1.76z"/></g></svg>