<svg height="512" viewBox="0 0 512 512" width="512" xmlns="http://www.w3.org/2000/svg" xmlns:xlink="http://www.w3.org/1999/xlink"><linearGradient id="New_Gradient_Swatch_12" gradientUnits="userSpaceOnUse" x1="171.25" x2="224.658" y1="361.25" y2="307.842"><stop offset=".011" stop-color="#80d1cb"/><stop offset="1" stop-color="#bfe8e5"/></linearGradient><linearGradient id="New_Gradient_Swatch_12-2" x1="238.011" x2="409.989" xlink:href="#New_Gradient_Swatch_12" y1="414.967" y2="242.989"/><linearGradient id="New_Gradient_Swatch_12-3" x1="287.36" x2="360.64" xlink:href="#New_Gradient_Swatch_12" y1="250.36" y2="177.08"/><linearGradient id="New_Gradient_Swatch_8" gradientTransform="matrix(-1 0 0 1 544 0)" gradientUnits="userSpaceOnUse" x1="421.564" x2="316.814" y1="476.937" y2="372.186"><stop offset=".011" stop-color="#fad46a"/><stop offset="1" stop-color="#fce6aa"/></linearGradient><linearGradient id="New_Gradient_Swatch_8-2" x1="315.002" x2="419.375" xlink:href="#New_Gradient_Swatch_8" y1="476.748" y2="372.375"/><g id="_03-tea" data-name="03-tea"><g id="linear_color" data-name="linear color"><path d="m283 376s-68 31-91 4c-18.169-21.328-17-70-40-75s-39-2-39-2l28-38s63-17 75 59c8.746 55.394 67 52 67 52z" fill="url(#New_Gradient_Swatch_12)"/><path d="m390 223h-132s-46 77-46 136c0 60 32 56 112 56s112 4 112-56c0-59-46-136-46-136z" fill="url(#New_Gradient_Swatch_12-2)"/><path d="m388 223v-16s-16-32-64-32-64 32-64 32v16z" fill="url(#New_Gradient_Swatch_12-3)"/><path d="m154.753 496h39.738a32 32 0 0 0 31.637-27.2l12.872-84.8h-128l12.075 84.525a32 32 0 0 0 31.678 27.475z" fill="url(#New_Gradient_Swatch_8)"/><path d="m387.247 496h-39.738a32 32 0 0 1 -31.637-27.2l-12.872-84.8h128l-12.075 84.525a32 32 0 0 1 -31.678 27.475z" fill="url(#New_Gradient_Swatch_8-2)"/><path d="m471.513 352.659c18.95-9.8 33.226-31.4 36.372-55.037 2.638-19.829-3.112-37.859-15.776-49.467-15.847-14.53-36.754-18.863-60.456-12.531a105.049 105.049 0 0 0 -17.748 6.588c-7.243-14.634-12.943-24.261-13.6-25.366-.092-.154-.2-.289-.3-.438v-9.408a12.006 12.006 0 0 0 -1.267-5.367c-.728-1.455-17.132-33.116-62.733-37.985v-4.648a12 12 0 0 0 -24 0v4.648c-45.6 4.869-62 36.53-62.733 37.985a12.006 12.006 0 0 0 -1.272 5.367v9.409c-.1.148-.21.283-.3.436a447.7 447.7 0 0 0 -32.164 68.355 67.159 67.159 0 0 0 -21.59-23.066c-25.677-16.651-54.842-9.052-56.072-8.72a12 12 0 0 0 -6.535 4.466l-28 38a11.984 11.984 0 0 0 11.813 18.924c.141-.024 14.269-2.432 34.3 1.921 6.331 1.377 11.159 17.358 15.039 30.2 2.567 8.5 5.19 17.154 8.751 25.075h-77.212a44.293 44.293 0 0 0 -35.755 18.255 43.066 43.066 0 0 0 -6.175 39.065c6.116 18.7 21.206 41.017 58.09 45.756a44.246 44.246 0 0 0 42.563 32.924h39.738a43.748 43.748 0 0 0 43.5-37.4l7.1-46.787c14.176 2.864 31.6 3.246 52 3.246h.3l6.609 43.542a43.747 43.747 0 0 0 43.5 37.4h39.736a44.246 44.246 0 0 0 42.569-32.924c36.883-4.738 51.973-27.053 58.09-45.755a43.071 43.071 0 0 0 -6.18-39.066 44.293 44.293 0 0 0 -34.288-18.211q.468-5.12.538-10.927a101.363 101.363 0 0 0 23.548-8.459zm-33.1-94c15.35-3.958 27.958-1.541 37.476 7.184 6.8 6.236 9.792 16.664 8.2 28.61-2.11 15.85-11.6 30.673-23.607 36.885a74.1 74.1 0 0 1 -14.241 5.457c-3.758-25.313-13.013-51.426-22.25-72.811a80.508 80.508 0 0 1 14.425-5.322zm-166.413-48.312c4.222-6.165 18.954-23.347 52-23.347s47.778 17.182 52 23.347v.653h-104zm-117.451 82.927a139.043 139.043 0 0 0 -17.516-2.661l10.827-14.694c6.672-.912 20.948-1.58 33.216 6.476 11.776 7.732 19.461 21.984 22.869 42.316a167.451 167.451 0 0 0 -3.945 34.289c0 4.445.172 8.567.5 12.424-5.728-7.274-9.446-19.545-13.04-31.44-6.283-20.813-12.786-42.335-32.911-46.71zm-77.644 128.584a19.316 19.316 0 0 1 2.8-17.516 19.962 19.962 0 0 1 16.325-8.342h4.563l7.716 54.015c-16.12-3.789-26.468-13.066-31.404-28.157zm117.586 62.142h-39.738a20.1 20.1 0 0 1 -19.8-17.172l-10.117-70.828h100.205l-10.777 71a19.885 19.885 0 0 1 -19.773 17zm54.2-83.911 2.168-14.288a12 12 0 0 0 -11.859-13.801h-14.322a112.282 112.282 0 0 1 -.678-13 146.457 146.457 0 0 1 3.874-31.454c.006-.028.013-.055.019-.083s.01-.039.014-.058c8.6-38.527 29.045-77.876 37.076-92.4h118.037c10.3 18.615 40.98 77.953 40.98 124a112.269 112.269 0 0 1 -.678 13h-120.322a12 12 0 0 0 -11.864 13.8l2.619 17.258c-18.391-.044-33.788-.491-45.055-2.974zm138.555 83.911h-39.736a19.885 19.885 0 0 1 -19.774-17l-10.777-71h100.2l-10.119 70.829a20.1 20.1 0 0 1 -19.794 17.171zm75.048-79.658a19.318 19.318 0 0 1 2.8 17.517c-4.936 15.09-15.284 24.367-31.4 28.156l7.714-54.015h4.562a19.965 19.965 0 0 1 16.324 8.342z"/><path d="m80 204h16a4 4 0 0 1 4 4v16a12 12 0 0 0 24 0v-16a28.032 28.032 0 0 0 -28-28h-16a4 4 0 0 1 -4-4v-17a12 12 0 0 0 -24 0v17a28.032 28.032 0 0 0 28 28z"/><path d="m52 272a12 12 0 0 0 24 0v-16a28.032 28.032 0 0 0 -28-28h-16a4 4 0 0 1 -4-4v-17a12 12 0 0 0 -24 0v17a28.032 28.032 0 0 0 28 28h16a4 4 0 0 1 4 4z"/></g></g></svg>